<?xml version="1.0" encoding="utf-8"?>
<!-- Generator: Adobe Illustrator 16.0.0, SVG Export Plug-In . SVG Version: 6.00 Build 0)  -->
<!DOCTYPE svg PUBLIC "-//W3C//DTD SVG 1.1//EN" "http://www.w3.org/Graphics/SVG/1.1/DTD/svg11.dtd">
<svg version="1.1" id="Layer_1" xmlns="http://www.w3.org/2000/svg" xmlns:xlink="http://www.w3.org/1999/xlink" x="0px" y="0px"
	 width="366px" height="92px" viewBox="297.5 231.5 366 92" enable-background="new 297.5 231.5 366 92" xml:space="preserve">
<g>
	<path fill="#FFFFFF" d="M631.928,253.338c0.782,0.131,1.567,0.241,2.346,0.396c2.074,0.413,3.989,1.202,5.574,2.629
		c4.026,3.626,3.738,9.457-0.665,12.717c-1.132,0.84-2.431,1.456-3.717,2.213c0.015,0.038,0.033,0.181,0.107,0.284
		c2.782,3.896,5.502,7.84,8.391,11.655c1.019,1.343,2.409,2.414,3.7,3.531c1.371,1.188,3.086,1.656,4.82,2.033
		c0,0.114,0,0.229,0,0.344c-0.997,0.072-2.019,0.316-2.988,0.189c-3.399-0.441-6.062-2.336-8.507-4.596
		c-3.003-2.772-5.247-6.155-7.608-9.442c-0.732-1.02-1.41-2.08-2.179-3.071c-0.226-0.29-0.665-0.55-1.026-0.576
		c-1.672-0.124-3.35-0.161-5.19-0.235c-0.035,0.594-0.111,1.229-0.104,1.863c0.041,3.251,0.094,6.501,0.165,9.752
		c0.013,0.564,0.135,1.129,0.208,1.693c0.174,1.344,0.886,2.176,2.25,2.42c0.391,0.069,0.781,0.182,1.143,0.342
		c0.193,0.086,0.321,0.317,0.479,0.481c-0.199,0.104-0.403,0.31-0.598,0.3c-0.795-0.035-1.588-0.207-2.381-0.199
		c-2.414,0.017-4.828,0.09-7.241,0.146c-0.114,0.003-0.238,0.048-0.34,0.017c-0.282-0.092-0.557-0.213-0.834-0.322
		c0.231-0.202,0.438-0.529,0.699-0.584c1.876-0.392,2.631-1.657,2.75-3.424c0.131-1.932,0.301-3.866,0.313-5.8
		c0.041-5.85,0.028-11.7,0.002-17.551c-0.005-1.02-0.173-2.039-0.282-3.058c-0.158-1.464-0.935-2.342-2.436-2.518
		c-0.197-0.023-0.406-0.053-0.578-0.142c-0.165-0.085-0.29-0.249-0.434-0.38c0.177-0.127,0.348-0.354,0.527-0.36
		c0.884-0.036,1.771,0.029,2.653-0.022c2.93-0.173,5.855-0.379,8.782-0.58c0.164-0.011,0.321-0.097,0.483-0.146
		C630.785,253.338,631.357,253.338,631.928,253.338z M624.971,266.775c0.025,0.003,0.052,0.004,0.077,0.007
		c0,0.798,0.018,1.596-0.007,2.393c-0.016,0.518,0.165,0.752,0.707,0.847c2.411,0.424,4.816,0.446,7.214-0.033
		c3.834-0.769,6.052-3.325,5.821-7.045c-0.362-5.837-5.375-10.071-12.068-7.982c-0.736,0.229-1.133,0.737-1.176,1.503
		C625.346,259.901,625.159,263.339,624.971,266.775z"/>
	<path fill="#FFFFFF" d="M413.515,253.338c0.635,0.132,1.273,0.243,1.903,0.398c3.098,0.771,5.389,2.496,6.24,5.679
		c1.048,3.918-0.651,7.259-4.41,8.934c-0.559,0.249-1.135,0.459-1.935,0.781c1.016,0.278,1.796,0.467,2.561,0.705
		c2.223,0.689,4.191,1.799,5.682,3.627c2.19,2.685,2.417,7.688,0.492,10.55c-0.74,1.102-1.765,1.848-2.999,2.316
		c-2.96,1.126-6.012,1.656-9.189,1.6c-3.786-0.064-7.574-0.015-11.407-0.015c-0.193-0.499-0.068-0.813,0.565-0.843
		c0.141-0.006,0.276-0.066,0.417-0.092c1.698-0.303,2.372-1.012,2.531-2.713c0.125-1.334,0.291-2.668,0.312-4.003
		c0.088-6.017,0.166-12.034,0.166-18.052c0-1.527-0.309-3.055-0.45-4.583c-0.16-1.722-1.105-2.681-2.786-2.955
		c-0.112-0.02-0.27,0.005-0.329-0.062c-0.138-0.151-0.313-0.35-0.307-0.522c0.006-0.127,0.276-0.348,0.43-0.348
		c0.768,0.005,1.538,0.126,2.303,0.1c2.818-0.095,5.634-0.229,8.451-0.358c0.133-0.006,0.261-0.095,0.392-0.145
		C412.601,253.338,413.058,253.338,413.515,253.338z M407.707,276.357c0,1.284-0.014,2.567,0.004,3.851
		c0.018,1.282,0.062,2.563,0.104,3.845c0.057,1.719,0.688,2.672,1.995,2.702c1.704,0.04,3.437,0.077,5.111-0.181
		c2.733-0.42,4.966-1.748,5.981-4.485c1.49-4.022-0.416-8.817-4.194-10.854c-2.521-1.358-5.208-1.472-7.978-1.242
		c-0.885,0.074-1.058,0.451-1.037,1.229C407.737,272.933,407.707,274.646,407.707,276.357z M407.611,266.186
		c0.033,0.003,0.065,0.004,0.1,0.006c0,0.684,0.014,1.368-0.005,2.053c-0.014,0.54,0.191,0.785,0.758,0.732
		c1.5-0.135,3.023-0.134,4.5-0.396c2.418-0.431,4.292-1.724,4.78-4.254c0.268-1.388,0.303-2.927-0.001-4.301
		c-0.875-3.96-4.457-5.841-8.424-5.325c-0.824,0.107-1.128,0.657-1.168,1.429C407.975,259.482,407.792,262.834,407.611,266.186z"/>
	<path fill="#FFFFFF" d="M603.148,308.326c-0.93-1.22-1.777-2.512-2.803-3.646c-2.922-3.236-5.915-6.408-8.896-9.625
		c-0.062,0.072-0.158,0.131-0.158,0.19c0.019,3.308-0.022,6.618,0.093,9.924c0.061,1.715,0.62,2.146,2.323,2.343
		c0.204,0.023,0.402,0.083,0.604,0.128c-0.009,0.077-0.015,0.153-0.021,0.23c-2.268,0-4.534,0-6.802,0
		c-0.021-0.073-0.04-0.147-0.062-0.222c0.289-0.101,0.571-0.227,0.866-0.297c0.924-0.215,1.489-0.814,1.525-1.724
		c0.146-3.644,0.297-7.288,0.308-10.935c0.004-1.571-0.645-2.08-2.256-2.365c-0.126-0.023-0.242-0.104-0.549-0.241
		c0.339-0.112,0.496-0.2,0.659-0.212c3.124-0.229,3.097-0.201,5.211,2.143c2.902,3.219,5.853,6.397,8.786,9.588
		c0.143,0.156,0.321,0.281,0.585,0.506c0.046-0.34,0.101-0.553,0.099-0.764c-0.042-2.965-0.075-5.93-0.146-8.895
		c-0.036-1.514-0.449-1.909-1.982-2.129c-0.255-0.036-0.503-0.139-0.754-0.213c0.013-0.075,0.023-0.153,0.036-0.23
		c2.161,0,4.323,0,6.606,0c-0.146,0.202-0.224,0.413-0.32,0.424c-1.808,0.198-2.261,1.479-2.278,2.979
		c-0.048,4.072-0.028,8.145-0.045,12.218c-0.001,0.273-0.074,0.549-0.114,0.823C603.491,308.326,603.32,308.326,603.148,308.326z"/>
	<path fill="#FFFFFF" d="M448.29,308.326c-1.172-1.498-2.269-3.062-3.532-4.48c-2.583-2.896-5.255-5.711-7.893-8.559
		c-0.073-0.077-0.172-0.133-0.283-0.217c-0.062,0.095-0.142,0.16-0.141,0.225c0.035,3.337,0.026,6.676,0.143,10.012
		c0.054,1.559,0.609,1.998,2.171,2.196c0.234,0.029,0.466,0.07,0.798,0.122c-0.615,0.468-6.312,0.492-7.074,0.034
		c0.348-0.119,0.59-0.237,0.845-0.285c1.044-0.196,1.611-0.825,1.666-1.869c0.129-2.532,0.241-5.065,0.334-7.601
		c0.036-0.996,0.021-1.997-0.009-2.996c-0.052-1.647-0.623-2.279-2.25-2.576c-0.139-0.025-0.262-0.133-0.363-0.406
		c1.256,0,2.512-0.017,3.766,0.021c0.167,0.006,0.335,0.283,0.485,0.449c3.435,3.779,6.867,7.562,10.302,11.345
		c0.093,0.102,0.217,0.173,0.395,0.312c0.063-0.203,0.15-0.348,0.148-0.49c-0.039-3.108-0.062-6.22-0.146-9.326
		c-0.036-1.295-0.543-1.742-1.844-1.901c-0.292-0.036-0.577-0.12-0.864-0.183c-0.002-0.08-0.006-0.159-0.009-0.238
		c0.188-0.049,0.373-0.137,0.56-0.139c1.794-0.012,3.589-0.016,5.382,0.007c0.203,0.002,0.404,0.174,0.606,0.267
		c-0.173,0.11-0.331,0.285-0.518,0.321c-1.266,0.246-1.781,1.048-1.89,2.282c-0.386,4.354-0.513,8.707-0.109,13.066
		c0.02,0.195-0.104,0.404-0.162,0.606C448.632,308.326,448.461,308.326,448.29,308.326z"/>
	<path fill="#FFFFFF" d="M475.355,308.326c-0.425-0.145-0.852-0.281-1.273-0.435c-1.91-0.689-2.989-2.05-3.13-4.069
		c-0.092-1.336-0.045-2.68-0.068-4.021c-0.03-1.825-0.065-3.647-0.103-5.472c-0.029-1.487-0.128-1.616-1.547-2.092
		c-0.123-0.041-0.229-0.127-0.309-0.358c2.16,0,4.32,0,6.481,0c0.022,0.07,0.046,0.144,0.068,0.214
		c-0.273,0.083-0.543,0.213-0.822,0.239c-1.112,0.106-1.609,0.386-1.654,1.459c-0.129,3.101-0.309,6.217-0.125,9.306
		c0.2,3.365,2.514,4.041,5.1,3.976c0.858-0.022,1.759-0.252,2.551-0.593c1.604-0.688,2.36-2.073,2.379-3.75
		c0.03-2.815-0.039-5.633-0.14-8.448c-0.047-1.31-0.514-1.714-1.819-1.947c-0.25-0.045-0.489-0.155-0.734-0.233
		c0.014-0.076,0.026-0.151,0.039-0.229c1.938,0,3.876,0,6.041,0c-0.312,0.23-0.443,0.407-0.594,0.427
		c-1.129,0.146-1.431,0.955-1.476,1.892c-0.096,1.992-0.121,3.986-0.192,5.979c-0.038,1.082-0.067,2.167-0.18,3.241
		c-0.234,2.26-1.893,4.04-4.275,4.681c-0.212,0.058-0.414,0.154-0.621,0.233C477.754,308.326,476.555,308.326,475.355,308.326z"/>
	<path fill="#FFFFFF" d="M643.748,308.326c-1.104-0.155-2.206-0.313-3.479-0.493c-0.169-1.253-0.517-2.709-0.36-4.202
		c0.099-0.027,0.197-0.054,0.298-0.08c0.129,0.246,0.309,0.479,0.377,0.739c0.815,3.107,4.991,3.695,6.838,2.665
		c2.025-1.13,2.178-3.92,0.18-5.115c-1.533-0.917-3.223-1.572-4.805-2.412c-2.186-1.162-2.899-3.517-1.712-5.603
		c0.854-1.501,2.298-2.073,3.926-2.222c0.792-0.071,1.598-0.039,2.395,0.002c0.847,0.043,1.69,0.152,2.584,0.236
		c0.063,1.184,0.13,2.354,0.194,3.522c-0.074,0.036-0.148,0.071-0.223,0.106c-0.151-0.213-0.376-0.402-0.443-0.641
		c-0.613-2.148-2.97-2.95-4.812-2.471c-1.145,0.297-1.933,1.011-2.16,2.181c-0.239,1.229,0.004,2.374,1.188,3.043
		c1.062,0.601,2.186,1.099,3.281,1.638c0.562,0.275,1.146,0.514,1.688,0.823c1.982,1.126,2.772,2.788,2.34,4.851
		c-0.347,1.643-1.905,2.916-3.913,3.213c-0.273,0.041-0.54,0.144-0.809,0.218C645.462,308.326,644.604,308.326,643.748,308.326z"/>
	<path fill="#FFFFFF" d="M548.226,260.107c-0.087,0.723-0.204,1.443-0.253,2.17c-0.309,4.75-0.626,9.499-0.889,14.252
		c-0.119,2.134-0.152,4.274-0.163,6.413c-0.015,2.636,0.829,3.59,3.426,4.013c0.448,0.071,0.897,0.144,1.37,0.219
		c0.16,0.599-0.069,0.694-0.642,0.687c-3.106-0.035-6.215-0.021-9.322-0.021c-0.512,0.002-1.026,0.058-1.538,0.038
		c-0.185-0.008-0.363-0.162-0.545-0.248c0.164-0.158,0.303-0.388,0.497-0.459c0.452-0.166,0.934-0.245,1.398-0.377
		c1.923-0.546,2.978-1.869,3.188-3.807c0.283-2.604,0.522-5.217,0.687-7.833c0.28-4.552,0.524-9.107,0.704-13.665
		c0.047-1.179-0.096-2.395-0.354-3.546c-0.375-1.675-1.525-2.701-3.202-3.083c-0.828-0.188-1.671-0.313-2.557-0.476
		c0-0.229,0-0.472,0-0.639c1.391,0,2.748-0.019,4.104,0.005c1.683,0.029,3.363,0.07,5.043,0.163
		c0.288,0.017,0.725,0.253,0.817,0.493c2.666,6.852,6.438,13.146,9.812,19.645c1.062,2.047,2.174,4.066,3.354,6.268
		c0.318-0.507,0.588-0.883,0.803-1.286c3.461-6.49,6.919-12.982,10.366-19.48c0.895-1.687,1.759-3.389,2.614-5.096
		c0.194-0.39,0.382-0.615,0.886-0.604c2.055,0.041,4.111,0.011,6.166,0.047c0.264,0.005,0.521,0.239,0.782,0.366
		c-0.246,0.177-0.47,0.423-0.743,0.513c-0.4,0.133-0.839,0.143-1.258,0.224c-1.566,0.305-2.395,1.147-2.614,2.742
		c-0.111,0.816-0.195,1.647-0.179,2.47c0.115,5.989,0.235,11.979,0.412,17.967c0.056,1.876,0.22,3.755,0.444,5.62
		c0.227,1.854,1.172,2.63,3.052,2.854c0.416,0.05,1.153-0.237,1.161,0.563c0.002,0.108-0.776,0.32-1.193,0.323
		c-3.85,0.025-7.697,0.016-11.663,0.016c-0.129-0.309-0.025-0.652,0.581-0.763c0.167-0.03,0.328-0.092,0.491-0.144
		c2.646-0.816,3.668-1.978,3.693-4.736c0.043-4.358-0.024-8.72-0.146-13.077c-0.071-2.562-0.331-5.116-0.519-7.674
		c-0.023-0.33-0.112-0.656-0.184-1.053c-0.146,0.109-0.23,0.141-0.264,0.201c-4.052,7.721-8.438,15.271-11.922,23.285
		c-0.485,1.121-0.871,2.287-1.342,3.418c-0.088,0.213-0.357,0.495-0.537,0.49c-0.184-0.007-0.459-0.294-0.522-0.511
		c-1.883-6.31-5.279-11.913-8.246-17.717c-1.453-2.843-2.946-5.665-4.424-8.494c-0.127-0.246-0.278-0.479-0.417-0.719
		C548.369,260.079,548.297,260.094,548.226,260.107z"/>
	<path fill="#FFFFFF" d="M435.503,271.289c0,3.401-0.036,6.675,0.019,9.945c0.021,1.334,0.205,2.668,0.392,3.992
		c0.037,0.265,0.38,0.621,0.649,0.697c3.122,0.895,6.317,0.773,9.511,0.602c0.851-0.047,1.701-0.174,2.542-0.313
		c3.115-0.517,5.214-2.269,6.311-5.233c0.266-0.717,0.293-0.707,0.955-0.627c-0.323,2.461-0.877,4.856-1.853,7.148
		c-0.186,0.435-0.449,0.574-0.916,0.562c-2.938-0.074-5.875-0.156-8.813-0.166c-3.849-0.014-7.698,0.043-11.547,0.063
		c-1.618,0.008-3.236,0.001-5.109,0.001c0.323-0.289,0.543-0.486,0.768-0.682c0.019-0.018,0.054-0.016,0.082-0.022
		c2.787-0.69,2.659-0.745,3.029-3.727c0.209-1.666,0.334-3.354,0.329-5.032c-0.014-6.729-0.088-13.458-0.154-20.187
		c-0.005-0.51-0.108-1.021-0.191-1.526c-0.205-1.248-0.963-1.952-2.186-2.197c-0.277-0.056-0.555-0.137-0.812-0.252
		c-0.094-0.042-0.188-0.226-0.172-0.33c0.014-0.096,0.164-0.226,0.271-0.244c0.221-0.04,0.453-0.02,0.683-0.02
		c6.88-0.01,13.76-0.02,20.64-0.028c1.222-0.002,2.442,0,3.826,0c-0.066,0.872-0.098,1.825-0.221,2.768
		c-0.136,1.041-0.32,2.08-0.562,3.104c-0.06,0.253-0.419,0.438-0.641,0.653c-0.127-0.3-0.383-0.609-0.359-0.896
		c0.246-2.915-0.347-3.696-3.235-4.142c-3.294-0.509-6.594-0.388-9.894-0.064c-0.709,0.07-1.417,0.18-2.126,0.193
		c-0.61,0.014-0.79,0.321-0.806,0.854c-0.114,3.619-0.238,7.237-0.348,10.856c-0.022,0.742-0.03,1.486,0.025,2.225
		c0.016,0.198,0.292,0.541,0.446,0.538c3.935-0.049,7.87-0.125,11.804-0.222c1.077-0.026,1.703-0.681,2.037-1.66
		c0.146-0.431,0.276-0.873,0.473-1.281c0.104-0.213,0.332-0.366,0.504-0.548c0.101,0.233,0.284,0.467,0.287,0.701
		c0.021,1.884,0.008,3.769,0.005,5.652c-0.001,1.109,0,2.218,0,3.323c-0.587,0.262-0.862,0.093-0.905-0.481
		c-0.025-0.341-0.036-0.685-0.08-1.023c-0.217-1.688-1.168-2.715-2.857-2.907C443.439,270.917,439.572,270.91,435.503,271.289z"/>
	<path fill="#FFFFFF" d="M609.783,275.805c-0.073-0.578-0.111-1.091-0.209-1.592c-0.372-1.895-1.06-2.711-2.962-2.869
		c-2.606-0.215-5.232-0.199-7.853-0.26c-1.19-0.028-2.383-0.006-3.662-0.006c-0.075,1.458-0.213,2.672-0.188,3.884
		c0.064,3.191,0.215,6.381,0.301,9.57c0.025,0.933,0.376,1.401,1.352,1.588c3.828,0.731,7.655,0.685,11.482,0.091
		c3.113-0.482,5.226-2.238,6.331-5.207c0.12-0.322,0.419-0.58,0.634-0.867c0.113,0.056,0.229,0.113,0.34,0.169
		c-0.159,0.934-0.247,1.889-0.496,2.797c-0.405,1.479-0.891,2.938-1.408,4.381c-0.091,0.252-0.52,0.545-0.788,0.543
		c-2.938-0.016-5.876-0.121-8.814-0.131c-3.85-0.014-7.698,0.026-11.548,0.066c-1.426,0.016-2.85,0.111-4.275,0.127
		c-0.241,0.003-0.486-0.215-0.731-0.328c0.188-0.162,0.356-0.418,0.572-0.473c2.962-0.743,2.803-0.792,3.126-3.922
		c0.278-2.689,0.359-5.409,0.385-8.116c0.042-4.447-0.01-8.896-0.068-13.344c-0.021-1.565-0.149-3.13-0.279-4.692
		c-0.113-1.346-0.726-2.328-2.164-2.598c-0.223-0.042-0.465-0.07-0.653-0.179c-0.167-0.097-0.274-0.297-0.407-0.451
		c0.157-0.083,0.307-0.201,0.474-0.237c0.19-0.041,0.396-0.01,0.598-0.01c6.852-0.01,13.703-0.012,20.556-0.035
		c1.219-0.005,2.438-0.101,3.812-0.162c-0.072,0.937-0.1,1.778-0.209,2.61c-0.15,1.126-0.329,2.252-0.578,3.361
		c-0.062,0.269-0.448,0.465-0.687,0.695c-0.111-0.28-0.227-0.559-0.333-0.842c-0.019-0.049-0.001-0.113,0.005-0.17
		c0.228-2.779-0.386-3.553-3.213-3.997c-3.264-0.514-6.536-0.387-9.81-0.083c-0.794,0.073-1.593,0.118-2.377,0.251
		c-0.232,0.039-0.578,0.317-0.604,0.521c-0.578,4.569-0.507,9.157-0.34,13.747c0.001,0.022,0.03,0.045,0.045,0.067
		c0.046,0.031,0.095,0.087,0.141,0.086c4.046-0.076,8.093-0.149,12.14-0.239c0.987-0.022,1.544-0.63,1.863-1.505
		c0.186-0.508,0.339-1.029,0.562-1.519c0.084-0.183,0.325-0.292,0.495-0.437c0.097,0.179,0.278,0.357,0.279,0.537
		c0.016,2.112,0.014,4.226,0,6.337c-0.006,0.77-0.067,1.538-0.079,2.308C610.524,275.793,610.345,276.03,609.783,275.805z"/>
	<path fill="#FFFFFF" d="M509.67,253.947c0.329-0.069,0.658-0.197,0.987-0.199c6.366-0.015,12.731-0.016,19.099-0.018
		c1.79,0,3.581,0,5.494,0c-0.125,1.197-0.229,2.487-0.402,3.77c-0.101,0.757-0.271,1.511-0.484,2.246
		c-0.06,0.201-0.38,0.328-0.581,0.489c-0.115-0.229-0.305-0.448-0.33-0.687c-0.039-0.364,0.021-0.74,0.062-1.108
		c0.165-1.525-0.396-2.561-1.894-2.88c-1.717-0.365-3.488-0.672-5.235-0.668c-2.785,0.006-5.574,0.276-8.357,0.481
		c-0.215,0.016-0.555,0.385-0.58,0.616c-0.198,1.927-0.416,3.856-0.473,5.791c-0.068,2.396,0.026,4.794,0.018,7.191
		c-0.004,0.664,0.223,0.893,0.896,0.876c3.595-0.084,7.188-0.133,10.781-0.186c1.416-0.021,2.398-0.604,2.773-2.038
		c0.092-0.356,0.198-0.719,0.359-1.047c0.097-0.193,0.315-0.325,0.479-0.484c0.102,0.21,0.291,0.42,0.291,0.631
		c0.005,2.883-0.012,5.766-0.051,8.647c-0.002,0.174-0.247,0.346-0.379,0.519c-0.133-0.174-0.317-0.329-0.384-0.525
		c-0.095-0.293-0.111-0.614-0.152-0.925c-0.264-1.966-0.992-2.872-2.938-3.095c-3.629-0.415-7.277-0.449-10.924-0.12
		c-0.538,0.048-0.751,0.249-0.755,0.78c-0.042,4.391-0.299,8.787,0.328,13.158c0.041,0.288,0.418,0.675,0.713,0.76
		c3.148,0.912,6.377,0.811,9.593,0.578c1.324-0.096,2.65-0.367,3.938-0.704c2.307-0.604,3.693-2.257,4.617-4.362
		c0.139-0.313,0.234-0.65,0.413-0.938c0.079-0.13,0.336-0.248,0.473-0.214c0.112,0.028,0.264,0.315,0.229,0.444
		c-0.61,2.304-1.231,4.604-1.901,6.892c-0.058,0.196-0.465,0.416-0.709,0.414c-3.309-0.029-6.616-0.13-9.926-0.144
		c-3.507-0.017-7.013,0.029-10.52,0.071c-1.396,0.017-2.792,0.104-4.189,0.128c-0.234,0.004-0.474-0.171-0.71-0.263
		c0.191-0.188,0.352-0.479,0.576-0.548c2.325-0.682,2.728-0.325,3.023-3.639c0.598-6.688,0.643-13.386,0.344-20.09
		c-0.078-1.767-0.105-3.534-0.183-5.301c-0.112-2.662-0.438-3.065-2.973-3.821c-0.135-0.038-0.258-0.112-0.387-0.169
		C509.715,254.157,509.691,254.052,509.67,253.947z"/>
	<path fill="#FFFFFF" d="M480.104,253.699c0,2.605,0,5.063,0,7.74c-0.227-0.213-0.543-0.365-0.565-0.552
		c-0.407-3.396-3.083-5.62-6.61-6.187c-1.42-0.229-2.919-0.315-4.337-0.127c-2.917,0.39-4.302,1.424-5.245,5.14
		c-0.779,3.078,0.562,5.77,3.526,7.2c2.459,1.185,5.017,2.168,7.528,3.248c1.957,0.843,3.706,1.946,5.16,3.562
		c2.959,3.286,2.896,10.164-2.543,12.951c-2.84,1.457-5.882,1.778-8.98,1.471c-2.087-0.209-4.145-0.705-6.22-1.049
		c-0.504-0.084-1.097-0.313-1.292,0.526c-0.037,0.159-0.461,0.228-0.659,0.315c-0.519-3.006-1.013-5.883-1.521-8.823
		c0.351-0.245,0.571-0.132,0.728,0.399c0.224,0.763,0.521,1.504,0.805,2.249c0.488,1.287,1.369,2.215,2.594,2.831
		c2.571,1.294,5.255,2.196,8.154,2.318c1.922,0.082,3.736-0.353,5.415-1.292c0.893-0.499,1.433-1.317,1.702-2.273
		c0.919-3.271,0.243-7.066-3.405-8.953c-1.664-0.861-3.438-1.506-5.154-2.27c-1.586-0.706-3.209-1.35-4.728-2.181
		c-3.203-1.752-4.848-4.459-4.441-8.168c0.394-3.588,2.409-6.018,5.722-7.361c2.639-1.068,5.412-1.003,8.178-0.759
		c1.159,0.102,2.296,0.443,3.455,0.532c0.678,0.052,1.379-0.171,2.066-0.29C479.673,253.858,479.9,253.762,480.104,253.699z"/>
	<path fill="#FFFFFF" d="M485.292,287.875c-0.51-3.004-0.993-5.852-1.488-8.773c0.04-0.014,0.221-0.081,0.421-0.155
		c0.061,0.072,0.133,0.125,0.156,0.195c0.322,0.882,0.621,1.772,0.959,2.649c0.471,1.219,1.291,2.143,2.457,2.74
		c2.689,1.384,5.516,2.326,8.563,2.395c1.793,0.041,3.501-0.4,5.083-1.271c0.871-0.478,1.41-1.237,1.703-2.164
		c0.523-1.676,0.524-3.367,0.061-5.055c-0.555-2.015-1.934-3.352-3.738-4.224c-1.715-0.83-3.517-1.475-5.255-2.259
		c-1.659-0.747-3.355-1.448-4.911-2.38c-5.751-3.445-4.725-11.449,0.378-14.435c1.659-0.971,3.468-1.45,5.363-1.565
		c2.426-0.147,4.845-0.022,7.226,0.518c0.978,0.222,1.909,0.275,2.811-0.271c0.164-0.101,0.413-0.062,0.599-0.083
		c-0.073,1.753-0.17,3.421-0.204,5.09c-0.015,0.68,0.124,1.361,0.151,2.044c0.006,0.145-0.172,0.296-0.266,0.443
		c-0.119-0.125-0.293-0.232-0.347-0.382c-0.103-0.293-0.127-0.612-0.203-0.916c-0.606-2.43-2.258-3.927-4.489-4.796
		c-2.284-0.889-4.681-1.003-7.069-0.52c-2.501,0.505-4.337,2.875-4.595,5.631c-0.287,3.081,1.008,5.292,3.71,6.597
		c2.588,1.251,5.275,2.287,7.914,3.434c2.02,0.876,3.775,2.09,5.126,3.876c2.418,3.202,2.149,8.844-1.674,11.632
		c-2.263,1.648-4.843,2.222-7.556,2.348c-2.926,0.137-5.791-0.322-8.62-1.04c-0.657-0.166-1.354-0.46-1.679,0.539
		C485.836,287.848,485.4,287.85,485.292,287.875z"/>
	<path fill="#FFFFFF" d="M504.102,307.851c-0.246,0.088-0.487,0.229-0.739,0.25c-2.25,0.188-4.122-0.63-5.479-2.384
		c-1.006-1.3-1.826-2.746-2.67-4.162c-0.285-0.479-0.574-0.699-1.14-0.654c-0.675,0.054-1.355,0.013-2.062,0.013
		c0,1.88-0.054,3.666,0.046,5.442c0.021,0.353,0.58,0.757,0.979,0.985c0.356,0.208,0.835,0.21,1.26,0.303
		c-0.009,0.075-0.017,0.148-0.024,0.225c-2.153,0-4.309,0-6.463,0c-0.017-0.068-0.033-0.135-0.051-0.203
		c0.232-0.071,0.463-0.155,0.7-0.21c0.804-0.189,1.348-0.618,1.366-1.507c0.055-2.595,0.12-5.187,0.141-7.779
		c0.014-1.453-0.043-2.907-0.086-4.36c-0.025-0.889-0.422-1.453-1.385-1.506c-0.17-0.01-0.332-0.133-0.48-0.365
		c0.775-0.054,1.551-0.14,2.328-0.153c1.795-0.031,3.594-0.091,5.387-0.024c2.363,0.086,3.882,1.281,4.34,3.271
		c0.472,2.049-0.448,3.891-2.506,5.015c-0.17,0.094-0.33,0.206-0.614,0.385C498.801,303.363,499.914,306.916,504.102,307.851z
		 M491.945,296.576c-0.008,0-0.017,0-0.024,0c0,0.598,0.005,1.195-0.001,1.794c-0.016,1.931,0.086,2.028,2.033,1.946
		c0.115-0.004,0.229-0.008,0.342-0.02c1.984-0.219,3.23-1.079,3.453-2.723c0.138-1.03-0.029-2.146-0.273-3.172
		c-0.235-0.996-1.053-1.631-2.049-1.866c-0.68-0.16-1.401-0.181-2.106-0.187c-1.01-0.007-1.332,0.312-1.366,1.32
		C491.92,294.639,491.945,295.607,491.945,296.576z"/>
	<path fill="#FFFFFF" d="M622.979,307.703c0.408-0.128,0.707-0.234,1.015-0.317c0.676-0.184,1.104-0.586,1.148-1.31
		c0.063-1.051,0.144-2.104,0.148-3.154c0.016-2.74-0.001-5.479-0.016-8.219c0-0.367-0.062-0.737-0.092-1.105
		c-0.06-0.762-0.435-1.205-1.226-1.272c-0.214-0.019-0.421-0.121-0.632-0.38c0.765-0.055,1.527-0.143,2.294-0.158
		c1.739-0.038,3.48-0.109,5.217-0.038c2.611,0.106,4.142,1.267,4.583,3.308c0.454,2.11-0.482,3.865-2.706,5.077
		c-0.097,0.054-0.186,0.123-0.412,0.276c1.811,2.975,2.961,6.501,7.139,7.421c-0.234,0.092-0.465,0.247-0.706,0.268
		c-2.176,0.192-4.035-0.536-5.374-2.229c-1.056-1.331-1.922-2.819-2.792-4.286c-0.309-0.52-0.614-0.727-1.2-0.682
		c-0.65,0.051-1.308,0.013-2.124,0.013c0,0.556-0.002,1.052,0,1.551c0.003,0.97-0.002,1.94,0.013,2.91
		c0.024,1.63,0.297,1.931,1.89,2.146c0.155,0.021,0.307,0.074,0.496,0.124C629.174,308.062,623.826,308.129,622.979,307.703z
		 M627.271,296.613c-0.006,0-0.013,0-0.019,0c0,0.541,0,1.082,0,1.623c-0.001,2.08,0.146,2.236,2.24,2.063
		c1.479-0.123,2.87-0.548,3.413-2.11c0.564-1.629,0.527-3.275-0.626-4.68c-0.356-0.434-0.931-0.773-1.473-0.949
		c-0.604-0.197-1.283-0.207-1.931-0.213c-1.299-0.017-1.587,0.293-1.604,1.615C627.264,294.848,627.271,295.73,627.271,296.613z"/>
	<path fill="#FFFFFF" d="M561.722,307.862c-2.151,0-4.305,0-6.479,0c0.033-0.166,0.035-0.219,0.044-0.22
		c1.615-0.229,2.099-1.234,2.074-2.762c-0.054-3.335-0.01-6.67-0.01-10.006c0-0.227-0.044-0.453-0.051-0.682
		c-0.039-1.441-0.127-1.553-1.502-1.924c-0.104-0.029-0.2-0.088-0.309-0.316c0.753-0.061,1.506-0.157,2.26-0.172
		c1.768-0.036,3.537-0.096,5.303-0.028c2.382,0.089,4.033,1.3,4.403,3.086c0.488,2.354-0.344,4.04-2.604,5.272
		c-0.099,0.055-0.192,0.119-0.396,0.246c0.698,1.644,1.626,3.15,2.709,4.572c1.117,1.468,2.439,2.604,4.452,2.664
		c-0.013,0.09-0.025,0.178-0.036,0.268c-0.264,0.082-0.522,0.216-0.791,0.237c-2.104,0.177-3.937-0.501-5.247-2.131
		c-1.082-1.345-1.966-2.854-2.863-4.338c-0.322-0.532-0.634-0.756-1.265-0.731c-2.183,0.08-2.193,0.057-2.146,2.256
		c0.021,0.883,0.085,1.764,0.138,2.646c0.071,1.195,0.321,1.475,1.496,1.684c0.285,0.05,0.573,0.088,0.86,0.131
		C561.75,307.697,561.735,307.78,561.722,307.862z M561.293,292.336c-1.438,0-1.839,0.2-1.866,1.059
		c-0.062,2.049-0.089,4.1-0.105,6.148c-0.001,0.191,0.099,0.479,0.244,0.564c1.312,0.771,4.46-0.096,5.22-1.467
		c0.836-1.514,0.758-3.093-0.024-4.584C564.043,292.689,562.758,292.288,561.293,292.336z"/>
	<path fill="#FFFFFF" d="M618.988,297.115c0,0.385,0.001,0.768,0,1.152c-0.004,1.053,0,2.104-0.021,3.157
		c-0.005,0.222-0.099,0.441-0.151,0.663c-0.126-0.176-0.325-0.337-0.362-0.529c-0.171-0.904-0.685-1.455-1.598-1.513
		c-1.423-0.088-2.848-0.128-4.271-0.137c-0.181-0.001-0.524,0.306-0.524,0.47c0.001,1.938,0.056,3.876,0.092,5.813
		c0.011,0.573,0.368,0.812,0.87,0.866c1.797,0.19,3.59,0.209,5.334-0.34c1.041-0.33,1.559-1.183,1.968-2.126
		c0.114-0.264,0.305-0.493,0.459-0.737c0.111,0.045,0.224,0.09,0.335,0.136c-0.205,0.977-0.393,1.956-0.622,2.926
		c-0.293,1.229-0.306,1.133-1.605,1.12c-3.393-0.038-6.786,0.018-10.181,0.028c-0.285,0.002-0.57-0.049-0.855-0.074
		c-0.011-0.089-0.021-0.179-0.033-0.268c0.202-0.067,0.4-0.17,0.608-0.2c1.104-0.157,1.367-0.387,1.55-1.473
		c0.058-0.336,0.067-0.682,0.068-1.023c0.003-3.538,0.013-7.079-0.006-10.619c-0.008-1.662-0.033-1.66-1.617-2.098
		c-0.132-0.035-0.254-0.106-0.38-0.16c0.049-0.09,0.098-0.178,0.146-0.267c4.033,0,8.065,0,12.202,0
		c-0.059,1.107-0.112,2.257-0.19,3.405c-0.007,0.102-0.158,0.189-0.243,0.285c-0.107-0.104-0.266-0.19-0.309-0.315
		c-0.071-0.212-0.063-0.448-0.104-0.675c-0.222-1.287-0.637-1.775-1.935-1.855c-1.589-0.096-3.188-0.032-4.781-0.039
		c-0.545,0-0.78,0.334-0.784,0.815c-0.02,1.685-0.031,3.37,0.01,5.054c0.006,0.191,0.354,0.531,0.547,0.537
		c1.397,0.038,2.8,0.055,4.195-0.017c1.099-0.058,1.418-0.416,1.666-1.474c0.046-0.195,0.166-0.373,0.253-0.562
		C618.808,297.07,618.898,297.093,618.988,297.115z"/>
	<path fill="#FFFFFF" d="M515.471,297.102c0,1.647,0,3.295,0,4.942c-0.056,0.031-0.11,0.063-0.166,0.097
		c-0.106-0.188-0.283-0.363-0.313-0.562c-0.144-0.917-0.667-1.463-1.573-1.523c-1.42-0.099-2.845-0.138-4.27-0.143
		c-0.192-0.001-0.558,0.341-0.558,0.521c0.002,1.909,0.065,3.819,0.104,5.729c0.012,0.562,0.328,0.838,0.842,0.895
		c1.797,0.197,3.591,0.212,5.336-0.323c1.036-0.318,1.588-1.148,1.986-2.105c0.113-0.273,0.311-0.512,0.469-0.768
		c0.102,0.043,0.203,0.082,0.305,0.125c-0.132,0.728-0.238,1.461-0.399,2.184c-0.419,1.861-0.429,1.833-2.298,1.839
		c-3.308,0.008-6.614,0.058-9.923,0.076c-0.215,0.001-0.429-0.101-0.645-0.154c0.002-0.089,0.004-0.175,0.006-0.262
		c0.276-0.055,0.551-0.119,0.828-0.165c0.683-0.113,1.177-0.42,1.257-1.175c0.041-0.396,0.117-0.791,0.119-1.188
		c0.01-3.597,0.01-7.19,0.003-10.787c-0.003-1.602-0.031-1.625-1.583-2.033c-0.155-0.039-0.303-0.11-0.455-0.168
		c0.062-0.096,0.125-0.189,0.188-0.284c4.041,0,8.081,0,12.219,0c-0.068,1.153-0.131,2.308-0.217,3.461
		c-0.008,0.088-0.185,0.231-0.275,0.229c-0.095-0.005-0.234-0.146-0.263-0.252c-0.059-0.218-0.042-0.453-0.078-0.678
		c-0.206-1.285-0.639-1.812-1.911-1.893c-1.615-0.104-3.242-0.034-4.864-0.043c-0.576-0.002-0.745,0.406-0.753,0.85
		c-0.029,1.684-0.037,3.366,0.004,5.05c0.004,0.183,0.371,0.502,0.576,0.509c1.369,0.037,2.74,0.047,4.108-0.013
		c1.126-0.049,1.453-0.388,1.744-1.496c0.046-0.178,0.148-0.341,0.226-0.512C515.32,297.088,515.396,297.094,515.471,297.102z"/>
	<path fill="#FFFFFF" d="M430.403,291.831c-0.127,1.265-0.25,2.489-0.374,3.712c-0.083,0.025-0.166,0.055-0.249,0.08
		c-0.095-0.229-0.248-0.454-0.271-0.689c-0.153-1.627-0.677-2.182-2.304-2.236c-1.42-0.051-2.845-0.002-4.267-0.02
		c-0.638-0.007-0.953,0.266-0.958,0.906c-0.013,1.654-0.03,3.309-0.048,4.962c-0.004,0.437,0.215,0.593,0.643,0.586
		c0.999-0.019,1.998-0.004,2.997-0.006c2.224-0.006,2.312-0.063,3.037-2.007c0.335,0.384,0.411,4.154,0.056,5.061
		c-0.118-0.223-0.248-0.369-0.271-0.531c-0.16-1.08-0.828-1.596-1.863-1.646c-1.337-0.064-2.677-0.104-4.016-0.092
		c-0.194,0.003-0.554,0.344-0.555,0.527c-0.006,1.908,0.013,3.819,0.117,5.727c0.017,0.301,0.461,0.782,0.765,0.833
		c1.87,0.311,3.748,0.292,5.563-0.335c0.925-0.319,1.423-1.092,1.793-1.957c0.123-0.286,0.297-0.551,0.448-0.823
		c0.101,0.028,0.2,0.056,0.303,0.084c-0.061,0.474-0.095,0.95-0.183,1.418c-0.515,2.747-0.517,2.669-3.266,2.616
		c-2.991-0.056-5.985,0.056-8.978,0.077c-0.221,0.001-0.439-0.136-0.659-0.208c0.184-0.117,0.354-0.307,0.552-0.339
		c1.118-0.19,1.481-0.546,1.486-1.705c0.017-4.019,0.014-8.037,0.004-12.056c-0.002-1.111-0.203-1.301-1.338-1.436
		c-0.138-0.018-0.272-0.057-0.403-0.102c-0.043-0.017-0.067-0.086-0.191-0.256c0.25-0.08,0.454-0.199,0.657-0.201
		c3.761-0.01,7.522-0.008,11.284-0.004C430.052,291.771,430.188,291.805,430.403,291.831z"/>
	<path fill="#FFFFFF" d="M531.976,307.883c-2.203,0-4.406,0-6.609,0c-0.021-0.048-0.042-0.096-0.062-0.143
		c0.177-0.074,0.345-0.174,0.525-0.216c1.084-0.257,1.602-0.716,1.627-1.79c0.092-4.047,0.125-8.098,0.172-12.146
		c0.008-0.741-0.374-1.155-1.125-1.249c-0.309-0.039-0.607-0.156-0.912-0.236c0.006-0.069,0.014-0.139,0.021-0.209
		c0.17-0.041,0.34-0.119,0.512-0.119c2.366-0.015,4.734-0.065,7.102-0.008c2.269,0.056,4.155,1.422,4.75,3.297
		c0.688,2.174-0.206,4.334-2.29,5.524c-1.595,0.908-3.334,1.13-5.123,1.011c-0.822-0.057-1.138,0.194-1.064,1.034
		c0.094,1.077,0.053,2.167,0.173,3.242c0.141,1.257,0.454,1.493,1.767,1.634c0.183,0.021,0.362,0.072,0.544,0.11
		C531.977,307.708,531.976,307.795,531.976,307.883z M535.921,296.689c-0.042-0.396-0.041-0.801-0.137-1.184
		c-0.58-2.343-2.59-3.523-5.284-3.182c-0.633,0.078-0.896,0.335-0.898,0.978c-0.011,1.853-0.078,3.702-0.093,5.554
		c-0.018,2.396-0.005,2.396,2.401,2.15C534.309,300.762,535.886,299.052,535.921,296.689z"/>
	<path fill="#FFFFFF" d="M542.916,307.865c-1.645,0-3.288,0-4.894,0c2.589-2.735,3.399-6.397,5.012-9.633
		c0.937-1.881,1.66-3.868,2.429-5.828c0.237-0.607,0.715-0.656,1.163-0.603c0.241,0.028,0.532,0.396,0.638,0.671
		c1.764,4.598,3.478,9.213,5.27,13.796c0.202,0.518,0.812,0.869,1.227,1.305c0.086,0.091,0.138,0.218,0.314,0.508
		c-0.443,0-0.735,0.001-1.025,0c-1.309-0.003-2.618,0.007-3.926-0.02c-0.241-0.006-0.479-0.146-0.718-0.228
		c0.194-0.104,0.381-0.271,0.587-0.305c1.072-0.176,1.361-0.539,1.056-1.566c-0.333-1.118-0.713-2.227-1.149-3.305
		c-0.102-0.251-0.512-0.526-0.785-0.534c-1.711-0.049-3.424-0.044-5.135-0.004c-0.269,0.008-0.677,0.228-0.768,0.45
		c-0.428,1.052-0.812,2.125-1.124,3.217c-0.289,1.012,0.056,1.487,1.082,1.693c0.256,0.051,0.518,0.085,0.775,0.127
		C542.935,307.695,542.926,307.78,542.916,307.865z M548.491,301.302c-0.923-2.452-1.783-4.739-2.646-7.028
		c-0.088,0-0.176-0.002-0.264-0.002c-0.954,2.307-1.907,4.61-2.908,7.03C544.688,301.302,546.495,301.302,548.491,301.302z"/>
	<path fill="#FFFFFF" d="M570.879,295.365c-0.136-1.297,0.359-2.491,0.58-3.651c5.121,0.542,10.113,0.274,15.199,0.101
		c-0.142,1.205-0.411,2.422-0.912,3.571c-0.104-0.011-0.205-0.021-0.308-0.032c-0.027-0.258-0.069-0.512-0.079-0.769
		c-0.042-1.017-0.431-1.481-1.438-1.549c-1.166-0.075-2.336-0.069-3.503-0.109c-0.52-0.017-0.78,0.163-0.778,0.739
		c0.014,3.909-0.024,7.82,0.018,11.729c0.016,1.436,0.448,1.828,1.866,2.081c0.267,0.048,0.536,0.079,0.865,0.128
		c-0.468,0.45-6.906,0.484-7.519,0.046c0.472-0.106,0.865-0.219,1.269-0.282c0.871-0.14,1.329-0.694,1.347-1.518
		c0.085-4.105,0.139-8.214,0.16-12.32c0.002-0.213-0.385-0.611-0.584-0.609c-1.25,0.02-2.505,0.094-3.748,0.217
		c-0.947,0.094-1.538,0.663-1.807,1.586c-0.073,0.26-0.254,0.488-0.386,0.731C571.04,295.424,570.959,295.396,570.879,295.365z"/>
	<path fill="#FFFFFF" d="M463.674,307.871c-2.47,0-4.938,0-7.408,0c-0.009-0.079-0.017-0.158-0.024-0.237
		c0.451-0.097,0.9-0.191,1.353-0.288c0.697-0.145,1.102-0.573,1.191-1.272c0.073-0.563,0.145-1.132,0.155-1.698
		c0.052-2.88,0.09-5.76,0.12-8.641c0.005-0.537-0.041-1.08-0.086-1.618c-0.101-1.229-0.105-1.241-1.377-1.189
		c-0.938,0.039-1.88,0.071-2.812,0.179c-0.99,0.111-1.683,0.633-1.944,1.65c-0.062,0.246-0.229,0.467-0.379,0.758
		c-0.415-0.602-0.109-2.701,0.425-3.787c5.045,0.528,10.06,0.27,15.151,0.078c-0.265,1.197-0.366,2.476-1.028,3.569
		c-0.081-0.019-0.162-0.036-0.242-0.054c-0.034-0.102-0.093-0.2-0.101-0.305c-0.135-1.774-0.216-1.9-1.999-2.047
		c-1.02-0.085-2.053-0.059-3.078-0.01c-0.207,0.01-0.569,0.346-0.571,0.531c-0.019,4.047-0.052,8.097,0.052,12.143
		c0.036,1.406,0.43,1.626,1.861,1.861c0.263,0.043,0.52,0.119,0.779,0.178C463.698,307.738,463.686,307.805,463.674,307.871z"/>
	<path fill="#FFFFFF" d="M417.152,291.902c-2.011,1.759-2.62,4.193-3.699,6.351c-1.082,2.164-2.039,4.39-3.03,6.599
		c-0.36,0.805-0.723,1.616-0.973,2.458c-0.178,0.604-0.604,0.785-1.07,0.738c-0.22-0.021-0.464-0.459-0.58-0.755
		c-1.75-4.447-3.454-8.912-5.24-13.346c-0.3-0.743-0.938-1.354-1.424-2.03c1.782,0,3.611,0,5.44,0
		c0.009,0.095,0.018,0.188,0.024,0.286c-0.244,0.047-0.486,0.111-0.733,0.143c-0.913,0.105-1.274,0.502-0.985,1.359
		c0.797,2.371,1.662,4.721,2.525,7.068c0.566,1.541,1.179,3.064,1.821,4.729c0.177-0.264,0.303-0.398,0.37-0.561
		c1.347-3.17,2.686-6.344,4.024-9.519c0.088-0.209,0.173-0.421,0.243-0.639c0.479-1.509,0.771-2.396-1.509-2.461
		c-0.167-0.005-0.33-0.14-0.47-0.421C413.588,291.902,415.289,291.902,417.152,291.902z"/>
	<g>
		<path fill="#FFFFFF" d="M322.672,280.975c5.326-2.925,8.384-7.337,9.004-13.432c0.417-4.092,0.409-8.156-0.822-12.107
			c-2.016-6.471-6.26-10.92-12.549-13.432c-0.359-0.143-0.693-0.348-1.038-0.523h-14.4V284.2c2.907-0.171,5.821-0.259,8.719-0.533
			C315.401,283.307,319.217,282.871,322.672,280.975z"/>
		<path fill="#FFFFFF" d="M334.067,241.48c5.343,3.858,8.879,8.899,10.049,15.463c1.898,10.656-2.67,19.885-12.356,24.788
			c-2.393,1.211-4.931,2.137-7.319,3.155c2.347,0.621,4.83,1.195,7.262,1.938c6.379,1.943,12.051,5.104,16.632,10.033
			c4.391,4.725,6.386,10.428,6.631,16.782c0.062,1.621-0.165,3.252-0.258,4.879h23.25V241.48H334.067z"/>
		<path fill="#FFFFFF" d="M340.414,305.596c-3.564-9.271-10.543-14.566-19.916-17.016c-5.169-1.352-10.447-1.174-15.721-0.881
			c-0.637,0.035-1.273,0.066-1.91,0.1v30.721h39.36C342.538,314.084,342.017,309.764,340.414,305.596z"/>
	</g>
</g>
</svg>
