<?xml version="1.0" encoding="utf-8"?>
<!-- Generator: Adobe Illustrator 16.0.0, SVG Export Plug-In . SVG Version: 6.00 Build 0)  -->
<!DOCTYPE svg PUBLIC "-//W3C//DTD SVG 1.1//EN" "http://www.w3.org/Graphics/SVG/1.1/DTD/svg11.dtd">
<svg version="1.1" id="Layer_1" xmlns="http://www.w3.org/2000/svg" xmlns:xlink="http://www.w3.org/1999/xlink" x="0px" y="0px"
	 width="833.833px" height="560.556px" viewBox="6638.48 0 833.833 560.556" enable-background="new 6638.48 0 833.833 560.556"
	 xml:space="preserve">
<g>
	<g>
		<path fill="#004697" stroke="#113665" stroke-width="7" stroke-miterlimit="10" d="M6776.074,481.259
			c-26.686-23.209-46.11-52.721-58.252-88.52c-12.153-35.797-18.225-73.436-18.225-112.924c0-38.179,6.936-75.828,20.827-112.927
			c13.882-37.099,34.599-67.579,62.158-91.447c27.55-23.858,60.419-35.798,98.606-35.798c39.479,0,72.459,11.716,98.932,35.148
			c26.462,23.43,45.887,53.157,58.254,89.168c12.365,36.021,18.549,73.549,18.549,112.601c0,38.188-6.733,75.724-20.176,112.601
			c-13.457,36.885-33.633,67.262-60.531,91.121c-26.91,23.867-59.454,35.799-97.631,35.799
			C6836.93,516.082,6802.759,504.476,6776.074,481.259z M6941.395,421.054c11.064-32.544,16.598-76.152,16.598-130.826
			c0-62.91-5.432-112.812-16.271-149.699c-10.852-36.875-31.467-55.324-61.833-55.324c-29.076,0-49.903,16.598-62.484,49.793
			c-12.59,33.193-18.874,76.914-18.874,131.148c0,59.016,5.635,107.72,16.923,146.12c11.277,38.402,33.62,57.603,67.038,57.603
			C6910.692,469.869,6930.33,453.597,6941.395,421.054z"/>
		<path fill="#004697" stroke="#113665" stroke-width="7" stroke-miterlimit="10" d="M7217.028,462.708
			c11.716-0.426,20.604-1.84,26.687-4.23c6.071-2.38,10.84-7.484,14.318-15.295c3.467-7.811,5.207-20.177,5.207-37.1v-18.225
			h-169.877v-61.182l223.248-287.033h39.703v289.637h63.784v58.578h-63.784v11.066c0,29.074-0.875,48.6-2.604,58.578
			c14.318-1.304,30.59-1.953,48.814-1.953v50.116h-185.497V462.708z M7263.891,184.138h-0.65L7153.895,327.33l109.346,0.649
			L7263.891,184.138z"/>
	</g>
	<g>
		<path opacity="0.05" fill="#FFFFFF" enable-background="new    " d="M7372.189,474.699
			c-106.183-32.332-214.537-57.419-316.968-84.531c103.388-44.186,213.224-84.251,316.925-136.507
			c-3.637-25.157-6.244-49.937-5.785-75.374c0.348-19.371,1.742-38.69,3.176-58.004c2.229-30.045,3.504-59.845,2.453-89.93
			c-3.637,0.529-7.989,1.034-13.689,1.673c-3.04,0.341-6.096,0.384-9.152,0.315c-6.151-0.137-12.281-0.423-18.418-0.164
			c-9.863,1.586-19.686,3.316-29.441,5.297c-6.521,9.518-13.73,18.609-21.119,27.342c-8.004,9.457-17.172,17.469-25.851,26.238
			c-5.655,5.715-10.81,11.885-15.802,18.184c-10.639,14.038-21.221,28.385-33.332,41.137c-8.99,9.466-19.033,16.95-29.496,24.895
			c-10.123,7.687-21.264,11.553-33.162,16.482c-2.834,0.762-5.669,1.354-8.504,1.799c-7.537,2.537-15.556,3.936-23.85,3.936
			c-21.938,0-41.914-9.608-55.961-24.766c-24.104,16.409-49.505,31.963-76.238,46.64c-91.245,50.112-188.25,76.848-287.533,93.639
			c-1.376,12.327-2.985,24.622-4.729,36.898c0.826,2.536,1.659,5.069,2.502,7.597c9.45,28.336,20.033,56.293,31.46,83.891
			c4.509,10.464,9.151,20.871,14.026,31.169c3.363,7.104,6.684,14.101,10.776,20.703c3.036,3.315,6.226,6.48,9.57,9.486
			c5.425,3.595,11.07,6.826,16.903,9.717c13.049,4.657,26.54,7.922,40.207,10.229c48.292,4.972,96.733,0.569,145.15-0.862
			c4.072-29.695,25.706-54.415,53.836-63.088c12.2-26.527,39.926-45.336,70.025-45.336c20.225,0,39.844,8.131,54.137,22.424
			c4.365,4.365,8.068,9.144,11.147,14.236c5.333,1.69,10.497,3.946,15.362,6.796c11.505,6.807,20.66,15.962,27.467,27.467
			c2.484,5.887,4.968,11.774,7.453,17.661c2.883,6.314,5.957,12.528,9.168,18.67c34.223-4.717,68.777-8.873,103.261-7.445
			c15.634,0.646,31.101,2.771,46.575,5.08c0.074,0.011,0.146,0.023,0.221,0.034c1.27-0.398,2.538-0.796,3.8-1.222
			c10.458-5.086,21.604-7.654,33.44-7.691c6.784,0.911,13.568,1.822,20.354,2.734c1.084,0.298,2.156,0.628,3.223,0.974
			c0.314-8.098,0.631-16.195,0.911-24.294C7401.941,483.968,7387.115,479.248,7372.189,474.699z"/>
	</g>
	<g>
		<path opacity="0.05" fill="#FFFFFF" enable-background="new    " d="M7411.65,429.957c0-15.777,4.984-30.564,13.431-42.858
			c-52.082-23.042-106.063-42.882-161.718-59.844c-78.643-23.946-158.895-42.526-234.758-62.606
			c77.191-32.992,159.238-62.874,236.59-102.039c37.662-19.066,72.915-40.167,105.715-63.116c1.32-23.038,1.878-46.004,1.07-69.138
			c-3.635,0.528-7.984,1.033-13.68,1.671c-3.04,0.341-6.096,0.384-9.152,0.315c-6.151-0.137-12.281-0.423-18.418-0.164
			c-9.863,1.586-19.686,3.316-29.441,5.297c-6.521,9.518-13.73,18.609-21.119,27.342c-8.004,9.457-17.172,17.469-25.851,26.238
			c-5.655,5.715-10.81,11.885-15.802,18.184c-10.639,14.038-21.221,28.385-33.332,41.137c-8.99,9.466-19.033,16.95-29.496,24.895
			c-10.123,7.687-21.264,11.553-33.162,16.482c-2.834,0.762-5.669,1.354-8.504,1.799c-7.537,2.537-15.556,3.936-23.85,3.936
			c-41.787,0-76.493-34.826-76.561-76.561c-0.006-3.148-0.043-6.295-0.094-9.441c-2.771-1.955-5.417-4.078-7.909-6.371
			c-17.177,11.6-35.243,22.611-54.218,33.027c-88.061,48.363-183.367,67.326-280.209,78.902c3.127,29.646,3.108,59.31-0.009,89.302
			c-1.513,14.562-3.405,29.068-5.462,43.553c0.187,0.573,0.378,1.144,0.565,1.716c72.062,4.213,143.772,13.828,214.843,32.405
			c46.952,12.272,92.041,26.762,135.155,43.591c12.666-8.91,27.943-14.207,43.894-14.207c20.225,0,39.844,8.131,54.137,22.424
			c4.365,4.365,8.068,9.144,11.147,14.236c5.333,1.69,10.497,3.946,15.362,6.796c11.505,6.807,20.66,15.962,27.467,27.467
			c2.484,5.887,4.968,11.774,7.453,17.661c0.959,2.101,1.956,4.182,2.953,6.262c5.768,3.585,11.486,7.228,17.152,10.932
			c30.641-4.058,61.51-7.244,92.323-5.969c15.634,0.646,31.101,2.771,46.575,5.08c0.074,0.011,0.146,0.023,0.221,0.034
			c1.27-0.398,2.538-0.796,3.8-1.222c10.458-5.086,21.604-7.654,33.44-7.691c6.784,0.911,13.568,1.822,20.354,2.734
			c1.086,0.299,2.16,0.629,3.229,0.975c0.701-18.069,1.406-36.14,1.71-54.222C7413.742,449.933,7411.65,440.154,7411.65,429.957z"/>
	</g>
	<g>
		<path fill="none" stroke="#113665" stroke-width="7" stroke-miterlimit="10" d="M6776.074,481.259
			c-26.686-23.209-46.11-52.721-58.252-88.52c-12.153-35.797-18.225-73.436-18.225-112.924c0-38.179,6.936-75.828,20.827-112.927
			c13.882-37.099,34.599-67.579,62.158-91.447c27.55-23.858,60.419-35.798,98.606-35.798c39.479,0,72.459,11.716,98.932,35.148
			c26.462,23.43,45.887,53.157,58.254,89.168c12.365,36.021,18.549,73.549,18.549,112.601c0,38.188-6.733,75.724-20.176,112.601
			c-13.457,36.885-33.633,67.262-60.531,91.121c-26.91,23.867-59.454,35.799-97.631,35.799
			C6836.93,516.082,6802.759,504.476,6776.074,481.259z M6941.395,421.054c11.064-32.544,16.598-76.152,16.598-130.826
			c0-62.91-5.432-112.812-16.271-149.699c-10.852-36.875-31.467-55.324-61.833-55.324c-29.076,0-49.903,16.598-62.484,49.793
			c-12.59,33.193-18.874,76.914-18.874,131.148c0,59.016,5.635,107.72,16.923,146.12c11.277,38.402,33.62,57.603,67.038,57.603
			C6910.692,469.869,6930.33,453.597,6941.395,421.054z"/>
		<path fill="none" stroke="#113665" stroke-width="7" stroke-miterlimit="10" d="M7217.028,462.708
			c11.716-0.426,20.604-1.84,26.687-4.23c6.071-2.38,10.84-7.484,14.318-15.295c3.467-7.811,5.207-20.177,5.207-37.1v-18.225
			h-169.877v-61.182l223.248-287.033h39.703v289.637h63.784v58.578h-63.784v11.066c0,29.074-0.875,48.6-2.604,58.578
			c14.318-1.304,30.59-1.953,48.814-1.953v50.116h-185.497V462.708z M7263.891,184.138h-0.65L7153.895,327.33l109.346,0.649
			L7263.891,184.138z"/>
	</g>
</g>
</svg>
