<?xml version="1.0" encoding="utf-8"?>
<!-- Generator: Adobe Illustrator 16.0.0, SVG Export Plug-In . SVG Version: 6.00 Build 0)  -->
<!DOCTYPE svg PUBLIC "-//W3C//DTD SVG 1.1//EN" "http://www.w3.org/Graphics/SVG/1.1/DTD/svg11.dtd">
<svg version="1.1" id="Layer_1" xmlns="http://www.w3.org/2000/svg" xmlns:xlink="http://www.w3.org/1999/xlink" x="0px" y="0px"
	 width="833.833px" height="560.555px" viewBox="0 0 833.833 560.555" enable-background="new 0 0 833.833 560.555"
	 xml:space="preserve">
<g>
	<g>
		<path fill="#0D3182" stroke="#113665" stroke-width="7" stroke-miterlimit="10" d="M137.595,481.258
			c-26.686-23.209-46.109-52.721-58.252-88.52c-12.152-35.797-18.225-73.436-18.225-112.924c0-38.179,6.936-75.828,20.826-112.927
			c13.883-37.099,34.6-67.579,62.158-91.447c27.551-23.858,60.42-35.798,98.605-35.798c39.48,0,72.459,11.716,98.934,35.148
			c26.461,23.43,45.887,53.157,58.254,89.168c12.365,36.021,18.549,73.549,18.549,112.601c0,38.188-6.734,75.724-20.176,112.601
			c-13.457,36.885-33.633,67.262-60.531,91.121c-26.91,23.867-59.455,35.799-97.631,35.799
			C198.451,516.083,164.279,504.475,137.595,481.258z M302.916,421.053c11.064-32.543,16.598-76.15,16.598-130.825
			c0-62.91-5.432-112.812-16.27-149.699c-10.854-36.875-31.467-55.324-61.834-55.324c-29.076,0-49.902,16.598-62.484,49.793
			c-12.59,33.193-18.873,76.914-18.873,131.148c0,59.017,5.635,107.72,16.922,146.12c11.277,38.402,33.621,57.604,67.039,57.604
			C272.212,469.87,291.851,453.596,302.916,421.053z"/>
		<path fill="#0D3182" stroke="#113665" stroke-width="7" stroke-miterlimit="10" d="M578.548,462.708
			c11.717-0.426,20.604-1.84,26.688-4.23c6.07-2.379,10.84-7.482,14.318-15.295c3.467-7.811,5.207-20.176,5.207-37.1v-18.225
			H454.884v-61.182L678.132,39.643h39.703V329.28h63.783v58.578h-63.783v11.066c0,29.074-0.875,48.6-2.605,58.578
			c14.318-1.305,30.59-1.953,48.814-1.953v50.115H578.548V462.708L578.548,462.708z M625.412,184.138h-0.65L515.416,327.331
			l109.346,0.648L625.412,184.138z"/>
	</g>
	<g>
		<path opacity="0.05" fill="#FFFFFF" enable-background="new    " d="M733.71,474.7c-106.184-32.332-214.537-57.42-316.969-84.531
			c103.389-44.186,213.225-84.252,316.926-136.507c-3.639-25.157-6.244-49.937-5.785-75.374c0.348-19.371,1.742-38.69,3.176-58.004
			c2.229-30.045,3.504-59.845,2.453-89.93c-3.639,0.529-7.99,1.034-13.689,1.673c-3.041,0.341-6.096,0.384-9.152,0.315
			c-6.15-0.137-12.281-0.423-18.418-0.164c-9.863,1.586-19.686,3.316-29.441,5.297c-6.52,9.518-13.729,18.609-21.119,27.342
			c-8.004,9.457-17.172,17.469-25.85,26.238c-5.656,5.715-10.811,11.885-15.803,18.184c-10.639,14.038-21.221,28.385-33.332,41.137
			c-8.99,9.466-19.033,16.95-29.496,24.895c-10.123,7.687-21.264,11.553-33.162,16.482c-2.834,0.762-5.668,1.354-8.504,1.799
			c-7.537,2.537-15.557,3.936-23.85,3.936c-21.938,0-41.914-9.608-55.961-24.766c-24.104,16.409-49.506,31.963-76.238,46.64
			c-91.244,50.112-188.25,76.849-287.533,93.64c-1.375,12.326-2.984,24.621-4.729,36.898c0.826,2.535,1.658,5.068,2.502,7.596
			c9.449,28.336,20.033,56.293,31.459,83.891c4.51,10.465,9.152,20.871,14.027,31.17c3.361,7.104,6.684,14.102,10.775,20.703
			c3.035,3.314,6.227,6.48,9.57,9.486c5.424,3.594,11.068,6.826,16.902,9.717c13.049,4.656,26.539,7.922,40.207,10.229
			c48.291,4.973,96.732,0.568,145.15-0.861c4.07-29.695,25.705-54.416,53.836-63.088c12.199-26.527,39.926-45.336,70.023-45.336
			c20.227,0,39.846,8.131,54.139,22.424c4.365,4.365,8.066,9.143,11.146,14.236c5.332,1.689,10.496,3.945,15.361,6.795
			c11.506,6.807,20.66,15.963,27.467,27.467c2.484,5.887,4.969,11.773,7.453,17.662c2.883,6.312,5.957,12.527,9.168,18.67
			c34.223-4.717,68.777-8.873,103.262-7.445c15.633,0.646,31.102,2.771,46.574,5.08c0.074,0.01,0.146,0.023,0.223,0.033
			c1.27-0.398,2.537-0.795,3.799-1.221c10.459-5.086,21.604-7.654,33.439-7.691c6.785,0.91,13.568,1.822,20.355,2.734
			c1.084,0.297,2.154,0.627,3.223,0.973c0.314-8.098,0.631-16.195,0.91-24.293C763.462,483.967,748.636,479.249,733.71,474.7z"/>
	</g>
	<g>
		<path opacity="0.05" fill="#FFFFFF" enable-background="new    " d="M773.171,429.958c0-15.777,4.982-30.564,13.43-42.859
			c-52.082-23.041-106.062-42.881-161.717-59.844c-78.643-23.945-158.895-42.525-234.758-62.605
			c77.191-32.992,159.238-62.874,236.59-102.039c37.662-19.066,72.914-40.167,105.715-63.116c1.32-23.038,1.877-46.004,1.07-69.138
			c-3.635,0.528-7.984,1.033-13.682,1.671c-3.039,0.341-6.096,0.384-9.15,0.315c-6.152-0.137-12.281-0.423-18.418-0.164
			c-9.863,1.586-19.688,3.316-29.441,5.297c-6.521,9.518-13.73,18.609-21.119,27.342c-8.004,9.457-17.172,17.469-25.852,26.238
			c-5.654,5.715-10.811,11.885-15.801,18.184c-10.641,14.038-21.223,28.385-33.332,41.137c-8.99,9.466-19.033,16.95-29.496,24.895
			c-10.123,7.687-21.266,11.553-33.162,16.482c-2.834,0.762-5.67,1.354-8.504,1.799c-7.537,2.537-15.557,3.936-23.852,3.936
			c-41.787,0-76.492-34.826-76.561-76.561c-0.006-3.148-0.043-6.295-0.094-9.441c-2.771-1.955-5.418-4.078-7.91-6.371
			c-17.176,11.6-35.242,22.611-54.217,33.027c-88.061,48.363-183.367,67.326-280.209,78.902c3.127,29.646,3.107,59.31-0.01,89.302
			c-1.512,14.562-3.404,29.068-5.461,43.553c0.188,0.572,0.377,1.145,0.564,1.717c72.062,4.213,143.771,13.828,214.844,32.404
			c46.951,12.271,92.041,26.762,135.154,43.592c12.666-8.91,27.943-14.207,43.895-14.207c20.225,0,39.844,8.131,54.137,22.424
			c4.365,4.365,8.068,9.143,11.146,14.236c5.334,1.689,10.498,3.945,15.361,6.795c11.506,6.807,20.66,15.963,27.467,27.467
			c2.484,5.887,4.969,11.773,7.453,17.662c0.959,2.1,1.957,4.182,2.953,6.262c5.77,3.584,11.486,7.229,17.152,10.932
			c30.641-4.059,61.51-7.244,92.322-5.969c15.635,0.646,31.102,2.771,46.576,5.08c0.074,0.01,0.146,0.023,0.221,0.033
			c1.27-0.398,2.539-0.795,3.801-1.221c10.457-5.086,21.604-7.654,33.439-7.691c6.783,0.91,13.568,1.822,20.354,2.734
			c1.086,0.299,2.16,0.629,3.229,0.975c0.701-18.07,1.406-36.141,1.711-54.223C775.263,449.932,773.171,440.155,773.171,429.958z"/>
	</g>
	<g>
		<path fill="none" stroke="#113665" stroke-width="7" stroke-miterlimit="10" d="M137.595,481.258
			c-26.686-23.209-46.109-52.721-58.252-88.52c-12.152-35.797-18.225-73.436-18.225-112.924c0-38.179,6.936-75.828,20.826-112.927
			c13.883-37.099,34.6-67.579,62.158-91.447c27.551-23.858,60.42-35.798,98.605-35.798c39.48,0,72.459,11.716,98.934,35.148
			c26.461,23.43,45.887,53.157,58.254,89.168c12.365,36.021,18.549,73.549,18.549,112.601c0,38.188-6.734,75.724-20.176,112.601
			c-13.457,36.885-33.633,67.262-60.531,91.121c-26.91,23.867-59.455,35.799-97.631,35.799
			C198.451,516.083,164.279,504.475,137.595,481.258z M302.916,421.053c11.064-32.543,16.598-76.15,16.598-130.825
			c0-62.91-5.432-112.812-16.27-149.699c-10.854-36.875-31.467-55.324-61.834-55.324c-29.076,0-49.902,16.598-62.484,49.793
			c-12.59,33.193-18.873,76.914-18.873,131.148c0,59.017,5.635,107.72,16.922,146.12c11.277,38.402,33.621,57.604,67.039,57.604
			C272.212,469.87,291.851,453.596,302.916,421.053z"/>
		<path fill="none" stroke="#113665" stroke-width="7" stroke-miterlimit="10" d="M578.548,462.708
			c11.717-0.426,20.604-1.84,26.688-4.23c6.07-2.379,10.84-7.482,14.318-15.295c3.467-7.811,5.207-20.176,5.207-37.1v-18.225
			H454.884v-61.182L678.132,39.643h39.703V329.28h63.783v58.578h-63.783v11.066c0,29.074-0.875,48.6-2.605,58.578
			c14.318-1.305,30.59-1.953,48.814-1.953v50.115H578.548V462.708L578.548,462.708z M625.412,184.138h-0.65L515.416,327.331
			l109.346,0.648L625.412,184.138z"/>
	</g>
</g>
</svg>
