<?xml version="1.0" encoding="utf-8"?>
<!-- Generator: Adobe Illustrator 16.0.0, SVG Export Plug-In . SVG Version: 6.00 Build 0)  -->
<!DOCTYPE svg PUBLIC "-//W3C//DTD SVG 1.1//EN" "http://www.w3.org/Graphics/SVG/1.1/DTD/svg11.dtd">
<svg version="1.1" id="Layer_1" xmlns="http://www.w3.org/2000/svg" xmlns:xlink="http://www.w3.org/1999/xlink" x="0px" y="0px"
	 width="833.833px" height="560.556px" viewBox="4076.981 0 833.833 560.556" enable-background="new 4076.981 0 833.833 560.556"
	 xml:space="preserve">
<g>
	<g>
		<path fill="#004697" stroke="#113665" stroke-width="7" stroke-miterlimit="10" d="M4415.581,74.978
			c-26.472-23.433-59.452-35.148-98.932-35.148c-38.188,0-71.057,11.939-98.606,35.798c-27.56,23.868-48.276,54.349-62.158,91.447
			c-13.891,37.099-20.827,74.748-20.827,112.927c0,39.488,6.071,77.127,18.225,112.924c12.142,35.799,31.566,65.311,58.253,88.52
			c26.684,23.217,60.854,34.822,102.512,34.822c38.176,0,70.72-11.932,97.63-35.799c26.899-23.859,47.075-54.236,60.531-91.121
			c13.443-36.877,20.176-74.413,20.176-112.601c0-39.052-6.183-76.579-18.549-112.601
			C4461.468,128.135,4442.043,98.407,4415.581,74.978z M4376.854,421.24c-11.064,32.543-30.702,48.814-58.903,48.814
			c-33.418,0-55.762-19.201-67.039-57.604c-11.288-38.4-16.923-87.104-16.923-146.12c0-54.234,6.284-97.955,18.875-131.148
			c12.58-33.195,33.407-49.793,62.483-49.793c30.367,0,50.981,18.449,61.833,55.324c10.84,36.887,16.271,86.789,16.271,149.699
			C4393.452,345.087,4387.919,388.695,4376.854,421.24z"/>
		<path fill="#004697" stroke="#113665" stroke-width="7" stroke-miterlimit="10" d="M4810.65,99.059
			c-25.607-39.479-65.961-59.229-121.062-59.229c-30.814,0-58.038,6.296-81.683,18.876c-23.656,12.591-42.094,30.265-55.324,53.046
			c-13.241,22.779-19.852,48.488-19.852,77.128c0,45.562,11.39,82.232,34.171,109.996c22.78,27.774,56.299,41.657,100.559,41.657
			c16.047,0,32.645-3.906,49.791-11.717c17.136-7.811,29.614-16.271,37.425-25.385c2.167,46.437-4.129,85.815-18.875,118.133
			c-14.756,32.33-37.536,48.49-68.341,48.49c-9.551,0-17.899-1.729-25.06-5.207c-7.158-3.467-12.264-7.811-15.294-13.018
			c2.603-3.467,4.769-8.023,6.509-13.668c1.729-5.635,2.603-10.414,2.603-14.32c0-10.84-3.254-20.391-9.764-28.637
			c-6.508-8.238-17.145-12.367-31.892-12.367c-12.59,0-22.893,4.883-30.916,14.645c-8.034,9.764-12.042,20.939-12.042,33.52
			c0,24.307,9.764,44.586,29.289,60.857c19.526,16.271,49.467,24.408,89.82,24.408c67.253,0,113.791-26.137,139.611-78.432
			c25.811-52.283,38.727-111.624,38.727-178.012C4849.051,192.134,4836.248,138.548,4810.65,99.059z M4727.99,276.095
			c-11.717,8.248-24.082,12.367-37.1,12.367c-23.432,0-39.276-11.817-47.514-35.473c-8.249-23.646-12.367-50.004-12.367-79.08
			c0-24.297,4.982-45.125,14.97-62.484c9.978-17.35,24.297-26.035,42.958-26.035c23.431,0,40.242,14.869,50.442,44.586
			c10.19,29.726,15.295,68.238,15.295,115.529C4748.594,257.657,4739.706,267.856,4727.99,276.095z"/>
	</g>
	<g>
		<path opacity="0.05" fill="#FFFFFF" enable-background="new    " d="M4553.687,363.126
			c-59.985-18.266-121.198-32.438-179.063-47.754c58.879-25.164,121.461-47.957,180.461-77.83
			c99.32-50.279,176.815-119.002,230.1-201.028c-20.279-7.331-41.043-13.245-62.306-16.911c-17.525-1.651-35.115-1.623-52.638,0.047
			c-33.325,5.691-65.489,16.615-96.766,29.372c-5.72,2.48-11.426,4.991-17.108,7.557c-11.941,6.926-24.821,10.409-38.642,10.452
			c-6.784-0.911-13.568-1.822-20.354-2.734c-0.068-0.019-0.135-0.042-0.203-0.062c-37.723,63.374-93.352,114.657-166.184,154.644
			c-67.337,36.982-140.229,51.427-214.287,60.25c1.27,3.007,2.538,6.014,3.807,9.02c3.659,22.739,5.711,44.922,5.732,67.872
			c0.009,8.845-0.021,17.693,0.296,26.525c50.584,3.576,100.925,10.828,150.852,23.879c61.103,15.971,118.079,36.85,170.469,63.145
			c12.855-9.76,28.781-15.605,45.87-15.605c36.504,0,67.722,26.643,74.975,61.248l203.875-5.234
			c6.604-11.535,16.154-21.762,27.543-27.559c2.279-1.16,4.502-2.406,6.703-3.689
			C4729.46,428.451,4644.475,390.794,4553.687,363.126z"/>
	</g>
	<g>
		<path opacity="0.05" fill="#FFFFFF" enable-background="new    " d="M4861.856,301.795c-1.716-12.767-3.431-25.532-5.146-38.298
			c3.704-35.926,7.051-72.316,4.618-108.433c-1.703-8.034-3.795-15.972-6.312-23.786c-7.66-14.463-16.764-28.107-26.435-41.351
			c-12.517-15.122-25.973-29.381-40.716-42.319c-7.103-4.842-14.381-9.424-21.821-13.752c-2.109-1.228-4.182-2.512-6.221-3.846
			l-129.599,0.078c-39.678,180.793-146.568,315.537-316.54,408.854c-35.252,19.361-71.531,34.557-108.549,46.695
			c11.347,10.027,20.996,21.752,28.941,35.182c0.6,1.42,1.198,2.84,1.797,4.258c8.941-1.201,17.883-2.402,26.824-3.604
			c28.917,3.018,58.085,1.994,87.062,0.455c28.646-1.521,57.296-3.676,85.997-3.811c13.979-0.064,27.983,0.264,41.911,1.541
			c13.747,1.26,27.631,2.648,41.422,4.605c42.867-17.834,85.694-36.535,127.32-57.611c83.861-42.453,157.237-93.768,219.488-152.53
			C4864.393,310.107,4863.037,306.003,4861.856,301.795z"/>
	</g>
	<g>
		<path fill="none" stroke="#113665" stroke-width="7" stroke-miterlimit="10" d="M4415.581,74.978
			c-26.472-23.433-59.452-35.148-98.932-35.148c-38.188,0-71.057,11.939-98.606,35.798c-27.56,23.868-48.276,54.349-62.158,91.447
			c-13.891,37.099-20.827,74.748-20.827,112.927c0,39.488,6.071,77.127,18.225,112.924c12.142,35.799,31.566,65.311,58.253,88.52
			c26.684,23.217,60.854,34.822,102.512,34.822c38.176,0,70.72-11.932,97.63-35.799c26.899-23.859,47.075-54.236,60.531-91.121
			c13.443-36.877,20.176-74.413,20.176-112.601c0-39.052-6.183-76.579-18.549-112.601
			C4461.468,128.135,4442.043,98.407,4415.581,74.978z M4376.854,421.24c-11.064,32.543-30.702,48.814-58.903,48.814
			c-33.418,0-55.762-19.201-67.039-57.604c-11.288-38.4-16.923-87.104-16.923-146.12c0-54.234,6.284-97.955,18.875-131.148
			c12.58-33.195,33.407-49.793,62.483-49.793c30.367,0,50.981,18.449,61.833,55.324c10.84,36.887,16.271,86.789,16.271,149.699
			C4393.452,345.087,4387.919,388.695,4376.854,421.24z"/>
		<path fill="none" stroke="#113665" stroke-width="7" stroke-miterlimit="10" d="M4810.65,99.059
			c-25.607-39.479-65.961-59.229-121.062-59.229c-30.814,0-58.038,6.296-81.683,18.876c-23.656,12.591-42.094,30.265-55.324,53.046
			c-13.241,22.779-19.852,48.488-19.852,77.128c0,45.562,11.39,82.232,34.171,109.996c22.78,27.774,56.299,41.657,100.559,41.657
			c16.047,0,32.645-3.906,49.791-11.717c17.136-7.811,29.614-16.271,37.425-25.385c2.167,46.437-4.129,85.815-18.875,118.133
			c-14.756,32.33-37.536,48.49-68.341,48.49c-9.551,0-17.899-1.729-25.06-5.207c-7.158-3.467-12.264-7.811-15.294-13.018
			c2.603-3.467,4.769-8.023,6.509-13.668c1.729-5.635,2.603-10.414,2.603-14.32c0-10.84-3.254-20.391-9.764-28.637
			c-6.508-8.238-17.145-12.367-31.892-12.367c-12.59,0-22.893,4.883-30.916,14.645c-8.034,9.764-12.042,20.939-12.042,33.52
			c0,24.307,9.764,44.586,29.289,60.857c19.526,16.271,49.467,24.408,89.82,24.408c67.253,0,113.791-26.137,139.611-78.432
			c25.811-52.283,38.727-111.624,38.727-178.012C4849.051,192.134,4836.248,138.548,4810.65,99.059z M4727.99,276.095
			c-11.717,8.248-24.082,12.367-37.1,12.367c-23.432,0-39.276-11.817-47.514-35.473c-8.249-23.646-12.367-50.004-12.367-79.08
			c0-24.297,4.982-45.125,14.97-62.484c9.978-17.35,24.297-26.035,42.958-26.035c23.431,0,40.242,14.869,50.442,44.586
			c10.19,29.726,15.295,68.238,15.295,115.529C4748.594,257.657,4739.706,267.856,4727.99,276.095z"/>
	</g>
</g>
</svg>
