<?xml version="1.0" encoding="utf-8"?>
<!-- Generator: Adobe Illustrator 16.0.0, SVG Export Plug-In . SVG Version: 6.00 Build 0)  -->
<!DOCTYPE svg PUBLIC "-//W3C//DTD SVG 1.1//EN" "http://www.w3.org/Graphics/SVG/1.1/DTD/svg11.dtd">
<svg version="1.1" id="Layer_1" xmlns="http://www.w3.org/2000/svg" xmlns:xlink="http://www.w3.org/1999/xlink" x="0px" y="0px"
	 width="833.833px" height="560.555px" viewBox="0 0 833.833 560.555" enable-background="new 0 0 833.833 560.555"
	 xml:space="preserve">
<g>
	<g>
		<path fill="#0D3182" stroke="#113665" stroke-width="7" stroke-miterlimit="10" d="M141.625,482.092
			c-26.688-23.209-46.111-52.721-58.252-88.52c-12.152-35.797-18.227-73.436-18.227-112.924c0-38.179,6.938-75.828,20.828-112.927
			c13.881-37.099,34.6-67.579,62.158-91.447c27.549-23.858,60.418-35.798,98.605-35.798c39.479,0,72.461,11.716,98.932,35.148
			c26.463,23.43,45.889,53.157,58.254,89.168c12.365,36.021,18.549,73.549,18.549,112.601c0,38.188-6.73,75.724-20.176,112.601
			c-13.455,36.885-33.631,67.262-60.529,91.121c-26.91,23.867-59.455,35.799-97.631,35.799
			C202.48,516.917,168.31,505.309,141.625,482.092z M306.945,421.887c11.064-32.543,16.598-76.15,16.598-130.825
			c0-62.91-5.432-112.812-16.271-149.699c-10.852-36.875-31.467-55.324-61.832-55.324c-29.076,0-49.902,16.598-62.482,49.793
			c-12.59,33.193-18.875,76.914-18.875,131.148c0,59.017,5.635,107.72,16.924,146.12c11.275,38.402,33.619,57.604,67.037,57.604
			C276.244,470.704,295.88,454.43,306.945,421.887z"/>
		<path fill="#0D3182" stroke="#113665" stroke-width="7" stroke-miterlimit="10" d="M520.748,502.92
			c-21.266-9.326-37.102-21.256-47.516-35.799c-10.412-14.531-15.619-29.828-15.619-45.887c0-13.881,4.229-25.596,12.691-35.146
			c8.461-9.539,19.414-14.316,32.869-14.316c13.881,0,24.184,4.342,30.916,13.018c6.721,8.684,10.088,18.225,10.088,28.637
			c0,4.779-0.875,9.877-2.604,15.297c-1.738,5.43-4.342,10.311-7.811,14.645c4.334,7.811,12.041,14.105,23.105,18.875
			c11.064,4.779,22.881,7.16,35.473,7.16c26.463,0,46.861-7.912,61.184-23.758c14.318-15.834,21.477-36.551,21.477-62.156
			c0-26.463-7.484-49.031-22.453-67.691c-14.973-18.65-39.602-27.764-73.873-27.336c-6.947,0-18.227,0.65-33.848,1.953V243.55
			c4.771,0.438,11.066,0.65,18.877,0.65c28.637,0,50.98-7.699,67.039-23.107c16.047-15.396,24.082-35.684,24.082-60.854
			c0-22.995-4.881-41.106-14.645-54.349c-9.764-13.23-25.061-19.852-45.889-19.852c-11.287,0-21.703,2.716-31.242,8.137
			c-9.547,5.431-16.27,11.828-20.176,19.201c3.469,4.342,6.07,9.549,7.812,15.62c1.729,6.081,2.602,11.501,2.602,16.272
			c0,9.549-3.58,18.874-10.736,27.986c-7.16,9.112-17.688,13.668-31.568,13.668c-13.455,0-23.979-4.443-31.564-13.342
			c-7.6-8.889-11.393-20.066-11.393-33.521c0-13.882,5.309-28.638,15.947-44.259c10.627-15.621,26.246-28.74,46.861-39.377
			c20.604-10.627,45.234-15.947,73.873-15.947c43.82,0,78.855,9.225,105.115,27.662c26.248,18.448,39.377,47.627,39.377,87.543
			c0,12.59-3.367,25.82-10.088,39.701c-6.732,13.894-17.361,26.586-31.893,38.077c-14.543,11.501-33.094,19.638-55.648,24.407v0.65
			c39.916,7.385,70.18,22.029,90.795,43.934c20.604,21.916,30.916,47.412,30.916,76.477c0,43.396-16.061,77.24-48.164,101.537
			c-32.117,24.305-74.199,36.449-126.27,36.449C568.037,516.917,542.001,512.247,520.748,502.92z"/>
	</g>
	<g>
		<path opacity="0.05" fill="#FFFFFF" enable-background="new    " d="M431.671,461.973c26.482,7.52,51.568,20.225,74.959,34.6
			c14.33,8.807,28.479,18.027,43.561,25.482c7.299,2.51,14.771,4.416,22.455,5.543c-4.957-0.666-9.916-1.332-14.875-1.998
			c0.021,0.01,0.041,0.02,0.062,0.027c12.932,1.771,25.836,3.701,38.758,5.533c12.832,1.605,25.762,2.98,38.725,3.916l60.83-1.562
			c6.701-14.076,17.588-25.906,30.975-33.785c-76.305-49.012-159.945-85.881-249.201-113.08
			c-59.984-18.268-121.197-32.439-179.062-47.756c58.879-25.162,121.461-47.956,180.461-77.829
			c98.531-49.881,175.58-117.915,228.822-199.082c-5.695-2.818-11.342-5.736-16.924-8.766c-10.5-5.697-20.939-11.516-31.713-16.669
			c-7.174-2.571-14.48-4.667-21.941-6.206c-25.561-1.928-51.633,0.493-77.068,3.72c-18.066,2.55-36.104,5.343-54.166,7.938
			c-0.059,0.368-0.125,0.733-0.18,1.103c-3.639,12.969-10.199,24.23-19.689,33.783c-5.164,3.99-10.33,7.981-15.494,11.972
			c-16.65,9.754-36.734,12.796-55.521,8.578c-37.529,58.938-91.137,107.036-160.225,144.966
			c-61.381,33.712-127.379,48.697-194.668,57.768c0.824,4.429,1.281,8.973,1.289,13.609c0.033,22.396,1.242,44.748,3.779,66.988
			c1.391,9,2.998,17.959,4.791,26.885c43.975,3.975,87.748,10.936,131.209,22.295c54.393,14.217,105.51,32.33,153.039,54.684
			C373.593,463.981,403.353,453.934,431.671,461.973z"/>
		<path opacity="0.05" fill="#FFFFFF" enable-background="new    " d="M552.294,524.866c1.809,0.24,3.613,0.498,5.422,0.746
			c-0.021-0.008-0.043-0.02-0.064-0.027C555.867,525.344,554.082,525.106,552.294,524.866z"/>
	</g>
	<g>
		<path opacity="0.05" fill="#FFFFFF" enable-background="new    " d="M754.416,247.25c-2.959-12.677-4.504-25.742-5.77-38.668
			c-1.443-14.758-1.209-29.624-0.271-44.408c1.393-22.001,4.471-43.951,5.795-65.973c-1.41-0.781-2.814-1.566-4.205-2.359
			c-12.877-7.338-25.322-15.426-37.504-23.861c-19.373-13.416-38.543-27.422-56.941-42.284
			c-49.438-1.597-98.949,5.776-148.189,9.605c-4.109,0.32-8.305,0.097-12.488-0.577c-3.084,14.277-9.973,27.747-20.385,38.159
			c-14.293,14.293-33.912,22.424-54.137,22.424c-20.957,0-38.943-8.484-54.137-22.424c-6.072-5.571-11.574-11.627-16.875-17.885
			c-2.115-0.392-4.23-0.861-6.348-1.43c-24.332-9.062-49.412-15.862-75.021-20.033c-16.607-1.818-33.648-2.76-50.293-1.563
			c-10.818,2.138-21.395,5.223-31.736,9.067c-13.779,6.434-27.055,13.833-40.164,21.545c57.309,6.161,114.373,15.943,171.076,30.766
			c139.033,36.34,263.691,89.785,371.477,163.087l69.492-1.784C756.468,254.891,755.312,251.087,754.416,247.25z"/>
	</g>
	<g>
		<path fill="none" stroke="#113665" stroke-width="7" stroke-miterlimit="10" d="M141.625,482.092
			c-26.688-23.209-46.111-52.721-58.252-88.52c-12.152-35.797-18.227-73.436-18.227-112.924c0-38.179,6.938-75.828,20.828-112.927
			c13.881-37.099,34.6-67.579,62.158-91.447c27.549-23.858,60.418-35.798,98.605-35.798c39.479,0,72.461,11.716,98.932,35.148
			c26.463,23.43,45.889,53.157,58.254,89.168c12.365,36.021,18.549,73.549,18.549,112.601c0,38.188-6.73,75.724-20.176,112.601
			c-13.455,36.885-33.631,67.262-60.529,91.121c-26.91,23.867-59.455,35.799-97.631,35.799
			C202.48,516.917,168.31,505.309,141.625,482.092z M306.945,421.887c11.064-32.543,16.598-76.15,16.598-130.825
			c0-62.91-5.432-112.812-16.271-149.699c-10.852-36.875-31.467-55.324-61.832-55.324c-29.076,0-49.902,16.598-62.482,49.793
			c-12.59,33.193-18.875,76.914-18.875,131.148c0,59.017,5.635,107.72,16.924,146.12c11.275,38.402,33.619,57.604,67.037,57.604
			C276.244,470.704,295.88,454.43,306.945,421.887z"/>
		<path fill="none" stroke="#113665" stroke-width="7" stroke-miterlimit="10" d="M520.748,502.92
			c-21.266-9.326-37.102-21.256-47.516-35.799c-10.412-14.531-15.619-29.828-15.619-45.887c0-13.881,4.229-25.596,12.691-35.146
			c8.461-9.539,19.414-14.316,32.869-14.316c13.881,0,24.184,4.342,30.916,13.018c6.721,8.684,10.088,18.225,10.088,28.637
			c0,4.779-0.875,9.877-2.604,15.297c-1.738,5.43-4.342,10.311-7.811,14.645c4.334,7.811,12.041,14.105,23.105,18.875
			c11.064,4.779,22.881,7.16,35.473,7.16c26.463,0,46.861-7.912,61.184-23.758c14.318-15.834,21.477-36.551,21.477-62.156
			c0-26.463-7.484-49.031-22.453-67.691c-14.973-18.65-39.602-27.764-73.873-27.336c-6.947,0-18.227,0.65-33.848,1.953V243.55
			c4.771,0.438,11.066,0.65,18.877,0.65c28.637,0,50.98-7.699,67.039-23.107c16.047-15.396,24.082-35.684,24.082-60.854
			c0-22.995-4.881-41.106-14.645-54.349c-9.764-13.23-25.061-19.852-45.889-19.852c-11.287,0-21.703,2.716-31.242,8.137
			c-9.547,5.431-16.27,11.828-20.176,19.201c3.469,4.342,6.07,9.549,7.812,15.62c1.729,6.081,2.602,11.501,2.602,16.272
			c0,9.549-3.58,18.874-10.736,27.986c-7.16,9.112-17.688,13.668-31.568,13.668c-13.455,0-23.979-4.443-31.564-13.342
			c-7.6-8.889-11.393-20.066-11.393-33.521c0-13.882,5.309-28.638,15.947-44.259c10.627-15.621,26.246-28.74,46.861-39.377
			c20.604-10.627,45.234-15.947,73.873-15.947c43.82,0,78.855,9.225,105.115,27.662c26.248,18.448,39.377,47.627,39.377,87.543
			c0,12.59-3.367,25.82-10.088,39.701c-6.732,13.894-17.361,26.586-31.893,38.077c-14.543,11.501-33.094,19.638-55.648,24.407v0.65
			c39.916,7.385,70.18,22.029,90.795,43.934c20.604,21.916,30.916,47.412,30.916,76.477c0,43.396-16.061,77.24-48.164,101.537
			c-32.117,24.305-74.199,36.449-126.27,36.449C568.037,516.917,542.001,512.247,520.748,502.92z"/>
	</g>
</g>
</svg>
