<?xml version="1.0" encoding="utf-8"?>
<!-- Generator: Adobe Illustrator 16.0.0, SVG Export Plug-In . SVG Version: 6.00 Build 0)  -->
<!DOCTYPE svg PUBLIC "-//W3C//DTD SVG 1.1//EN" "http://www.w3.org/Graphics/SVG/1.1/DTD/svg11.dtd">
<svg version="1.1" id="Layer_1" xmlns="http://www.w3.org/2000/svg" xmlns:xlink="http://www.w3.org/1999/xlink" x="0px" y="0px"
	 width="833.833px" height="560.555px" viewBox="0 0 833.833 560.555" enable-background="new 0 0 833.833 560.555"
	 xml:space="preserve">
<g>
	<path fill="#0D3182" stroke="#113665" stroke-width="7" stroke-miterlimit="10" d="M142.689,467.188
		c11.816-0.43,20.781-1.855,26.916-4.268c6.121-2.398,10.934-7.549,14.441-15.428c3.498-7.877,5.252-20.35,5.252-37.418V146.828
		l-71.557,42.671L94.109,150.11L244.441,40.477h39.389v362.377c0,28.014-0.656,47.705-1.969,59.084
		c14-1.314,30.412-1.971,49.234-1.971v50.547H142.687v-43.326H142.689z"/>
	<path fill="#0D3182" stroke="#113665" stroke-width="7" stroke-miterlimit="10" d="M452.058,485.899
		c-26.916-23.408-46.508-53.176-58.754-89.281c-12.258-36.107-18.381-74.068-18.381-113.898c0-38.506,6.994-76.48,21.006-113.899
		c14.002-37.418,34.896-68.161,62.695-92.235c27.785-24.063,60.938-36.106,99.455-36.106c39.818,0,73.084,11.817,99.783,35.451
		c26.689,23.632,46.283,53.616,58.756,89.937c12.475,36.332,18.709,74.183,18.709,113.571c0,38.516-6.791,76.377-20.35,113.57
		c-13.572,37.203-33.922,67.842-61.053,91.906c-27.143,24.072-59.967,36.105-98.473,36.105
		C513.439,521.02,478.974,509.317,452.058,485.899z M618.804,425.174c11.158-32.824,16.74-76.809,16.74-131.953
		c0-63.452-5.479-113.786-16.412-150.99c-10.945-37.193-31.736-55.8-62.365-55.8c-29.326,0-50.334,16.74-63.023,50.221
		c-12.697,33.479-19.037,77.577-19.037,132.28c0,59.523,5.686,108.646,17.07,147.377c11.373,38.734,33.91,58.1,67.615,58.1
		C587.837,474.411,607.644,457.999,618.804,425.174z"/>
</g>
<path opacity="0.05" fill="#FFFFFF" enable-background="new    " d="M481.212,363.125c-59.986-18.266-121.199-32.438-179.064-47.754
	c58.879-25.164,121.461-47.957,180.461-77.83c99.32-50.279,176.816-119.002,230.102-201.028
	c-20.279-7.331-41.043-13.245-62.307-16.911c-17.525-1.651-35.115-1.623-52.639,0.047C564.441,25.341,532.277,36.265,501,49.022
	c-5.721,2.48-11.426,4.991-17.107,7.557c-11.941,6.926-24.822,10.409-38.643,10.452c-6.785-0.911-13.568-1.822-20.354-2.734
	c-0.068-0.019-0.135-0.042-0.203-0.062c-37.725,63.374-93.354,114.657-166.186,154.644c-67.336,36.982-140.229,51.427-214.287,60.25
	c1.271,3.006,2.539,6.014,3.809,9.02c3.658,22.738,5.711,44.922,5.73,67.873c0.01,8.844-0.02,17.691,0.297,26.523
	c50.584,3.576,100.924,10.828,150.852,23.879c61.104,15.973,118.08,36.852,170.469,63.146c12.855-9.762,28.781-15.605,45.871-15.605
	c36.504,0,67.723,26.643,74.975,61.248l203.875-5.234c6.604-11.535,16.154-21.762,27.543-27.559c2.279-1.16,4.502-2.406,6.703-3.689
	C656.984,428.452,572,390.793,481.212,363.125z"/>
<path opacity="0.05" fill="#FFFFFF" enable-background="new    " d="M789.38,301.795c-1.715-12.768-3.432-25.532-5.146-38.298
	c3.705-35.926,7.051-72.316,4.619-108.433c-1.703-8.034-3.795-15.972-6.312-23.786c-7.66-14.463-16.764-28.107-26.436-41.351
	c-12.516-15.122-25.973-29.381-40.715-42.319c-7.104-4.842-14.381-9.424-21.82-13.752c-2.109-1.228-4.184-2.512-6.223-3.846
	L557.75,30.088c-39.68,180.793-146.568,315.538-316.541,408.854c-35.252,19.361-71.531,34.557-108.549,46.695
	c11.348,10.027,20.996,21.752,28.941,35.182c0.6,1.42,1.197,2.84,1.797,4.258c8.941-1.201,17.883-2.402,26.824-3.604
	c28.916,3.018,58.084,1.994,87.062,0.455c28.645-1.521,57.295-3.676,85.996-3.811c13.979-0.064,27.982,0.264,41.912,1.541
	c13.746,1.26,27.631,2.646,41.422,4.604c42.867-17.834,85.693-36.533,127.318-57.609c83.861-42.453,157.238-93.77,219.488-152.531
	C791.917,310.108,790.562,306.002,789.38,301.795z"/>
<g>
	<path fill="none" stroke="#113665" stroke-width="7" stroke-miterlimit="10" d="M142.689,467.188
		c11.816-0.43,20.781-1.855,26.916-4.268c6.121-2.398,10.934-7.549,14.441-15.428c3.498-7.877,5.252-20.35,5.252-37.418V146.828
		l-71.557,42.671L94.109,150.11L244.441,40.477h39.389v362.377c0,28.014-0.656,47.705-1.969,59.084
		c14-1.314,30.412-1.971,49.234-1.971v50.547H142.687v-43.326H142.689z"/>
	<path fill="none" stroke="#113665" stroke-width="7" stroke-miterlimit="10" d="M452.058,485.899
		c-26.916-23.408-46.508-53.176-58.754-89.281c-12.258-36.107-18.381-74.068-18.381-113.898c0-38.506,6.994-76.48,21.006-113.899
		c14.002-37.418,34.896-68.161,62.695-92.235c27.785-24.063,60.938-36.106,99.455-36.106c39.818,0,73.084,11.817,99.783,35.451
		c26.689,23.632,46.283,53.616,58.756,89.937c12.475,36.332,18.709,74.183,18.709,113.571c0,38.516-6.791,76.377-20.35,113.57
		c-13.572,37.203-33.922,67.842-61.053,91.906c-27.143,24.072-59.967,36.105-98.473,36.105
		C513.439,521.02,478.974,509.317,452.058,485.899z M618.804,425.174c11.158-32.824,16.74-76.809,16.74-131.953
		c0-63.452-5.479-113.786-16.412-150.99c-10.945-37.193-31.736-55.8-62.365-55.8c-29.326,0-50.334,16.74-63.023,50.221
		c-12.697,33.479-19.037,77.577-19.037,132.28c0,59.523,5.686,108.646,17.07,147.377c11.373,38.734,33.91,58.1,67.615,58.1
		C587.837,474.411,607.644,457.999,618.804,425.174z"/>
</g>
</svg>
