<?xml version="1.0" encoding="utf-8"?>
<!-- Generator: Adobe Illustrator 16.0.0, SVG Export Plug-In . SVG Version: 6.00 Build 0)  -->
<!DOCTYPE svg PUBLIC "-//W3C//DTD SVG 1.1//EN" "http://www.w3.org/Graphics/SVG/1.1/DTD/svg11.dtd">
<svg version="1.1" id="Layer_1" xmlns="http://www.w3.org/2000/svg" xmlns:xlink="http://www.w3.org/1999/xlink" x="0px" y="0px"
	 width="833.833px" height="560.556px" viewBox="4930.814 0 833.833 560.556" enable-background="new 4930.814 0 833.833 560.556"
	 xml:space="preserve">
<g>
	<g>
		<path fill="#004697" stroke="#113665" stroke-width="7" stroke-miterlimit="10" d="M5072.439,482.093
			c-26.686-23.209-46.11-52.721-58.252-88.52c-12.152-35.797-18.225-73.436-18.225-112.924c0-38.179,6.936-75.828,20.827-112.927
			c13.882-37.099,34.599-67.579,62.158-91.447c27.55-23.858,60.419-35.798,98.606-35.798c39.479,0,72.46,11.716,98.932,35.148
			c26.462,23.43,45.887,53.157,58.254,89.168c12.365,36.021,18.549,73.549,18.549,112.601c0,38.188-6.732,75.724-20.176,112.601
			c-13.456,36.885-33.632,67.262-60.531,91.121c-26.91,23.867-59.454,35.799-97.631,35.799
			C5133.295,516.916,5099.125,505.31,5072.439,482.093z M5237.76,421.888c11.064-32.544,16.598-76.152,16.598-130.826
			c0-62.91-5.432-112.812-16.271-149.699c-10.852-36.875-31.467-55.324-61.833-55.324c-29.076,0-49.903,16.598-62.483,49.793
			c-12.59,33.193-18.875,76.914-18.875,131.148c0,59.016,5.635,107.72,16.924,146.12c11.277,38.402,33.62,57.603,67.037,57.603
			C5207.059,470.703,5226.695,454.431,5237.76,421.888z"/>
		<path fill="#004697" stroke="#113665" stroke-width="7" stroke-miterlimit="10" d="M5451.562,502.92
			c-21.265-9.326-37.1-21.255-47.515-35.798c-10.412-14.531-15.619-29.828-15.619-45.887c0-13.882,4.229-25.596,12.691-35.146
			c8.461-9.539,19.414-14.318,32.869-14.318c13.882,0,24.184,4.343,30.916,13.018c6.722,8.684,10.089,18.225,10.089,28.637
			c0,4.78-0.876,9.877-2.604,15.297c-1.738,5.43-4.342,10.311-7.811,14.645c4.334,7.811,12.042,14.105,23.106,18.875
			c11.064,4.779,22.882,7.16,35.472,7.16c26.463,0,46.862-7.912,61.184-23.758c14.318-15.834,21.477-36.55,21.477-62.157
			c0-26.462-7.484-49.03-22.454-67.691c-14.971-18.65-39.601-27.763-73.873-27.336c-6.947,0-18.225,0.651-33.847,1.953V243.55
			c4.771,0.438,11.066,0.65,18.877,0.65c28.637,0,50.98-7.699,67.039-23.107c16.048-15.396,24.082-35.684,24.082-60.854
			c0-22.995-4.881-41.106-14.645-54.349c-9.763-13.23-25.059-19.852-45.887-19.852c-11.288,0-21.703,2.716-31.242,8.137
			c-9.548,5.431-16.271,11.828-20.176,19.201c3.468,4.342,6.07,9.549,7.811,15.62c1.729,6.081,2.603,11.501,2.603,16.272
			c0,9.549-3.58,18.874-10.738,27.986c-7.16,9.112-17.687,13.668-31.568,13.668c-13.454,0-23.979-4.443-31.565-13.342
			c-7.598-8.889-11.391-20.066-11.391-33.521c0-13.882,5.308-28.638,15.946-44.259c10.627-15.621,26.247-28.74,46.862-39.377
			c20.604-10.627,45.234-15.947,73.874-15.947c43.82,0,78.855,9.225,105.114,27.662c26.248,18.448,39.378,47.627,39.378,87.543
			c0,12.59-3.367,25.82-10.089,39.701c-6.732,13.894-17.36,26.586-31.892,38.077c-14.543,11.501-33.094,19.638-55.649,24.407v0.65
			c39.916,7.385,70.181,22.029,90.795,43.934c20.604,21.916,30.917,47.412,30.917,76.477c0,43.395-16.06,77.24-48.164,101.537
			c-32.117,24.305-74.2,36.449-126.27,36.449C5498.851,516.916,5472.816,512.246,5451.562,502.92z"/>
	</g>
	<g>
		<path opacity="0.05" fill="#FFFFFF" enable-background="new    " d="M5362.486,461.973c26.484,7.519,51.569,20.225,74.959,34.599
			c14.331,8.807,28.479,18.028,43.562,25.483c7.299,2.509,14.77,4.416,22.455,5.544c-4.958-0.667-9.917-1.332-14.876-1.998
			c0.021,0.009,0.042,0.018,0.062,0.026c12.933,1.772,25.837,3.702,38.758,5.533c12.832,1.606,25.763,2.981,38.725,3.917
			l60.83-1.562c6.701-14.078,17.588-25.907,30.975-33.787c-76.305-49.01-159.945-85.879-249.201-113.08
			c-59.985-18.266-121.198-32.438-179.063-47.754c58.879-25.164,121.461-47.957,180.461-77.83
			c98.532-49.881,175.581-117.915,228.823-199.082c-5.696-2.818-11.342-5.736-16.925-8.766
			c-10.499-5.697-20.939-11.516-31.712-16.669c-7.174-2.571-14.482-4.667-21.942-6.206c-25.561-1.928-51.633,0.493-77.068,3.72
			c-18.067,2.55-36.104,5.343-54.167,7.938c-0.059,0.368-0.124,0.733-0.179,1.103c-3.638,12.969-10.2,24.23-19.689,33.783
			c-5.165,3.99-10.33,7.981-15.495,11.972c-16.651,9.754-36.734,12.796-55.521,8.578c-37.529,58.938-91.136,107.036-160.224,144.966
			c-61.382,33.712-127.38,48.697-194.669,57.768c0.824,4.428,1.282,8.973,1.289,13.609c0.033,22.396,1.243,44.748,3.78,66.989
			c1.391,8.999,2.998,17.959,4.79,26.883c43.975,3.976,87.749,10.937,131.209,22.296c54.393,14.217,105.51,32.33,153.039,54.684
			C5304.408,463.981,5334.168,453.934,5362.486,461.973z"/>
		<path opacity="0.05" fill="#FFFFFF" enable-background="new    " d="M5483.11,524.865c1.809,0.24,3.614,0.499,5.422,0.747
			c-0.021-0.009-0.043-0.019-0.064-0.027C5486.682,525.345,5484.896,525.105,5483.11,524.865z"/>
	</g>
	<g>
		<path opacity="0.05" fill="#FFFFFF" enable-background="new    " d="M5685.231,247.25c-2.96-12.677-4.504-25.742-5.769-38.668
			c-1.444-14.758-1.209-29.624-0.273-44.408c1.393-22.001,4.471-43.951,5.795-65.973c-1.41-0.781-2.814-1.566-4.205-2.359
			c-12.876-7.338-25.322-15.426-37.504-23.861c-19.372-13.416-38.543-27.422-56.941-42.284c-49.438-1.597-98.948,5.776-148.19,9.606
			c-4.108,0.32-8.303,0.097-12.487-0.577c-3.084,14.277-9.973,27.747-20.385,38.159c-14.293,14.293-33.912,22.424-54.137,22.424
			c-20.957,0-38.944-8.484-54.137-22.424c-6.072-5.571-11.573-11.627-16.875-17.885c-2.115-0.392-4.231-0.861-6.348-1.43
			c-24.332-9.062-49.412-15.862-75.02-20.033c-16.608-1.818-33.65-2.76-50.293-1.563c-10.819,2.138-21.396,5.223-31.738,9.067
			c-13.778,6.434-27.054,13.833-40.163,21.545c57.309,6.161,114.372,15.943,171.075,30.766
			c139.034,36.34,263.693,89.785,371.478,163.087l69.491-1.784C5687.283,254.891,5686.127,251.087,5685.231,247.25z"/>
	</g>
	<g>
		<path fill="none" stroke="#113665" stroke-width="7" stroke-miterlimit="10" d="M5072.439,482.093
			c-26.686-23.209-46.11-52.721-58.252-88.52c-12.152-35.797-18.225-73.436-18.225-112.924c0-38.179,6.936-75.828,20.827-112.927
			c13.882-37.099,34.599-67.579,62.158-91.447c27.55-23.858,60.419-35.798,98.606-35.798c39.479,0,72.46,11.716,98.932,35.148
			c26.462,23.43,45.887,53.157,58.254,89.168c12.365,36.021,18.549,73.549,18.549,112.601c0,38.188-6.732,75.724-20.176,112.601
			c-13.456,36.885-33.632,67.262-60.531,91.121c-26.91,23.867-59.454,35.799-97.631,35.799
			C5133.295,516.916,5099.125,505.31,5072.439,482.093z M5237.76,421.888c11.064-32.544,16.598-76.152,16.598-130.826
			c0-62.91-5.432-112.812-16.271-149.699c-10.852-36.875-31.467-55.324-61.833-55.324c-29.076,0-49.903,16.598-62.483,49.793
			c-12.59,33.193-18.875,76.914-18.875,131.148c0,59.016,5.635,107.72,16.924,146.12c11.277,38.402,33.62,57.603,67.037,57.603
			C5207.059,470.703,5226.695,454.431,5237.76,421.888z"/>
		<path fill="none" stroke="#113665" stroke-width="7" stroke-miterlimit="10" d="M5451.562,502.92
			c-21.265-9.326-37.1-21.255-47.515-35.798c-10.412-14.531-15.619-29.828-15.619-45.887c0-13.882,4.229-25.596,12.691-35.146
			c8.461-9.539,19.414-14.318,32.869-14.318c13.882,0,24.184,4.343,30.916,13.018c6.722,8.684,10.089,18.225,10.089,28.637
			c0,4.78-0.876,9.877-2.604,15.297c-1.738,5.43-4.342,10.311-7.811,14.645c4.334,7.811,12.042,14.105,23.106,18.875
			c11.064,4.779,22.882,7.16,35.472,7.16c26.463,0,46.862-7.912,61.184-23.758c14.318-15.834,21.477-36.55,21.477-62.157
			c0-26.462-7.484-49.03-22.454-67.691c-14.971-18.65-39.601-27.763-73.873-27.336c-6.947,0-18.225,0.651-33.847,1.953V243.55
			c4.771,0.438,11.066,0.65,18.877,0.65c28.637,0,50.98-7.699,67.039-23.107c16.048-15.396,24.082-35.684,24.082-60.854
			c0-22.995-4.881-41.106-14.645-54.349c-9.763-13.23-25.059-19.852-45.887-19.852c-11.288,0-21.703,2.716-31.242,8.137
			c-9.548,5.431-16.271,11.828-20.176,19.201c3.468,4.342,6.07,9.549,7.811,15.62c1.729,6.081,2.603,11.501,2.603,16.272
			c0,9.549-3.58,18.874-10.738,27.986c-7.16,9.112-17.687,13.668-31.568,13.668c-13.454,0-23.979-4.443-31.565-13.342
			c-7.598-8.889-11.391-20.066-11.391-33.521c0-13.882,5.308-28.638,15.946-44.259c10.627-15.621,26.247-28.74,46.862-39.377
			c20.604-10.627,45.234-15.947,73.874-15.947c43.82,0,78.855,9.225,105.114,27.662c26.248,18.448,39.378,47.627,39.378,87.543
			c0,12.59-3.367,25.82-10.089,39.701c-6.732,13.894-17.36,26.586-31.892,38.077c-14.543,11.501-33.094,19.638-55.649,24.407v0.65
			c39.916,7.385,70.181,22.029,90.795,43.934c20.604,21.916,30.917,47.412,30.917,76.477c0,43.395-16.06,77.24-48.164,101.537
			c-32.117,24.305-74.2,36.449-126.27,36.449C5498.851,516.916,5472.816,512.246,5451.562,502.92z"/>
	</g>
</g>
</svg>
