<?xml version="1.0" encoding="utf-8"?>
<!-- Generator: Adobe Illustrator 16.0.0, SVG Export Plug-In . SVG Version: 6.00 Build 0)  -->
<!DOCTYPE svg PUBLIC "-//W3C//DTD SVG 1.1//EN" "http://www.w3.org/Graphics/SVG/1.1/DTD/svg11.dtd">
<svg version="1.1" id="Layer_1" xmlns="http://www.w3.org/2000/svg" xmlns:xlink="http://www.w3.org/1999/xlink" x="0px" y="0px"
	 width="833.833px" height="560.555px" viewBox="0 0 833.833 560.555" enable-background="new 0 0 833.833 560.555"
	 xml:space="preserve">
<g>
	<g>
		<path fill="#0D3182" stroke="#113665" stroke-width="7" stroke-miterlimit="10" d="M127.256,502.897
			c-21.266-9.326-37.1-21.256-47.514-35.799c-10.414-14.529-15.621-29.826-15.621-45.887c0-13.881,4.23-25.596,12.691-35.145
			c8.463-9.539,19.416-14.318,32.869-14.318c13.883,0,24.184,4.342,30.916,13.018c6.723,8.684,10.09,18.225,10.09,28.637
			c0,4.779-0.875,9.877-2.605,15.297c-1.736,5.43-4.34,10.311-7.809,14.645c4.332,7.812,12.041,14.105,23.104,18.875
			c11.064,4.779,22.883,7.16,35.475,7.16c26.461,0,46.859-7.912,61.182-23.758c14.318-15.834,21.479-36.549,21.479-62.156
			c0-26.463-7.484-49.031-22.455-67.691c-14.971-18.65-39.602-27.764-73.873-27.336c-6.947,0-18.225,0.65-33.846,1.953v-46.862
			c4.77,0.438,11.064,0.65,18.875,0.65c28.639,0,50.982-7.699,67.041-23.107c16.047-15.396,24.082-35.684,24.082-60.854
			c0-22.995-4.883-41.106-14.645-54.349c-9.766-13.23-25.061-19.852-45.889-19.852c-11.289,0-21.703,2.716-31.242,8.137
			c-9.549,5.431-16.27,11.828-20.176,19.201c3.467,4.342,6.07,9.549,7.811,15.62c1.729,6.081,2.604,11.501,2.604,16.272
			c0,9.549-3.58,18.874-10.738,27.986c-7.16,9.112-17.686,13.668-31.568,13.668c-13.453,0-23.979-4.443-31.564-13.342
			c-7.598-8.889-11.391-20.066-11.391-33.521c0-13.882,5.309-28.638,15.945-44.259c10.627-15.621,26.248-28.74,46.861-39.377
			c20.604-10.627,45.236-15.947,73.875-15.947c43.82,0,78.855,9.225,105.115,27.662c26.246,18.448,39.377,47.627,39.377,87.543
			c0,12.59-3.367,25.82-10.088,39.701c-6.732,13.894-17.361,26.586-31.893,38.077c-14.543,11.501-33.096,19.638-55.65,24.407v0.65
			c39.918,7.385,70.182,22.029,90.797,43.934c20.604,21.915,30.916,47.411,30.916,76.478c0,43.395-16.059,77.238-48.164,101.537
			c-32.117,24.305-74.199,36.447-126.27,36.447C174.545,516.891,148.512,512.221,127.256,502.897z"/>
		<path fill="#0D3182" stroke="#113665" stroke-width="7" stroke-miterlimit="10" d="M494.02,482.071
			c-26.686-23.209-46.109-52.723-58.252-88.521c-12.152-35.797-18.225-73.436-18.225-112.923c0-38.179,6.936-75.828,20.826-112.927
			c13.883-37.099,34.6-67.579,62.158-91.447c27.549-23.858,60.418-35.798,98.605-35.798c39.48,0,72.461,11.716,98.934,35.148
			c26.461,23.43,45.885,53.157,58.254,89.168c12.365,36.021,18.549,73.549,18.549,112.601c0,38.188-6.734,75.723-20.176,112.6
			c-13.457,36.887-33.633,67.264-60.531,91.121c-26.91,23.867-59.455,35.799-97.631,35.799
			C554.875,516.891,520.706,505.288,494.02,482.071z M659.34,421.866c11.062-32.545,16.598-76.152,16.598-130.826
			c0-62.911-5.432-112.812-16.271-149.7c-10.854-36.875-31.465-55.324-61.832-55.324c-29.076,0-49.904,16.598-62.484,49.793
			c-12.59,33.193-18.875,76.914-18.875,131.148c0,59.016,5.635,107.719,16.924,146.12c11.277,38.402,33.621,57.604,67.039,57.604
			C628.637,470.678,648.276,454.409,659.34,421.866z"/>
	</g>
	<g>
		<path opacity="0.05" fill="#FFFFFF" enable-background="new    " d="M765.598,157.739c-0.018-5.724-0.238-11.435-0.688-17.131
			c-1.555-8.064-3.652-16.002-6.342-23.761c-2.896-5.741-6.139-11.293-9.723-16.631c-5.158-5.853-10.723-11.32-16.629-16.42
			c-10.891-7.534-22.477-13.995-34.484-19.589c-28.623-10.97-58.688-17.858-88.977-22.45c-17.062-2.009-34.191-3.376-51.35-4.242
			C520.055,168.306,436.159,267.3,308.36,337.461c-81.52,44.773-169.789,62.162-259.455,72.795
			c2.492,4.764,4.496,9.814,5.994,15.158c0.912,6.785,1.824,13.568,2.734,20.354c0.809,7.832,1.67,15.66,2.623,23.477
			c1.742,11.689,3.822,23.363,6.533,34.871c11.215,0.27,22.447,2.23,33.449,3.814c7.537,1.084,14.992,2.682,22.34,4.684
			c16.576,4.516,32.699,10.514,48.703,16.723c16.1,6.248,32.105,12.797,48.465,18.346c1.688,0.572,3.373,1.105,5.061,1.633
			c0.873-0.562,1.754-1.111,2.652-1.639c18.141-10.613,38.424-17.596,58.992-21.602c10.604-2.066,21.236-3.943,31.537-7.096
			c2.271-1.287,4.48-2.674,6.654-4.131c19.949-16.895,38.4-36.18,61.832-48.18c2.85-1.461,5.725-2.77,8.617-3.947
			c-11.451-2.936-22.83-5.881-34.094-8.861c71.023-30.354,146.514-57.85,217.686-93.885
			c81.113-41.061,150.158-92.325,206.244-151.859C772.985,194.572,765.653,176.888,765.598,157.739z"/>
	</g>
	<g>
		<path opacity="0.05" fill="#FFFFFF" enable-background="new    " d="M746.848,417.071c9.855-15.471,20.801-30.338,32.346-44.67
			c2.682-57.508-4.529-115.063-4.592-172.657c-0.002-2.156,0.109-4.289,0.291-6.405c-95.855-27.866-192.807-50.639-284.967-75.032
			c55.195-23.59,112.229-46.011,169.188-69.732c-0.998-0.771-1.998-1.543-2.996-2.314c-5.98-4.125-12.219-7.815-18.709-11.064
			c-30.762-10.842-63.607-13.549-95.771-18.413c-27.688,23.019-54.496,47.581-84.553,67.393
			c-9.631,6.348-20.553,11.425-31.467,14.846c-16.486,5.167-28.146,3.271-44.582,0.577c-9.988-1.637-20.447-5.941-28.607-11.863
			c-14.949-10.848-24.965-18.816-34.529-35.146c-2.373-4.054-4.455-8.308-6.318-12.662c-10.158,1.087-20.312,2.288-30.475,2.354
			c-20.898,0.137-40.064-8.648-53.994-22.668c-41.771,10.85-84.189,19.001-126.971,25.535c-0.08,0.311-0.152,0.621-0.234,0.932
			c-2.572,6.096-5.146,12.192-7.719,18.288c-11.354,25.414-25.146,49.619-37.916,74.33c2.768,2.101,5.416,4.399,7.943,6.909
			c3.99,5.165,7.98,10.33,11.971,15.495c2.889,6.35,6.375,12.31,10.297,18.017c12.971,15.688,26.74,30.697,37.709,47.989
			c3.521,5.551,6.115,11.441,7.859,17.507c62.877,7.405,125.494,18.592,187.75,34.865
			c151.855,39.692,289.318,96.517,410.119,172.962C733.418,440.239,739.643,428.379,746.848,417.071z"/>
	</g>
	<g>
		<path fill="none" stroke="#113665" stroke-width="7" stroke-miterlimit="10" d="M127.256,502.897
			c-21.266-9.326-37.1-21.256-47.514-35.799c-10.414-14.529-15.621-29.826-15.621-45.887c0-13.881,4.23-25.596,12.691-35.145
			c8.463-9.539,19.416-14.318,32.869-14.318c13.883,0,24.184,4.342,30.916,13.018c6.723,8.684,10.09,18.225,10.09,28.637
			c0,4.779-0.875,9.877-2.605,15.297c-1.736,5.43-4.34,10.311-7.809,14.645c4.332,7.812,12.041,14.105,23.104,18.875
			c11.064,4.779,22.883,7.16,35.475,7.16c26.461,0,46.859-7.912,61.182-23.758c14.318-15.834,21.479-36.549,21.479-62.156
			c0-26.463-7.484-49.031-22.455-67.691c-14.971-18.65-39.602-27.764-73.873-27.336c-6.947,0-18.225,0.65-33.846,1.953v-46.862
			c4.77,0.438,11.064,0.65,18.875,0.65c28.639,0,50.982-7.699,67.041-23.107c16.047-15.396,24.082-35.684,24.082-60.854
			c0-22.995-4.883-41.106-14.645-54.349c-9.766-13.23-25.061-19.852-45.889-19.852c-11.289,0-21.703,2.716-31.242,8.137
			c-9.549,5.431-16.27,11.828-20.176,19.201c3.467,4.342,6.07,9.549,7.811,15.62c1.729,6.081,2.604,11.501,2.604,16.272
			c0,9.549-3.58,18.874-10.738,27.986c-7.16,9.112-17.686,13.668-31.568,13.668c-13.453,0-23.979-4.443-31.564-13.342
			c-7.598-8.889-11.391-20.066-11.391-33.521c0-13.882,5.309-28.638,15.945-44.259c10.627-15.621,26.248-28.74,46.861-39.377
			c20.604-10.627,45.236-15.947,73.875-15.947c43.82,0,78.855,9.225,105.115,27.662c26.246,18.448,39.377,47.627,39.377,87.543
			c0,12.59-3.367,25.82-10.088,39.701c-6.732,13.894-17.361,26.586-31.893,38.077c-14.543,11.501-33.096,19.638-55.65,24.407v0.65
			c39.918,7.385,70.182,22.029,90.797,43.934c20.604,21.915,30.916,47.411,30.916,76.478c0,43.395-16.059,77.238-48.164,101.537
			c-32.117,24.305-74.199,36.447-126.27,36.447C174.545,516.891,148.512,512.221,127.256,502.897z"/>
		<path fill="none" stroke="#113665" stroke-width="7" stroke-miterlimit="10" d="M494.02,482.071
			c-26.686-23.209-46.109-52.723-58.252-88.521c-12.152-35.797-18.225-73.436-18.225-112.923c0-38.179,6.936-75.828,20.826-112.927
			c13.883-37.099,34.6-67.579,62.158-91.447c27.549-23.858,60.418-35.798,98.605-35.798c39.48,0,72.461,11.716,98.934,35.148
			c26.461,23.43,45.885,53.157,58.254,89.168c12.365,36.021,18.549,73.549,18.549,112.601c0,38.188-6.734,75.723-20.176,112.6
			c-13.457,36.887-33.633,67.264-60.531,91.121c-26.91,23.867-59.455,35.799-97.631,35.799
			C554.875,516.891,520.706,505.288,494.02,482.071z M659.34,421.866c11.062-32.545,16.598-76.152,16.598-130.826
			c0-62.911-5.432-112.812-16.271-149.7c-10.854-36.875-31.465-55.324-61.832-55.324c-29.076,0-49.904,16.598-62.484,49.793
			c-12.59,33.193-18.875,76.914-18.875,131.148c0,59.016,5.635,107.719,16.924,146.12c11.277,38.402,33.621,57.604,67.039,57.604
			C628.637,470.678,648.276,454.409,659.34,421.866z"/>
	</g>
</g>
</svg>
