<?xml version="1.0" encoding="utf-8"?>
<!-- Generator: Adobe Illustrator 16.0.0, SVG Export Plug-In . SVG Version: 6.00 Build 0)  -->
<!DOCTYPE svg PUBLIC "-//W3C//DTD SVG 1.1//EN" "http://www.w3.org/Graphics/SVG/1.1/DTD/svg11.dtd">
<svg version="1.1" id="Layer_1" xmlns="http://www.w3.org/2000/svg" xmlns:xlink="http://www.w3.org/1999/xlink" x="0px" y="0px"
	 width="833.833px" height="560.555px" viewBox="0 0 833.833 560.555" enable-background="new 0 0 833.833 560.555"
	 xml:space="preserve">
<g>
	<g>
		<path fill="#0D3182" stroke="#113665" stroke-width="7" stroke-miterlimit="10" d="M341.201,74.978
			C314.73,51.545,281.75,39.83,242.269,39.83c-38.188,0-71.057,11.939-98.605,35.798c-27.561,23.868-48.275,54.349-62.158,91.447
			c-13.891,37.099-20.828,74.748-20.828,112.927c0,39.489,6.072,77.127,18.227,112.924c12.141,35.799,31.564,65.311,58.252,88.52
			c26.684,23.217,60.854,34.822,102.512,34.822c38.176,0,70.721-11.932,97.631-35.799c26.898-23.859,47.074-54.236,60.531-91.121
			c13.441-36.877,20.176-74.414,20.176-112.601c0-39.052-6.184-76.579-18.549-112.601
			C387.087,128.135,367.664,98.407,341.201,74.978z M302.474,421.241c-11.064,32.543-30.701,48.812-58.902,48.812
			c-33.418,0-55.762-19.201-67.039-57.604c-11.289-38.4-16.924-87.104-16.924-146.12c0-54.234,6.285-97.955,18.875-131.148
			c12.58-33.195,33.408-49.793,62.484-49.793c30.367,0,50.98,18.449,61.832,55.324c10.84,36.887,16.271,86.789,16.271,149.7
			C319.072,345.086,313.539,388.696,302.474,421.241z"/>
		<path fill="#0D3182" stroke="#113665" stroke-width="7" stroke-miterlimit="10" d="M736.271,99.059
			C710.664,59.58,670.31,39.83,615.208,39.83c-30.814,0-58.039,6.296-81.684,18.876c-23.656,12.591-42.094,30.265-55.324,53.046
			c-13.24,22.779-19.852,48.488-19.852,77.128c0,45.562,11.391,82.232,34.17,109.996c22.781,27.775,56.299,41.658,100.561,41.658
			c16.047,0,32.645-3.906,49.791-11.717c17.135-7.812,29.613-16.271,37.424-25.386c2.168,46.437-4.129,85.815-18.875,118.134
			c-14.756,32.328-37.535,48.488-68.34,48.488c-9.551,0-17.9-1.729-25.061-5.207c-7.158-3.467-12.264-7.811-15.295-13.018
			c2.604-3.467,4.77-8.023,6.51-13.668c1.729-5.635,2.604-10.414,2.604-14.32c0-10.84-3.254-20.391-9.766-28.637
			c-6.508-8.238-17.145-12.367-31.891-12.367c-12.59,0-22.895,4.883-30.916,14.646c-8.035,9.764-12.043,20.938-12.043,33.52
			c0,24.307,9.764,44.586,29.289,60.857c19.525,16.27,49.467,24.406,89.82,24.406c67.252,0,113.791-26.137,139.611-78.432
			c25.811-52.283,38.727-111.623,38.727-178.012C774.671,192.134,761.869,138.548,736.271,99.059z M653.611,276.095
			c-11.717,8.247-24.082,12.366-37.1,12.366c-23.434,0-39.277-11.816-47.516-35.472c-8.248-23.646-12.367-50.004-12.367-79.08
			c0-24.297,4.982-45.125,14.971-62.484c9.979-17.35,24.297-26.035,42.959-26.035c23.43,0,40.242,14.869,50.441,44.586
			c10.189,29.726,15.295,68.238,15.295,115.529C674.214,257.657,665.326,267.856,653.611,276.095z"/>
	</g>
	<g>
		<path opacity="0.05" fill="#FFFFFF" enable-background="new    " d="M479.308,363.125
			c-59.986-18.266-121.199-32.438-179.064-47.754c58.879-25.164,121.461-47.957,180.461-77.83
			c99.32-50.279,176.816-119.002,230.102-201.028c-20.279-7.331-41.043-13.245-62.307-16.911
			c-17.525-1.651-35.115-1.623-52.639,0.047c-33.324,5.691-65.488,16.615-96.766,29.372c-5.721,2.48-11.426,4.991-17.107,7.557
			c-11.941,6.926-24.822,10.409-38.643,10.452c-6.785-0.911-13.568-1.822-20.354-2.734c-0.068-0.019-0.135-0.042-0.203-0.062
			c-37.725,63.374-93.354,114.657-166.186,154.644c-67.336,36.982-140.229,51.427-214.287,60.25c1.271,3.006,2.539,6.014,3.809,9.02
			c3.658,22.738,5.711,44.922,5.73,67.873c0.01,8.844-0.02,17.691,0.297,26.523c50.584,3.576,100.924,10.828,150.852,23.879
			c61.104,15.973,118.08,36.852,170.469,63.146c12.855-9.762,28.781-15.605,45.871-15.605c36.504,0,67.723,26.643,74.975,61.248
			l203.875-5.234c6.604-11.535,16.154-21.762,27.543-27.559c2.279-1.16,4.502-2.406,6.703-3.689
			C655.08,428.452,570.095,390.793,479.308,363.125z"/>
	</g>
	<g>
		<path opacity="0.05" fill="#FFFFFF" enable-background="new    " d="M787.476,301.795c-1.715-12.768-3.432-25.532-5.146-38.298
			c3.705-35.926,7.051-72.316,4.619-108.433c-1.703-8.034-3.795-15.972-6.312-23.786c-7.66-14.463-16.764-28.107-26.436-41.351
			c-12.516-15.122-25.973-29.381-40.715-42.319c-7.104-4.842-14.381-9.424-21.82-13.752c-2.109-1.228-4.184-2.512-6.223-3.846
			l-129.598,0.078c-39.68,180.793-146.568,315.538-316.541,408.854c-35.252,19.361-71.531,34.557-108.549,46.695
			c11.348,10.027,20.996,21.752,28.941,35.182c0.6,1.42,1.197,2.84,1.797,4.258c8.941-1.201,17.883-2.402,26.824-3.604
			c28.916,3.018,58.084,1.994,87.062,0.455c28.645-1.521,57.295-3.676,85.996-3.811c13.979-0.064,27.982,0.264,41.912,1.541
			c13.746,1.26,27.631,2.646,41.422,4.604c42.867-17.834,85.693-36.533,127.318-57.609c83.861-42.453,157.238-93.77,219.488-152.531
			C790.013,310.108,788.658,306.002,787.476,301.795z"/>
	</g>
	<g>
		<path fill="none" stroke="#113665" stroke-width="7" stroke-miterlimit="10" d="M341.201,74.978
			C314.73,51.545,281.75,39.83,242.269,39.83c-38.188,0-71.057,11.939-98.605,35.798c-27.561,23.868-48.275,54.349-62.158,91.447
			c-13.891,37.099-20.828,74.748-20.828,112.927c0,39.489,6.072,77.127,18.227,112.924c12.141,35.799,31.564,65.311,58.252,88.52
			c26.684,23.217,60.854,34.822,102.512,34.822c38.176,0,70.721-11.932,97.631-35.799c26.898-23.859,47.074-54.236,60.531-91.121
			c13.441-36.877,20.176-74.414,20.176-112.601c0-39.052-6.184-76.579-18.549-112.601
			C387.087,128.135,367.664,98.407,341.201,74.978z M302.474,421.241c-11.064,32.543-30.701,48.812-58.902,48.812
			c-33.418,0-55.762-19.201-67.039-57.604c-11.289-38.4-16.924-87.104-16.924-146.12c0-54.234,6.285-97.955,18.875-131.148
			c12.58-33.195,33.408-49.793,62.484-49.793c30.367,0,50.98,18.449,61.832,55.324c10.84,36.887,16.271,86.789,16.271,149.7
			C319.072,345.086,313.539,388.696,302.474,421.241z"/>
		<path fill="none" stroke="#113665" stroke-width="7" stroke-miterlimit="10" d="M736.271,99.059
			C710.664,59.58,670.31,39.83,615.208,39.83c-30.814,0-58.039,6.296-81.684,18.876c-23.656,12.591-42.094,30.265-55.324,53.046
			c-13.24,22.779-19.852,48.488-19.852,77.128c0,45.562,11.391,82.232,34.17,109.996c22.781,27.775,56.299,41.658,100.561,41.658
			c16.047,0,32.645-3.906,49.791-11.717c17.135-7.812,29.613-16.271,37.424-25.386c2.168,46.437-4.129,85.815-18.875,118.134
			c-14.756,32.328-37.535,48.488-68.34,48.488c-9.551,0-17.9-1.729-25.061-5.207c-7.158-3.467-12.264-7.811-15.295-13.018
			c2.604-3.467,4.77-8.023,6.51-13.668c1.729-5.635,2.604-10.414,2.604-14.32c0-10.84-3.254-20.391-9.766-28.637
			c-6.508-8.238-17.145-12.367-31.891-12.367c-12.59,0-22.895,4.883-30.916,14.646c-8.035,9.764-12.043,20.938-12.043,33.52
			c0,24.307,9.764,44.586,29.289,60.857c19.525,16.27,49.467,24.406,89.82,24.406c67.252,0,113.791-26.137,139.611-78.432
			c25.811-52.283,38.727-111.623,38.727-178.012C774.671,192.134,761.869,138.548,736.271,99.059z M653.611,276.095
			c-11.717,8.247-24.082,12.366-37.1,12.366c-23.434,0-39.277-11.816-47.516-35.472c-8.248-23.646-12.367-50.004-12.367-79.08
			c0-24.297,4.982-45.125,14.971-62.484c9.979-17.35,24.297-26.035,42.959-26.035c23.43,0,40.242,14.869,50.441,44.586
			c10.189,29.726,15.295,68.238,15.295,115.529C674.214,257.657,665.326,267.856,653.611,276.095z"/>
	</g>
</g>
</svg>
