<?xml version="1.0" encoding="utf-8"?>
<!-- Generator: Adobe Illustrator 16.0.0, SVG Export Plug-In . SVG Version: 6.00 Build 0)  -->
<!DOCTYPE svg PUBLIC "-//W3C//DTD SVG 1.1//EN" "http://www.w3.org/Graphics/SVG/1.1/DTD/svg11.dtd">
<svg version="1.1" id="Layer_1" xmlns="http://www.w3.org/2000/svg" xmlns:xlink="http://www.w3.org/1999/xlink" x="0px" y="0px"
	 width="833.833px" height="560.556px" viewBox="5784.647 0 833.833 560.556" enable-background="new 5784.647 0 833.833 560.556"
	 xml:space="preserve">
<g>
	<g>
		<path fill="#004697" stroke="#113665" stroke-width="7" stroke-miterlimit="10" d="M5911.903,502.897
			c-21.265-9.326-37.1-21.255-47.514-35.798c-10.413-14.531-15.621-29.828-15.621-45.887c0-13.882,4.23-25.596,12.692-35.146
			c8.462-9.539,19.415-14.318,32.869-14.318c13.882,0,24.184,4.343,30.916,13.018c6.722,8.684,10.089,18.225,10.089,28.637
			c0,4.78-0.875,9.877-2.604,15.297c-1.738,5.43-4.341,10.311-7.81,14.645c4.333,7.811,12.041,14.105,23.105,18.875
			c11.064,4.779,22.883,7.16,35.473,7.16c26.462,0,46.861-7.912,61.182-23.758c14.319-15.834,21.479-36.55,21.479-62.157
			c0-26.462-7.484-49.03-22.455-67.691c-14.971-18.65-39.601-27.763-73.873-27.336c-6.947,0-18.225,0.651-33.846,1.953v-46.862
			c4.77,0.438,11.065,0.65,18.876,0.65c28.638,0,50.981-7.699,67.04-23.107c16.047-15.396,24.082-35.684,24.082-60.854
			c0-22.995-4.883-41.106-14.645-54.349c-9.764-13.23-25.06-19.852-45.887-19.852c-11.289,0-21.703,2.716-31.242,8.137
			c-9.549,5.431-16.271,11.828-20.176,19.201c3.467,4.342,6.07,9.549,7.81,15.62c1.729,6.081,2.603,11.501,2.603,16.272
			c0,9.549-3.58,18.874-10.738,27.986c-7.16,9.112-17.686,13.668-31.568,13.668c-13.453,0-23.979-4.443-31.565-13.342
			c-7.597-8.889-11.391-20.066-11.391-33.521c0-13.882,5.308-28.638,15.946-44.259c10.627-15.621,26.248-28.74,46.862-39.377
			c20.603-10.627,45.235-15.947,73.874-15.947c43.82,0,78.855,9.225,105.115,27.662c26.247,18.448,39.377,47.627,39.377,87.543
			c0,12.59-3.367,25.82-10.088,39.701c-6.733,13.894-17.361,26.586-31.893,38.077c-14.543,11.501-33.094,19.638-55.649,24.407v0.65
			c39.917,7.385,70.181,22.029,90.796,43.934c20.604,21.916,30.916,47.412,30.916,76.477c0,43.395-16.059,77.24-48.164,101.537
			c-32.117,24.305-74.199,36.449-126.27,36.449C5959.192,516.892,5933.158,512.222,5911.903,502.897z"/>
		<path fill="#004697" stroke="#113665" stroke-width="7" stroke-miterlimit="10" d="M6278.667,482.07
			c-26.687-23.209-46.111-52.721-58.253-88.52c-12.153-35.797-18.225-73.436-18.225-112.924c0-38.179,6.937-75.828,20.827-112.927
			c13.883-37.099,34.599-67.579,62.158-91.447c27.549-23.858,60.418-35.798,98.606-35.798c39.479,0,72.46,11.716,98.932,35.148
			c26.462,23.43,45.886,53.157,58.254,89.168c12.366,36.021,18.549,73.549,18.549,112.601c0,38.188-6.733,75.724-20.176,112.601
			c-13.456,36.885-33.632,67.262-60.531,91.121c-26.91,23.867-59.454,35.799-97.63,35.799
			C6339.522,516.892,6305.351,505.287,6278.667,482.07z M6443.986,421.865c11.064-32.544,16.598-76.152,16.598-130.826
			c0-62.91-5.432-112.812-16.272-149.699c-10.852-36.875-31.465-55.324-61.832-55.324c-29.076,0-49.903,16.598-62.484,49.793
			c-12.59,33.193-18.874,76.914-18.874,131.148c0,59.016,5.635,107.72,16.923,146.12c11.277,38.402,33.621,57.603,67.039,57.603
			C6413.284,470.679,6432.922,454.408,6443.986,421.865z"/>
	</g>
	<g>
		<path opacity="0.05" fill="#FFFFFF" enable-background="new    " d="M6550.245,157.739c-0.018-5.724-0.239-11.435-0.689-17.131
			c-1.553-8.064-3.651-16.002-6.342-23.761c-2.895-5.741-6.137-11.293-9.722-16.631c-5.157-5.853-10.722-11.32-16.628-16.42
			c-10.891-7.534-22.478-13.995-34.486-19.589c-28.622-10.97-58.686-17.858-88.976-22.45c-17.063-2.009-34.192-3.376-51.349-4.242
			c-37.351,130.791-121.249,229.785-249.047,299.947c-81.52,44.773-169.79,62.162-259.456,72.795
			c2.492,4.764,4.496,9.813,5.995,15.158c0.912,6.784,1.823,13.568,2.734,20.353c0.808,7.833,1.671,15.66,2.623,23.477
			c1.742,11.69,3.822,23.362,6.533,34.87c11.215,0.271,22.448,2.231,33.449,3.815c7.537,1.085,14.992,2.682,22.34,4.683
			c16.577,4.516,32.699,10.514,48.703,16.724c16.099,6.247,32.105,12.796,48.465,18.345c1.688,0.572,3.373,1.105,5.06,1.633
			c0.873-0.562,1.755-1.111,2.654-1.638c18.139-10.613,38.423-17.596,58.991-21.603c10.603-2.066,21.237-3.943,31.537-7.095
			c2.272-1.287,4.48-2.674,6.654-4.13c19.95-16.896,38.402-36.181,61.833-48.181c2.85-1.46,5.724-2.768,8.616-3.946
			c-11.451-2.937-22.829-5.881-34.093-8.862c71.024-30.354,146.514-57.849,217.685-93.884
			c81.114-41.062,150.158-92.326,206.245-151.86C6557.632,194.572,6550.3,176.888,6550.245,157.739z"/>
	</g>
	<g>
		<path opacity="0.05" fill="#FFFFFF" enable-background="new    " d="M6531.495,417.07c9.854-15.469,20.8-30.337,32.345-44.67
			c2.681-57.506-4.53-115.062-4.593-172.656c-0.002-2.156,0.111-4.289,0.291-6.405c-95.854-27.866-192.806-50.639-284.966-75.032
			c55.195-23.59,112.229-46.011,169.187-69.732c-0.998-0.771-1.997-1.543-2.996-2.314c-5.981-4.125-12.218-7.815-18.708-11.064
			c-30.763-10.842-63.608-13.549-95.772-18.413c-27.688,23.019-54.496,47.581-84.553,67.393
			c-9.631,6.348-20.553,11.425-31.467,14.846c-16.487,5.167-28.146,3.271-44.581,0.577c-9.989-1.637-20.448-5.941-28.609-11.863
			c-14.948-10.848-24.964-18.816-34.528-35.146c-2.374-4.054-4.455-8.308-6.32-12.662c-10.158,1.087-20.312,2.288-30.474,2.354
			c-20.899,0.137-40.064-8.648-53.993-22.668c-41.773,10.85-84.19,19.001-126.972,25.535c-0.079,0.311-0.151,0.621-0.234,0.932
			c-2.572,6.096-5.146,12.192-7.718,18.288c-11.354,25.414-25.147,49.619-37.916,74.33c2.766,2.101,5.416,4.399,7.942,6.909
			c3.991,5.165,7.981,10.33,11.972,15.495c2.887,6.35,6.375,12.31,10.296,18.017c12.97,15.688,26.741,30.697,37.709,47.989
			c3.521,5.551,6.116,11.441,7.86,17.507c62.876,7.405,125.494,18.592,187.749,34.865c151.857,39.692,289.32,96.516,410.12,172.961
			C6518.065,440.239,6524.29,428.38,6531.495,417.07z"/>
	</g>
	<g>
		<path fill="none" stroke="#113665" stroke-width="7" stroke-miterlimit="10" d="M5911.903,502.897
			c-21.265-9.326-37.1-21.255-47.514-35.798c-10.413-14.531-15.621-29.828-15.621-45.887c0-13.882,4.23-25.596,12.692-35.146
			c8.462-9.539,19.415-14.318,32.869-14.318c13.882,0,24.184,4.343,30.916,13.018c6.722,8.684,10.089,18.225,10.089,28.637
			c0,4.78-0.875,9.877-2.604,15.297c-1.738,5.43-4.341,10.311-7.81,14.645c4.333,7.811,12.041,14.105,23.105,18.875
			c11.064,4.779,22.883,7.16,35.473,7.16c26.462,0,46.861-7.912,61.182-23.758c14.319-15.834,21.479-36.55,21.479-62.157
			c0-26.462-7.484-49.03-22.455-67.691c-14.971-18.65-39.601-27.763-73.873-27.336c-6.947,0-18.225,0.651-33.846,1.953v-46.862
			c4.77,0.438,11.065,0.65,18.876,0.65c28.638,0,50.981-7.699,67.04-23.107c16.047-15.396,24.082-35.684,24.082-60.854
			c0-22.995-4.883-41.106-14.645-54.349c-9.764-13.23-25.06-19.852-45.887-19.852c-11.289,0-21.703,2.716-31.242,8.137
			c-9.549,5.431-16.271,11.828-20.176,19.201c3.467,4.342,6.07,9.549,7.81,15.62c1.729,6.081,2.603,11.501,2.603,16.272
			c0,9.549-3.58,18.874-10.738,27.986c-7.16,9.112-17.686,13.668-31.568,13.668c-13.453,0-23.979-4.443-31.565-13.342
			c-7.597-8.889-11.391-20.066-11.391-33.521c0-13.882,5.308-28.638,15.946-44.259c10.627-15.621,26.248-28.74,46.862-39.377
			c20.603-10.627,45.235-15.947,73.874-15.947c43.82,0,78.855,9.225,105.115,27.662c26.247,18.448,39.377,47.627,39.377,87.543
			c0,12.59-3.367,25.82-10.088,39.701c-6.733,13.894-17.361,26.586-31.893,38.077c-14.543,11.501-33.094,19.638-55.649,24.407v0.65
			c39.917,7.385,70.181,22.029,90.796,43.934c20.604,21.916,30.916,47.412,30.916,76.477c0,43.395-16.059,77.24-48.164,101.537
			c-32.117,24.305-74.199,36.449-126.27,36.449C5959.192,516.892,5933.158,512.222,5911.903,502.897z"/>
		<path fill="none" stroke="#113665" stroke-width="7" stroke-miterlimit="10" d="M6278.667,482.07
			c-26.687-23.209-46.111-52.721-58.253-88.52c-12.153-35.797-18.225-73.436-18.225-112.924c0-38.179,6.937-75.828,20.827-112.927
			c13.883-37.099,34.599-67.579,62.158-91.447c27.549-23.858,60.418-35.798,98.606-35.798c39.479,0,72.46,11.716,98.932,35.148
			c26.462,23.43,45.886,53.157,58.254,89.168c12.366,36.021,18.549,73.549,18.549,112.601c0,38.188-6.733,75.724-20.176,112.601
			c-13.456,36.885-33.632,67.262-60.531,91.121c-26.91,23.867-59.454,35.799-97.63,35.799
			C6339.522,516.892,6305.351,505.287,6278.667,482.07z M6443.986,421.865c11.064-32.544,16.598-76.152,16.598-130.826
			c0-62.91-5.432-112.812-16.272-149.699c-10.852-36.875-31.465-55.324-61.832-55.324c-29.076,0-49.903,16.598-62.484,49.793
			c-12.59,33.193-18.874,76.914-18.874,131.148c0,59.016,5.635,107.72,16.923,146.12c11.277,38.402,33.621,57.603,67.039,57.603
			C6413.284,470.679,6432.922,454.408,6443.986,421.865z"/>
	</g>
</g>
</svg>
