<?xml version="1.0" encoding="utf-8"?>
<!-- Generator: Adobe Illustrator 16.0.0, SVG Export Plug-In . SVG Version: 6.00 Build 0)  -->
<!DOCTYPE svg PUBLIC "-//W3C//DTD SVG 1.1//EN" "http://www.w3.org/Graphics/SVG/1.1/DTD/svg11.dtd">
<svg version="1.1" id="Layer_1" xmlns="http://www.w3.org/2000/svg" xmlns:xlink="http://www.w3.org/1999/xlink" x="0px" y="0px"
	 width="960px" height="560px" viewBox="0 0 960 560" enable-background="new 0 0 960 560" xml:space="preserve">
<g>
	<path fill-rule="evenodd" clip-rule="evenodd" fill="#FFFFFF" d="M631.928,253.338c0.782,0.131,1.567,0.241,2.345,0.396
		c2.075,0.413,3.99,1.202,5.575,2.629c4.026,3.626,3.738,9.457-0.665,12.717c-1.132,0.84-2.431,1.456-3.717,2.213
		c0.014,0.038,0.033,0.181,0.107,0.284c2.782,3.896,5.502,7.84,8.391,11.655c1.018,1.343,2.409,2.415,3.7,3.531
		c1.371,1.189,3.086,1.657,4.82,2.034c0,0.114,0,0.229,0,0.344c-0.997,0.072-2.018,0.316-2.988,0.189
		c-3.399-0.442-6.062-2.336-8.507-4.596c-3.003-2.772-5.247-6.155-7.608-9.442c-0.733-1.02-1.41-2.08-2.179-3.071
		c-0.225-0.29-0.665-0.55-1.026-0.576c-1.672-0.124-3.35-0.161-5.191-0.235c-0.035,0.594-0.111,1.229-0.104,1.863
		c0.041,3.251,0.094,6.501,0.165,9.752c0.013,0.565,0.135,1.129,0.208,1.693c0.174,1.344,0.886,2.176,2.25,2.421
		c0.39,0.069,0.781,0.181,1.142,0.341c0.194,0.087,0.322,0.318,0.48,0.482c-0.199,0.105-0.403,0.31-0.598,0.3
		c-0.795-0.036-1.588-0.208-2.381-0.2c-2.414,0.017-4.828,0.091-7.241,0.146c-0.114,0.003-0.238,0.048-0.34,0.016
		c-0.282-0.091-0.556-0.212-0.834-0.322c0.232-0.202,0.438-0.529,0.7-0.584c1.876-0.391,2.631-1.657,2.75-3.424
		c0.131-1.931,0.3-3.865,0.313-5.799c0.041-5.85,0.028-11.7,0.002-17.551c-0.005-1.02-0.173-2.039-0.282-3.058
		c-0.158-1.464-0.935-2.342-2.436-2.518c-0.197-0.023-0.406-0.053-0.578-0.142c-0.165-0.085-0.29-0.249-0.433-0.38
		c0.176-0.127,0.347-0.354,0.527-0.36c0.884-0.036,1.771,0.029,2.653-0.022c2.93-0.173,5.856-0.379,8.782-0.58
		c0.164-0.011,0.322-0.097,0.484-0.146C630.785,253.338,631.357,253.338,631.928,253.338z M624.971,266.775
		c0.025,0.003,0.051,0.004,0.077,0.007c0,0.798,0.017,1.596-0.007,2.393c-0.016,0.518,0.165,0.752,0.707,0.847
		c2.411,0.424,4.816,0.446,7.214-0.033c3.834-0.769,6.052-3.325,5.821-7.045c-0.362-5.837-5.375-10.071-12.068-7.982
		c-0.736,0.229-1.133,0.737-1.176,1.503C625.346,259.901,625.159,263.339,624.971,266.775z"/>
	<path fill-rule="evenodd" clip-rule="evenodd" fill="#FFFFFF" d="M413.515,253.338c0.634,0.132,1.273,0.243,1.903,0.398
		c3.098,0.771,5.389,2.496,6.24,5.679c1.048,3.918-0.651,7.259-4.41,8.934c-0.559,0.249-1.135,0.459-1.935,0.781
		c1.016,0.278,1.796,0.467,2.561,0.705c2.223,0.689,4.191,1.799,5.682,3.627c2.19,2.685,2.417,7.688,0.492,10.55
		c-0.74,1.101-1.765,1.847-2.999,2.316c-2.96,1.126-6.012,1.656-9.19,1.6c-3.786-0.064-7.574-0.015-11.407-0.015
		c-0.193-0.499-0.068-0.814,0.566-0.842c0.14-0.006,0.276-0.067,0.417-0.093c1.698-0.302,2.372-1.011,2.531-2.713
		c0.125-1.333,0.291-2.667,0.311-4.002c0.088-6.017,0.166-12.034,0.166-18.052c0-1.527-0.308-3.055-0.45-4.583
		c-0.16-1.722-1.105-2.681-2.786-2.955c-0.112-0.02-0.269,0.005-0.329-0.062c-0.138-0.151-0.314-0.35-0.307-0.522
		c0.006-0.127,0.277-0.348,0.43-0.348c0.768,0.005,1.538,0.126,2.303,0.1c2.818-0.095,5.634-0.229,8.451-0.358
		c0.133-0.006,0.261-0.095,0.392-0.145C412.601,253.338,413.058,253.338,413.515,253.338z M407.707,276.357
		c0,1.284-0.014,2.567,0.004,3.851c0.018,1.282,0.062,2.563,0.104,3.845c0.057,1.719,0.688,2.671,1.996,2.702
		c1.704,0.04,3.436,0.077,5.111-0.181c2.733-0.419,4.966-1.748,5.981-4.485c1.491-4.022-0.416-8.817-4.194-10.854
		c-2.521-1.358-5.208-1.472-7.978-1.242c-0.884,0.074-1.057,0.451-1.037,1.229C407.737,272.933,407.707,274.646,407.707,276.357z
		 M407.611,266.186c0.034,0.003,0.066,0.004,0.1,0.006c0,0.684,0.014,1.368-0.005,2.053c-0.014,0.54,0.191,0.785,0.758,0.732
		c1.5-0.135,3.023-0.134,4.5-0.396c2.418-0.431,4.292-1.724,4.78-4.254c0.268-1.388,0.303-2.927-0.001-4.301
		c-0.875-3.96-4.457-5.841-8.424-5.325c-0.824,0.107-1.128,0.657-1.168,1.429C407.975,259.482,407.792,262.834,407.611,266.186z"/>
	<path fill-rule="evenodd" clip-rule="evenodd" fill="#FFFFFF" d="M603.148,308.326c-0.929-1.22-1.777-2.512-2.802-3.646
		c-2.922-3.236-5.915-6.408-8.896-9.625c-0.062,0.072-0.158,0.131-0.158,0.19c0.019,3.308-0.022,6.619,0.093,9.924
		c0.06,1.715,0.62,2.145,2.323,2.343c0.204,0.023,0.402,0.083,0.604,0.128c-0.008,0.077-0.014,0.153-0.021,0.23
		c-2.268,0-4.534,0-6.802,0c-0.02-0.073-0.04-0.147-0.061-0.222c0.289-0.1,0.571-0.226,0.866-0.296
		c0.924-0.215,1.489-0.815,1.525-1.724c0.146-3.643,0.297-7.288,0.308-10.934c0.004-1.572-0.645-2.081-2.256-2.366
		c-0.126-0.023-0.242-0.104-0.549-0.241c0.339-0.112,0.496-0.201,0.659-0.212c3.124-0.229,3.097-0.201,5.211,2.142
		c2.903,3.22,5.853,6.398,8.786,9.589c0.143,0.156,0.322,0.281,0.585,0.506c0.046-0.341,0.101-0.553,0.099-0.764
		c-0.042-2.965-0.075-5.93-0.147-8.895c-0.036-1.514-0.449-1.909-1.982-2.129c-0.255-0.036-0.503-0.139-0.754-0.212
		c0.013-0.076,0.024-0.154,0.036-0.231c2.161,0,4.324,0,6.607,0c-0.147,0.202-0.224,0.413-0.321,0.423
		c-1.807,0.199-2.26,1.479-2.278,2.979c-0.048,4.072-0.028,8.145-0.045,12.218c-0.001,0.273-0.074,0.549-0.114,0.823
		C603.491,308.326,603.32,308.326,603.148,308.326z"/>
	<path fill-rule="evenodd" clip-rule="evenodd" fill="#FFFFFF" d="M448.29,308.326c-1.172-1.498-2.268-3.063-3.532-4.48
		c-2.583-2.896-5.255-5.711-7.893-8.559c-0.073-0.077-0.172-0.132-0.283-0.216c-0.062,0.094-0.142,0.159-0.141,0.224
		c0.036,3.337,0.027,6.676,0.143,10.012c0.054,1.558,0.609,1.998,2.171,2.196c0.234,0.029,0.466,0.07,0.798,0.122
		c-0.616,0.468-6.313,0.492-7.074,0.034c0.347-0.119,0.589-0.237,0.844-0.285c1.044-0.196,1.612-0.825,1.666-1.869
		c0.129-2.533,0.242-5.066,0.334-7.601c0.036-0.996,0.022-1.997-0.009-2.996c-0.051-1.647-0.623-2.279-2.25-2.576
		c-0.138-0.025-0.261-0.133-0.363-0.406c1.256,0,2.512-0.017,3.766,0.021c0.167,0.006,0.335,0.283,0.485,0.449
		c3.435,3.78,6.867,7.563,10.302,11.345c0.093,0.102,0.217,0.173,0.394,0.312c0.064-0.203,0.151-0.348,0.149-0.491
		c-0.039-3.108-0.062-6.219-0.146-9.326c-0.036-1.295-0.543-1.742-1.843-1.901c-0.292-0.036-0.577-0.12-0.865-0.182
		c-0.002-0.081-0.005-0.16-0.008-0.239c0.187-0.049,0.373-0.137,0.559-0.138c1.794-0.012,3.589-0.016,5.382,0.006
		c0.203,0.002,0.404,0.174,0.606,0.267c-0.172,0.11-0.331,0.285-0.517,0.321c-1.266,0.246-1.781,1.048-1.89,2.282
		c-0.385,4.354-0.512,8.707-0.109,13.067c0.019,0.195-0.105,0.404-0.162,0.606C448.632,308.326,448.461,308.326,448.29,308.326z"/>
	<path fill-rule="evenodd" clip-rule="evenodd" fill="#FFFFFF" d="M475.356,308.326c-0.425-0.144-0.852-0.281-1.274-0.434
		c-1.91-0.69-2.989-2.05-3.13-4.07c-0.092-1.335-0.045-2.68-0.068-4.02c-0.03-1.825-0.066-3.647-0.103-5.472
		c-0.029-1.487-0.128-1.616-1.547-2.092c-0.123-0.041-0.229-0.127-0.308-0.358c2.16,0,4.32,0,6.481,0
		c0.023,0.07,0.046,0.144,0.069,0.214c-0.274,0.083-0.543,0.212-0.823,0.239c-1.112,0.107-1.609,0.386-1.654,1.459
		c-0.129,3.1-0.309,6.217-0.125,9.306c0.2,3.365,2.514,4.041,5.1,3.975c0.858-0.022,1.758-0.252,2.55-0.593
		c1.604-0.688,2.361-2.073,2.379-3.75c0.031-2.815-0.039-5.633-0.139-8.448c-0.047-1.31-0.514-1.713-1.82-1.947
		c-0.25-0.045-0.489-0.155-0.734-0.234c0.014-0.076,0.026-0.151,0.039-0.228c1.938,0,3.876,0,6.041,0
		c-0.312,0.231-0.443,0.407-0.594,0.427c-1.129,0.146-1.43,0.955-1.475,1.891c-0.096,1.992-0.121,3.987-0.193,5.98
		c-0.038,1.082-0.067,2.167-0.179,3.241c-0.235,2.26-1.893,4.04-4.276,4.681c-0.212,0.057-0.414,0.154-0.621,0.233
		C477.754,308.326,476.555,308.326,475.356,308.326z"/>
	<path fill-rule="evenodd" clip-rule="evenodd" fill="#FFFFFF" d="M643.748,308.326c-1.103-0.155-2.206-0.313-3.479-0.493
		c-0.169-1.253-0.517-2.709-0.361-4.202c0.099-0.027,0.198-0.054,0.298-0.08c0.129,0.246,0.309,0.478,0.377,0.739
		c0.815,3.107,4.991,3.695,6.838,2.665c2.025-1.13,2.178-3.92,0.18-5.115c-1.534-0.917-3.223-1.572-4.805-2.413
		c-2.186-1.161-2.899-3.516-1.712-5.602c0.854-1.501,2.298-2.073,3.926-2.221c0.792-0.072,1.597-0.039,2.394,0.001
		c0.847,0.044,1.691,0.153,2.584,0.237c0.064,1.183,0.13,2.353,0.195,3.522c-0.075,0.036-0.149,0.071-0.223,0.106
		c-0.151-0.212-0.376-0.402-0.443-0.64c-0.614-2.149-2.97-2.95-4.813-2.471c-1.144,0.297-1.933,1.011-2.16,2.181
		c-0.239,1.23,0.004,2.374,1.188,3.043c1.063,0.601,2.186,1.098,3.282,1.637c0.562,0.276,1.146,0.515,1.688,0.824
		c1.983,1.126,2.773,2.788,2.34,4.851c-0.347,1.642-1.905,2.916-3.913,3.212c-0.274,0.041-0.54,0.144-0.809,0.218
		C645.462,308.326,644.604,308.326,643.748,308.326z"/>
	<path fill-rule="evenodd" clip-rule="evenodd" fill="#FFFFFF" d="M548.226,260.107c-0.087,0.723-0.205,1.443-0.253,2.17
		c-0.309,4.75-0.626,9.499-0.889,14.252c-0.119,2.134-0.152,4.274-0.163,6.413c-0.015,2.635,0.829,3.589,3.426,4.012
		c0.448,0.072,0.897,0.144,1.37,0.219c0.16,0.598-0.07,0.694-0.642,0.687c-3.106-0.036-6.215-0.022-9.322-0.021
		c-0.512,0.002-1.026,0.057-1.538,0.038c-0.185-0.008-0.363-0.162-0.545-0.248c0.164-0.158,0.303-0.388,0.497-0.459
		c0.452-0.166,0.934-0.245,1.398-0.377c1.923-0.546,2.978-1.869,3.189-3.807c0.283-2.604,0.522-5.217,0.686-7.832
		c0.281-4.552,0.525-9.107,0.705-13.665c0.046-1.179-0.096-2.395-0.354-3.546c-0.375-1.675-1.525-2.701-3.202-3.083
		c-0.828-0.188-1.671-0.313-2.557-0.476c0-0.229,0-0.472,0-0.639c1.391,0,2.748-0.019,4.104,0.005
		c1.682,0.029,3.363,0.07,5.043,0.163c0.288,0.017,0.724,0.253,0.817,0.493c2.666,6.852,6.438,13.147,9.812,19.645
		c1.062,2.047,2.173,4.066,3.353,6.268c0.318-0.507,0.588-0.883,0.803-1.286c3.461-6.49,6.919-12.982,10.366-19.48
		c0.895-1.687,1.759-3.389,2.614-5.096c0.195-0.39,0.382-0.615,0.886-0.604c2.055,0.041,4.111,0.011,6.166,0.047
		c0.264,0.005,0.521,0.239,0.782,0.366c-0.246,0.177-0.47,0.423-0.743,0.513c-0.4,0.133-0.839,0.143-1.258,0.224
		c-1.566,0.305-2.394,1.147-2.614,2.742c-0.111,0.816-0.195,1.647-0.179,2.47c0.116,5.989,0.236,11.979,0.412,17.967
		c0.056,1.876,0.22,3.756,0.445,5.62c0.226,1.854,1.172,2.63,3.051,2.854c0.417,0.05,1.154-0.237,1.162,0.564
		c0.002,0.108-0.777,0.32-1.194,0.323c-3.849,0.025-7.697,0.015-11.663,0.015c-0.129-0.308-0.025-0.652,0.581-0.762
		c0.167-0.031,0.328-0.092,0.491-0.143c2.647-0.817,3.668-1.978,3.694-4.737c0.043-4.358-0.025-8.72-0.146-13.077
		c-0.071-2.562-0.331-5.116-0.518-7.674c-0.024-0.33-0.113-0.656-0.184-1.053c-0.145,0.109-0.23,0.141-0.263,0.201
		c-4.052,7.721-8.439,15.271-11.922,23.284c-0.486,1.122-0.871,2.288-1.342,3.418c-0.088,0.214-0.358,0.496-0.537,0.491
		c-0.184-0.007-0.459-0.294-0.523-0.511c-1.883-6.309-5.279-11.913-8.246-17.717c-1.453-2.843-2.946-5.665-4.424-8.494
		c-0.127-0.246-0.278-0.479-0.417-0.719C548.369,260.079,548.297,260.094,548.226,260.107z"/>
	<path fill-rule="evenodd" clip-rule="evenodd" fill="#FFFFFF" d="M435.503,271.289c0,3.401-0.036,6.675,0.018,9.946
		c0.022,1.334,0.206,2.668,0.392,3.991c0.037,0.265,0.38,0.622,0.65,0.698c3.122,0.894,6.317,0.773,9.51,0.601
		c0.851-0.046,1.701-0.173,2.542-0.313c3.115-0.517,5.214-2.269,6.311-5.233c0.265-0.718,0.293-0.707,0.955-0.628
		c-0.323,2.461-0.877,4.856-1.853,7.148c-0.185,0.435-0.449,0.574-0.916,0.562c-2.937-0.075-5.875-0.157-8.813-0.167
		c-3.849-0.013-7.698,0.043-11.547,0.064c-1.618,0.008-3.236,0.001-5.109,0.001c0.323-0.289,0.543-0.486,0.767-0.682
		c0.019-0.017,0.054-0.015,0.082-0.022c2.787-0.69,2.659-0.745,3.03-3.727c0.208-1.666,0.333-3.354,0.329-5.032
		c-0.014-6.729-0.088-13.458-0.155-20.187c-0.005-0.51-0.108-1.021-0.191-1.526c-0.205-1.248-0.963-1.952-2.186-2.197
		c-0.277-0.056-0.554-0.137-0.811-0.252c-0.094-0.042-0.188-0.226-0.172-0.33c0.014-0.096,0.164-0.226,0.271-0.244
		c0.221-0.04,0.454-0.02,0.683-0.02c6.88-0.01,13.76-0.02,20.64-0.028c1.221-0.002,2.442,0,3.826,0
		c-0.066,0.872-0.098,1.825-0.221,2.768c-0.136,1.041-0.32,2.08-0.562,3.104c-0.06,0.253-0.419,0.438-0.641,0.653
		c-0.127-0.3-0.383-0.609-0.359-0.896c0.246-2.915-0.347-3.696-3.236-4.142c-3.294-0.509-6.593-0.388-9.893-0.064
		c-0.709,0.07-1.417,0.18-2.126,0.193c-0.611,0.014-0.79,0.321-0.806,0.854c-0.114,3.619-0.238,7.237-0.348,10.856
		c-0.022,0.742-0.03,1.486,0.026,2.225c0.015,0.198,0.292,0.541,0.446,0.538c3.935-0.049,7.87-0.125,11.804-0.222
		c1.077-0.026,1.703-0.681,2.037-1.66c0.147-0.431,0.276-0.873,0.473-1.281c0.103-0.213,0.332-0.366,0.504-0.548
		c0.1,0.233,0.284,0.467,0.287,0.701c0.021,1.884,0.007,3.769,0.005,5.652c-0.001,1.109,0,2.218,0,3.323
		c-0.587,0.262-0.863,0.093-0.906-0.481c-0.025-0.341-0.036-0.685-0.08-1.023c-0.217-1.688-1.168-2.715-2.857-2.907
		C443.439,270.917,439.572,270.91,435.503,271.289z"/>
	<path fill-rule="evenodd" clip-rule="evenodd" fill="#FFFFFF" d="M609.783,275.805c-0.073-0.578-0.111-1.091-0.209-1.592
		c-0.372-1.895-1.059-2.711-2.962-2.869c-2.606-0.215-5.232-0.199-7.852-0.26c-1.191-0.028-2.383-0.006-3.662-0.006
		c-0.076,1.458-0.213,2.672-0.188,3.884c0.065,3.191,0.215,6.381,0.301,9.57c0.025,0.933,0.376,1.402,1.351,1.588
		c3.829,0.731,7.656,0.684,11.483,0.091c3.113-0.482,5.225-2.239,6.331-5.207c0.12-0.322,0.419-0.58,0.634-0.867
		c0.113,0.056,0.228,0.113,0.34,0.169c-0.16,0.934-0.248,1.889-0.497,2.798c-0.405,1.479-0.89,2.938-1.408,4.381
		c-0.091,0.252-0.519,0.544-0.788,0.543c-2.938-0.016-5.876-0.122-8.814-0.132c-3.85-0.013-7.699,0.027-11.548,0.067
		c-1.426,0.015-2.85,0.111-4.275,0.127c-0.242,0.003-0.487-0.215-0.732-0.329c0.189-0.161,0.356-0.417,0.572-0.472
		c2.962-0.743,2.803-0.792,3.126-3.922c0.279-2.69,0.36-5.409,0.385-8.116c0.042-4.447-0.01-8.896-0.068-13.344
		c-0.021-1.565-0.15-3.13-0.28-4.692c-0.113-1.346-0.725-2.328-2.164-2.598c-0.222-0.042-0.464-0.07-0.653-0.179
		c-0.167-0.097-0.274-0.297-0.407-0.451c0.157-0.083,0.306-0.201,0.473-0.237c0.191-0.041,0.397-0.01,0.598-0.01
		c6.852-0.01,13.703-0.012,20.556-0.035c1.219-0.005,2.438-0.101,3.811-0.162c-0.072,0.937-0.099,1.778-0.209,2.61
		c-0.15,1.126-0.329,2.252-0.578,3.361c-0.062,0.269-0.448,0.465-0.686,0.695c-0.112-0.28-0.227-0.559-0.333-0.842
		c-0.019-0.049-0.001-0.113,0.004-0.17c0.228-2.779-0.385-3.553-3.212-3.997c-3.264-0.514-6.537-0.387-9.81-0.083
		c-0.794,0.073-1.593,0.118-2.377,0.251c-0.232,0.039-0.578,0.317-0.604,0.521c-0.579,4.569-0.507,9.157-0.34,13.747
		c0.001,0.022,0.03,0.045,0.045,0.067c0.046,0.031,0.094,0.087,0.14,0.086c4.046-0.076,8.093-0.149,12.14-0.239
		c0.987-0.022,1.544-0.63,1.863-1.505c0.186-0.508,0.339-1.029,0.563-1.519c0.084-0.183,0.325-0.292,0.495-0.437
		c0.097,0.179,0.278,0.357,0.279,0.537c0.016,2.112,0.014,4.226,0,6.337c-0.006,0.77-0.067,1.538-0.079,2.308
		C610.524,275.793,610.345,276.03,609.783,275.805z"/>
	<path fill-rule="evenodd" clip-rule="evenodd" fill="#FFFFFF" d="M509.67,253.947c0.329-0.069,0.658-0.197,0.987-0.199
		c6.366-0.015,12.732-0.016,19.099-0.018c1.79,0,3.581,0,5.494,0c-0.125,1.197-0.23,2.487-0.402,3.77
		c-0.101,0.757-0.271,1.511-0.485,2.246c-0.059,0.201-0.38,0.328-0.581,0.489c-0.115-0.229-0.305-0.448-0.33-0.687
		c-0.039-0.364,0.021-0.74,0.062-1.108c0.165-1.525-0.396-2.561-1.894-2.88c-1.717-0.365-3.488-0.672-5.235-0.668
		c-2.786,0.006-5.575,0.276-8.358,0.481c-0.215,0.016-0.555,0.385-0.58,0.616c-0.198,1.927-0.416,3.856-0.473,5.791
		c-0.068,2.396,0.027,4.794,0.018,7.191c-0.004,0.664,0.223,0.893,0.896,0.876c3.594-0.084,7.188-0.133,10.781-0.186
		c1.416-0.021,2.398-0.604,2.773-2.038c0.092-0.356,0.198-0.719,0.36-1.047c0.096-0.193,0.315-0.325,0.479-0.484
		c0.102,0.21,0.291,0.42,0.291,0.631c0.005,2.883-0.012,5.766-0.051,8.647c-0.002,0.174-0.247,0.346-0.379,0.519
		c-0.132-0.174-0.317-0.329-0.383-0.525c-0.095-0.293-0.112-0.614-0.153-0.925c-0.263-1.966-0.992-2.872-2.938-3.095
		c-3.629-0.415-7.277-0.449-10.924-0.12c-0.538,0.048-0.751,0.249-0.755,0.78c-0.042,4.391-0.299,8.787,0.328,13.158
		c0.041,0.288,0.418,0.675,0.713,0.76c3.149,0.912,6.377,0.81,9.593,0.578c1.324-0.096,2.65-0.367,3.937-0.704
		c2.307-0.605,3.694-2.257,4.618-4.363c0.138-0.313,0.234-0.65,0.413-0.937c0.079-0.13,0.336-0.248,0.472-0.214
		c0.113,0.028,0.264,0.316,0.229,0.445c-0.61,2.303-1.232,4.604-1.901,6.891c-0.058,0.196-0.465,0.416-0.709,0.414
		c-3.309-0.029-6.617-0.129-9.926-0.144c-3.507-0.016-7.013,0.03-10.52,0.072c-1.396,0.017-2.792,0.105-4.189,0.128
		c-0.235,0.004-0.474-0.171-0.71-0.263c0.191-0.188,0.351-0.48,0.576-0.547c2.325-0.682,2.728-0.326,3.023-3.64
		c0.598-6.688,0.643-13.385,0.344-20.089c-0.078-1.767-0.105-3.534-0.182-5.301c-0.113-2.662-0.438-3.065-2.973-3.821
		c-0.135-0.038-0.258-0.112-0.387-0.169C509.715,254.157,509.691,254.052,509.67,253.947z"/>
	<path fill-rule="evenodd" clip-rule="evenodd" fill="#FFFFFF" d="M480.103,253.699c0,2.605,0,5.063,0,7.74
		c-0.226-0.213-0.542-0.365-0.565-0.552c-0.407-3.396-3.083-5.62-6.61-6.187c-1.42-0.229-2.919-0.315-4.337-0.127
		c-2.917,0.39-4.302,1.424-5.245,5.14c-0.78,3.078,0.561,5.77,3.526,7.2c2.459,1.185,5.017,2.168,7.528,3.248
		c1.957,0.843,3.706,1.946,5.161,3.562c2.959,3.286,2.895,10.163-2.543,12.951c-2.84,1.457-5.882,1.778-8.981,1.47
		c-2.087-0.209-4.145-0.704-6.22-1.049c-0.504-0.083-1.096-0.313-1.292,0.527c-0.037,0.159-0.461,0.228-0.659,0.316
		c-0.518-3.007-1.013-5.883-1.52-8.824c0.35-0.245,0.571-0.132,0.727,0.399c0.224,0.763,0.522,1.505,0.805,2.249
		c0.488,1.287,1.369,2.215,2.594,2.831c2.571,1.294,5.254,2.196,8.154,2.318c1.922,0.082,3.736-0.353,5.415-1.292
		c0.893-0.499,1.433-1.317,1.702-2.273c0.919-3.272,0.243-7.066-3.405-8.953c-1.664-0.861-3.438-1.506-5.154-2.27
		c-1.586-0.706-3.209-1.35-4.728-2.181c-3.203-1.752-4.848-4.459-4.441-8.168c0.393-3.588,2.409-6.018,5.721-7.361
		c2.639-1.068,5.412-1.003,8.178-0.759c1.159,0.102,2.296,0.443,3.455,0.532c0.678,0.052,1.379-0.171,2.067-0.29
		C479.673,253.858,479.9,253.762,480.103,253.699z"/>
	<path fill-rule="evenodd" clip-rule="evenodd" fill="#FFFFFF" d="M485.292,287.875c-0.51-3.004-0.993-5.851-1.488-8.773
		c0.04-0.014,0.22-0.081,0.421-0.155c0.06,0.072,0.132,0.125,0.156,0.195c0.322,0.882,0.621,1.772,0.959,2.649
		c0.471,1.219,1.291,2.142,2.457,2.74c2.689,1.384,5.515,2.326,8.563,2.395c1.793,0.041,3.501-0.4,5.083-1.271
		c0.871-0.478,1.411-1.238,1.703-2.165c0.524-1.675,0.525-3.367,0.061-5.055c-0.555-2.015-1.934-3.352-3.738-4.224
		c-1.715-0.83-3.517-1.475-5.255-2.259c-1.659-0.747-3.356-1.448-4.911-2.38c-5.751-3.445-4.725-11.449,0.378-14.435
		c1.659-0.971,3.468-1.45,5.363-1.565c2.426-0.147,4.845-0.022,7.226,0.518c0.977,0.222,1.909,0.275,2.81-0.271
		c0.164-0.101,0.413-0.062,0.599-0.083c-0.074,1.753-0.17,3.421-0.204,5.09c-0.015,0.68,0.124,1.361,0.151,2.044
		c0.006,0.145-0.172,0.296-0.266,0.443c-0.119-0.125-0.293-0.232-0.346-0.382c-0.103-0.293-0.127-0.612-0.203-0.916
		c-0.607-2.43-2.258-3.927-4.49-4.796c-2.284-0.889-4.68-1.003-7.069-0.52c-2.501,0.505-4.337,2.875-4.595,5.631
		c-0.287,3.081,1.008,5.292,3.71,6.597c2.588,1.251,5.276,2.287,7.914,3.434c2.02,0.876,3.776,2.09,5.126,3.876
		c2.418,3.202,2.15,8.844-1.674,11.632c-2.262,1.649-4.842,2.222-7.555,2.348c-2.926,0.136-5.791-0.323-8.62-1.04
		c-0.658-0.166-1.354-0.46-1.679,0.539C485.836,287.847,485.4,287.849,485.292,287.875z"/>
	<path fill-rule="evenodd" clip-rule="evenodd" fill="#FFFFFF" d="M504.102,307.851c-0.246,0.087-0.488,0.229-0.74,0.25
		c-2.25,0.188-4.122-0.63-5.479-2.384c-1.006-1.3-1.826-2.746-2.67-4.162c-0.285-0.48-0.574-0.699-1.14-0.654
		c-0.674,0.053-1.355,0.012-2.061,0.012c0,1.88-0.054,3.666,0.046,5.442c0.02,0.353,0.58,0.757,0.978,0.986
		c0.357,0.208,0.835,0.21,1.26,0.303c-0.009,0.075-0.017,0.148-0.024,0.224c-2.154,0-4.309,0-6.463,0
		c-0.017-0.068-0.034-0.135-0.051-0.203c0.232-0.071,0.463-0.155,0.7-0.21c0.804-0.189,1.348-0.618,1.366-1.507
		c0.055-2.594,0.12-5.187,0.141-7.779c0.014-1.453-0.043-2.907-0.086-4.361c-0.025-0.888-0.422-1.452-1.385-1.505
		c-0.17-0.01-0.332-0.133-0.48-0.366c0.775-0.053,1.551-0.139,2.328-0.153c1.795-0.031,3.594-0.09,5.387-0.024
		c2.363,0.085,3.881,1.281,4.339,3.27c0.472,2.049-0.448,3.891-2.505,5.015c-0.17,0.093-0.33,0.206-0.615,0.385
		C498.801,303.363,499.914,306.916,504.102,307.851z M491.945,296.576c-0.008,0-0.016,0-0.024,0c0,0.598,0.005,1.196-0.001,1.794
		c-0.016,1.931,0.086,2.029,2.033,1.947c0.115-0.004,0.229-0.009,0.342-0.02c1.984-0.219,3.23-1.079,3.453-2.723
		c0.138-1.03-0.029-2.146-0.273-3.172c-0.236-0.996-1.053-1.631-2.049-1.866c-0.68-0.16-1.402-0.181-2.107-0.187
		c-1.009-0.006-1.332,0.313-1.366,1.321C491.92,294.639,491.945,295.607,491.945,296.576z"/>
	<path fill-rule="evenodd" clip-rule="evenodd" fill="#FFFFFF" d="M622.979,307.703c0.408-0.128,0.707-0.234,1.014-0.317
		c0.676-0.184,1.105-0.586,1.149-1.31c0.063-1.05,0.143-2.103,0.148-3.154c0.016-2.74-0.001-5.479-0.016-8.219
		c0-0.367-0.062-0.737-0.091-1.105c-0.06-0.762-0.435-1.205-1.226-1.273c-0.214-0.019-0.421-0.121-0.632-0.379
		c0.765-0.055,1.528-0.143,2.294-0.159c1.739-0.038,3.481-0.109,5.217-0.038c2.611,0.106,4.142,1.266,4.583,3.308
		c0.454,2.11-0.482,3.865-2.706,5.077c-0.097,0.053-0.186,0.123-0.412,0.276c1.81,2.975,2.961,6.501,7.139,7.421
		c-0.235,0.092-0.465,0.247-0.707,0.268c-2.175,0.192-4.035-0.537-5.374-2.229c-1.055-1.331-1.921-2.819-2.792-4.286
		c-0.308-0.52-0.614-0.727-1.2-0.681c-0.65,0.05-1.307,0.012-2.124,0.012c0,0.555-0.002,1.052,0,1.551
		c0.003,0.97-0.002,1.94,0.013,2.91c0.024,1.63,0.297,1.931,1.89,2.146c0.155,0.021,0.306,0.075,0.496,0.124
		C629.174,308.062,623.826,308.129,622.979,307.703z M627.272,296.613c-0.006,0-0.013,0-0.019,0c0,0.541,0,1.082,0,1.623
		c-0.001,2.08,0.146,2.237,2.24,2.064c1.479-0.123,2.87-0.548,3.413-2.111c0.565-1.628,0.528-3.275-0.626-4.679
		c-0.356-0.434-0.93-0.773-1.472-0.95c-0.604-0.196-1.284-0.206-1.931-0.213c-1.299-0.016-1.587,0.293-1.604,1.616
		C627.264,294.848,627.272,295.73,627.272,296.613z"/>
	<path fill-rule="evenodd" clip-rule="evenodd" fill="#FFFFFF" d="M561.722,307.862c-2.152,0-4.305,0-6.48,0
		c0.033-0.166,0.035-0.218,0.044-0.219c1.615-0.23,2.099-1.235,2.074-2.762c-0.053-3.335-0.009-6.67-0.009-10.006
		c0-0.226-0.044-0.453-0.051-0.681c-0.039-1.442-0.127-1.554-1.502-1.925c-0.105-0.029-0.2-0.088-0.309-0.316
		c0.753-0.06,1.506-0.157,2.26-0.172c1.768-0.036,3.537-0.096,5.303-0.028c2.382,0.089,4.033,1.3,4.403,3.086
		c0.488,2.354-0.344,4.04-2.603,5.272c-0.099,0.055-0.193,0.119-0.396,0.247c0.698,1.643,1.626,3.15,2.709,4.572
		c1.117,1.467,2.44,2.603,4.452,2.664c-0.012,0.09-0.025,0.177-0.036,0.267c-0.264,0.082-0.522,0.216-0.791,0.238
		c-2.104,0.176-3.936-0.501-5.247-2.131c-1.082-1.345-1.966-2.854-2.863-4.338c-0.322-0.532-0.634-0.756-1.265-0.731
		c-2.183,0.079-2.193,0.056-2.146,2.256c0.02,0.882,0.085,1.763,0.137,2.646c0.072,1.195,0.322,1.474,1.496,1.683
		c0.286,0.05,0.574,0.088,0.861,0.131C561.75,307.697,561.735,307.78,561.722,307.862z M561.293,292.336
		c-1.438,0-1.839,0.2-1.866,1.058c-0.063,2.049-0.089,4.1-0.106,6.149c-0.001,0.191,0.099,0.479,0.244,0.565
		c1.312,0.771,4.46-0.097,5.22-1.468c0.836-1.513,0.758-3.092-0.024-4.584C564.043,292.69,562.758,292.288,561.293,292.336z"/>
	<path fill-rule="evenodd" clip-rule="evenodd" fill="#FFFFFF" d="M618.988,297.115c0,0.385,0.001,0.768,0,1.152
		c-0.004,1.054,0,2.105-0.021,3.158c-0.005,0.222-0.099,0.441-0.152,0.663c-0.126-0.176-0.325-0.337-0.362-0.53
		c-0.171-0.904-0.684-1.454-1.598-1.512c-1.422-0.088-2.847-0.128-4.271-0.137c-0.181-0.001-0.524,0.306-0.524,0.47
		c0.001,1.938,0.055,3.876,0.091,5.813c0.011,0.574,0.369,0.813,0.871,0.867c1.796,0.19,3.589,0.209,5.333-0.34
		c1.041-0.33,1.559-1.183,1.968-2.126c0.114-0.264,0.305-0.494,0.459-0.737c0.112,0.044,0.224,0.09,0.335,0.135
		c-0.205,0.977-0.392,1.956-0.622,2.926c-0.293,1.229-0.306,1.133-1.605,1.12c-3.393-0.038-6.787,0.018-10.181,0.028
		c-0.285,0.002-0.57-0.048-0.855-0.074c-0.011-0.089-0.022-0.178-0.034-0.267c0.202-0.068,0.401-0.17,0.609-0.201
		c1.104-0.157,1.367-0.386,1.55-1.472c0.057-0.336,0.067-0.682,0.068-1.023c0.003-3.539,0.013-7.08-0.006-10.62
		c-0.008-1.662-0.033-1.66-1.617-2.097c-0.132-0.036-0.254-0.107-0.38-0.161c0.049-0.09,0.098-0.178,0.146-0.266
		c4.034,0,8.066,0,12.203,0c-0.059,1.107-0.113,2.257-0.191,3.405c-0.007,0.101-0.158,0.189-0.243,0.285
		c-0.107-0.104-0.266-0.19-0.309-0.315c-0.071-0.212-0.063-0.449-0.103-0.675c-0.222-1.287-0.637-1.776-1.935-1.855
		c-1.589-0.096-3.187-0.033-4.781-0.039c-0.545-0.001-0.78,0.334-0.784,0.815c-0.02,1.685-0.031,3.37,0.01,5.053
		c0.006,0.192,0.353,0.532,0.547,0.538c1.397,0.038,2.799,0.055,4.195-0.017c1.098-0.058,1.418-0.416,1.666-1.474
		c0.046-0.195,0.166-0.373,0.253-0.561C618.808,297.071,618.898,297.093,618.988,297.115z"/>
	<path fill-rule="evenodd" clip-rule="evenodd" fill="#FFFFFF" d="M515.471,297.102c0,1.647,0,3.295,0,4.942
		c-0.056,0.031-0.111,0.063-0.166,0.096c-0.107-0.187-0.283-0.363-0.314-0.562c-0.143-0.917-0.667-1.463-1.573-1.524
		c-1.42-0.098-2.845-0.137-4.269-0.142c-0.193-0.001-0.558,0.341-0.558,0.521c0.002,1.91,0.065,3.82,0.104,5.73
		c0.012,0.562,0.329,0.838,0.842,0.895c1.797,0.197,3.591,0.212,5.336-0.324c1.036-0.318,1.588-1.148,1.986-2.105
		c0.114-0.273,0.311-0.512,0.469-0.767c0.102,0.042,0.203,0.082,0.305,0.124c-0.132,0.728-0.238,1.461-0.4,2.184
		c-0.418,1.861-0.428,1.833-2.297,1.839c-3.308,0.008-6.615,0.057-9.923,0.076c-0.215,0.001-0.429-0.101-0.645-0.154
		c0.002-0.089,0.004-0.175,0.006-0.262c0.276-0.055,0.551-0.119,0.828-0.165c0.683-0.113,1.177-0.42,1.257-1.175
		c0.041-0.396,0.117-0.791,0.119-1.188c0.01-3.597,0.01-7.191,0.003-10.788c-0.003-1.601-0.031-1.625-1.583-2.032
		c-0.155-0.04-0.303-0.111-0.455-0.168c0.063-0.096,0.125-0.19,0.188-0.285c4.04,0,8.081,0,12.218,0
		c-0.068,1.153-0.131,2.308-0.217,3.461c-0.007,0.088-0.184,0.232-0.275,0.229c-0.095-0.004-0.234-0.145-0.263-0.251
		c-0.058-0.218-0.042-0.453-0.078-0.678c-0.206-1.285-0.638-1.812-1.911-1.893c-1.615-0.103-3.242-0.034-4.864-0.042
		c-0.576-0.003-0.745,0.406-0.753,0.849c-0.029,1.683-0.037,3.366,0.004,5.05c0.004,0.182,0.371,0.502,0.576,0.508
		c1.369,0.038,2.74,0.047,4.108-0.012c1.126-0.049,1.454-0.388,1.745-1.496c0.045-0.178,0.148-0.341,0.225-0.512
		C515.32,297.088,515.396,297.094,515.471,297.102z"/>
	<path fill-rule="evenodd" clip-rule="evenodd" fill="#FFFFFF" d="M430.403,291.831c-0.127,1.265-0.25,2.489-0.374,3.712
		c-0.083,0.026-0.166,0.054-0.249,0.08c-0.094-0.229-0.248-0.454-0.27-0.69c-0.154-1.626-0.677-2.181-2.304-2.236
		c-1.42-0.05-2.845-0.002-4.267-0.019c-0.637-0.007-0.953,0.265-0.958,0.906c-0.012,1.654-0.03,3.309-0.047,4.962
		c-0.004,0.437,0.214,0.592,0.642,0.586c0.999-0.019,1.998-0.004,2.997-0.006c2.224-0.006,2.312-0.064,3.037-2.007
		c0.335,0.384,0.411,4.154,0.056,5.061c-0.118-0.223-0.248-0.369-0.272-0.532c-0.16-1.079-0.828-1.595-1.863-1.646
		c-1.337-0.064-2.677-0.103-4.015-0.092c-0.195,0.003-0.554,0.344-0.555,0.527c-0.006,1.909,0.013,3.82,0.117,5.727
		c0.017,0.301,0.461,0.782,0.765,0.833c1.87,0.311,3.748,0.292,5.563-0.335c0.925-0.319,1.423-1.092,1.793-1.957
		c0.123-0.286,0.297-0.55,0.448-0.823c0.101,0.028,0.201,0.056,0.303,0.084c-0.06,0.473-0.095,0.95-0.182,1.418
		c-0.515,2.747-0.517,2.669-3.266,2.616c-2.991-0.056-5.985,0.056-8.978,0.077c-0.22,0.001-0.439-0.136-0.659-0.208
		c0.184-0.117,0.354-0.306,0.552-0.339c1.118-0.19,1.481-0.546,1.486-1.705c0.017-4.018,0.014-8.037,0.004-12.055
		c-0.002-1.112-0.203-1.301-1.338-1.436c-0.137-0.017-0.272-0.056-0.403-0.102c-0.043-0.016-0.067-0.085-0.191-0.256
		c0.25-0.079,0.454-0.199,0.657-0.2c3.761-0.01,7.522-0.009,11.284-0.005C430.052,291.772,430.188,291.805,430.403,291.831z"/>
	<path fill-rule="evenodd" clip-rule="evenodd" fill="#FFFFFF" d="M531.976,307.883c-2.204,0-4.407,0-6.61,0
		c-0.021-0.048-0.042-0.096-0.062-0.143c0.176-0.074,0.344-0.174,0.525-0.216c1.084-0.256,1.602-0.715,1.627-1.79
		c0.092-4.047,0.125-8.097,0.172-12.145c0.008-0.742-0.374-1.156-1.125-1.249c-0.309-0.039-0.608-0.156-0.912-0.237
		c0.006-0.069,0.013-0.138,0.02-0.208c0.17-0.041,0.34-0.119,0.512-0.119c2.366-0.015,4.734-0.066,7.101-0.008
		c2.269,0.055,4.156,1.422,4.75,3.296c0.688,2.174-0.206,4.334-2.29,5.525c-1.594,0.908-3.334,1.13-5.123,1.01
		c-0.822-0.056-1.137,0.195-1.064,1.035c0.094,1.077,0.053,2.167,0.173,3.242c0.14,1.257,0.454,1.493,1.766,1.634
		c0.183,0.02,0.363,0.072,0.544,0.11C531.977,307.708,531.976,307.795,531.976,307.883z M535.921,296.69
		c-0.042-0.396-0.041-0.802-0.137-1.184c-0.58-2.343-2.59-3.524-5.284-3.182c-0.633,0.079-0.896,0.335-0.898,0.978
		c-0.011,1.852-0.079,3.702-0.093,5.554c-0.018,2.396-0.005,2.396,2.401,2.15C534.309,300.762,535.886,299.052,535.921,296.69z"/>
	<path fill-rule="evenodd" clip-rule="evenodd" fill="#FFFFFF" d="M542.916,307.865c-1.645,0-3.288,0-4.894,0
		c2.589-2.735,3.4-6.397,5.012-9.632c0.937-1.881,1.66-3.869,2.429-5.829c0.237-0.607,0.715-0.656,1.163-0.602
		c0.241,0.028,0.532,0.395,0.638,0.67c1.763,4.599,3.477,9.213,5.269,13.797c0.202,0.517,0.813,0.869,1.227,1.304
		c0.086,0.091,0.137,0.218,0.314,0.508c-0.443,0-0.735,0.001-1.025,0c-1.309-0.003-2.618,0.007-3.926-0.019
		c-0.241-0.006-0.479-0.147-0.718-0.228c0.195-0.104,0.381-0.271,0.587-0.305c1.072-0.175,1.362-0.539,1.056-1.566
		c-0.333-1.118-0.713-2.226-1.15-3.305c-0.101-0.251-0.511-0.526-0.785-0.534c-1.711-0.049-3.424-0.044-5.135-0.004
		c-0.268,0.008-0.676,0.228-0.767,0.45c-0.428,1.052-0.812,2.125-1.124,3.217c-0.289,1.012,0.056,1.487,1.082,1.693
		c0.256,0.051,0.518,0.085,0.775,0.127C542.935,307.695,542.926,307.78,542.916,307.865z M548.491,301.302
		c-0.923-2.452-1.783-4.74-2.645-7.029c-0.088,0-0.176-0.001-0.264-0.001c-0.954,2.306-1.907,4.61-2.908,7.03
		C544.688,301.302,546.495,301.302,548.491,301.302z"/>
	<path fill-rule="evenodd" clip-rule="evenodd" fill="#FFFFFF" d="M570.879,295.365c-0.136-1.297,0.359-2.491,0.58-3.651
		c5.121,0.542,10.113,0.275,15.199,0.1c-0.141,1.206-0.411,2.422-0.912,3.572c-0.103-0.011-0.205-0.021-0.308-0.032
		c-0.027-0.258-0.069-0.512-0.079-0.769c-0.042-1.017-0.43-1.481-1.438-1.549c-1.166-0.075-2.336-0.069-3.503-0.109
		c-0.52-0.017-0.78,0.163-0.778,0.739c0.013,3.909-0.025,7.82,0.017,11.729c0.016,1.435,0.448,1.828,1.866,2.081
		c0.267,0.047,0.536,0.079,0.866,0.128c-0.468,0.45-6.907,0.484-7.519,0.045c0.472-0.106,0.865-0.218,1.268-0.282
		c0.872-0.139,1.33-0.694,1.347-1.517c0.085-4.106,0.139-8.214,0.16-12.321c0.002-0.212-0.384-0.611-0.584-0.609
		c-1.25,0.019-2.504,0.094-3.748,0.217c-0.947,0.094-1.538,0.663-1.806,1.586c-0.074,0.26-0.254,0.488-0.386,0.731
		C571.04,295.424,570.959,295.396,570.879,295.365z"/>
	<path fill-rule="evenodd" clip-rule="evenodd" fill="#FFFFFF" d="M463.674,307.871c-2.47,0-4.939,0-7.408,0
		c-0.009-0.079-0.017-0.158-0.025-0.237c0.451-0.097,0.901-0.192,1.353-0.288c0.697-0.145,1.101-0.574,1.191-1.273
		c0.073-0.563,0.145-1.132,0.155-1.698c0.052-2.88,0.09-5.76,0.12-8.64c0.005-0.538-0.041-1.08-0.085-1.619
		c-0.101-1.229-0.106-1.241-1.377-1.189c-0.938,0.039-1.88,0.071-2.812,0.178c-0.99,0.112-1.683,0.633-1.944,1.651
		c-0.063,0.246-0.23,0.466-0.379,0.758c-0.415-0.602-0.11-2.701,0.425-3.788c5.045,0.529,10.059,0.27,15.151,0.079
		c-0.265,1.197-0.366,2.475-1.028,3.569c-0.081-0.019-0.162-0.036-0.242-0.054c-0.035-0.102-0.093-0.2-0.101-0.304
		c-0.135-1.775-0.216-1.901-1.999-2.048c-1.02-0.084-2.053-0.058-3.078-0.009c-0.207,0.01-0.57,0.345-0.571,0.531
		c-0.019,4.047-0.052,8.097,0.051,12.143c0.036,1.406,0.43,1.626,1.862,1.861c0.262,0.043,0.519,0.119,0.779,0.178
		C463.698,307.738,463.686,307.805,463.674,307.871z"/>
	<path fill-rule="evenodd" clip-rule="evenodd" fill="#FFFFFF" d="M417.152,291.903c-2.01,1.758-2.62,4.193-3.699,6.35
		c-1.082,2.164-2.039,4.39-3.03,6.599c-0.361,0.804-0.723,1.616-0.973,2.458c-0.178,0.604-0.604,0.785-1.07,0.738
		c-0.22-0.022-0.464-0.459-0.58-0.755c-1.75-4.447-3.454-8.912-5.24-13.346c-0.3-0.743-0.938-1.354-1.424-2.03
		c1.782,0,3.611,0,5.44,0c0.009,0.095,0.018,0.189,0.025,0.286c-0.245,0.047-0.487,0.112-0.734,0.142
		c-0.913,0.106-1.274,0.502-0.985,1.36c0.797,2.371,1.662,4.721,2.525,7.068c0.567,1.541,1.179,3.065,1.821,4.729
		c0.177-0.264,0.303-0.398,0.371-0.56c1.346-3.17,2.685-6.344,4.024-9.519c0.088-0.209,0.173-0.421,0.243-0.639
		c0.479-1.509,0.771-2.396-1.509-2.461c-0.167-0.004-0.33-0.14-0.469-0.421C413.588,291.903,415.289,291.903,417.152,291.903z"/>
	<g>
		<path fill="#FFFFFF" d="M322.672,280.975c5.326-2.925,8.384-7.338,9.004-13.432c0.417-4.092,0.409-8.156-0.822-12.107
			c-2.016-6.471-6.26-10.92-12.549-13.432c-0.359-0.143-0.693-0.348-1.038-0.523h-14.4v42.719c2.907-0.17,5.821-0.258,8.719-0.533
			C315.401,283.307,319.217,282.871,322.672,280.975z"/>
		<path fill="#FFFFFF" d="M334.067,241.48c5.343,3.858,8.879,8.899,10.049,15.463c1.898,10.656-2.67,19.885-12.356,24.787
			c-2.393,1.211-4.931,2.137-7.319,3.156c2.347,0.621,4.83,1.195,7.262,1.938c6.379,1.943,12.051,5.104,16.632,10.033
			c4.391,4.725,6.386,10.428,6.631,16.783c0.062,1.621-0.165,3.252-0.258,4.879h23.25V241.48H334.067z"/>
		<path fill="#FFFFFF" d="M340.414,305.596c-3.564-9.271-10.543-14.566-19.916-17.016c-5.169-1.352-10.447-1.174-15.721-0.881
			c-0.637,0.035-1.273,0.066-1.91,0.1v30.721h39.36C342.538,314.084,342.017,309.764,340.414,305.596z"/>
	</g>
</g>
</svg>
