<?xml version="1.0" encoding="utf-8"?>
<!-- Generator: Adobe Illustrator 16.0.0, SVG Export Plug-In . SVG Version: 6.00 Build 0)  -->
<!DOCTYPE svg PUBLIC "-//W3C//DTD SVG 1.1//EN" "http://www.w3.org/Graphics/SVG/1.1/DTD/svg11.dtd">
<svg version="1.1" id="Layer_1" xmlns="http://www.w3.org/2000/svg" xmlns:xlink="http://www.w3.org/1999/xlink" x="0px" y="0px"
	 width="1335.416px" height="338.312px" viewBox="1867.732 91.778 1335.416 338.312"
	 enable-background="new 1867.732 91.778 1335.416 338.312" xml:space="preserve">
<path fill="#004697" d="M3220.011,91.817c-66.469,45.262-138.662,79.594-217.319,101.701
	c-50.901,14.305-102.819,23.389-155.719,28.078c-35.894,3.18-71.829,4.494-107.812,4.133c-28.977-0.293-57.953-1.592-86.899-2.982
	c-20.285-0.975-40.558-2.529-60.773-4.41c-34.801-3.232-69.545-7.002-104.329-10.4c-34.783-3.397-69.548-7.053-104.393-9.792
	c-35.179-2.77-70.413-5.293-105.68-6.562c-37.979-1.367-75.928,0.32-113.727,4.771c-34.486,4.057-191.523,19.819-295.627,149.819
	v84.106c43.331-0.147,201.434-0.163,244.765-0.166c232.659-0.015,465.317-0.027,697.978-0.018
	c172.995,0.007,345.991,0.051,518.984,0.077c4.231,0,8.462,0,13.687,0c0-5.544-0.002-9.872,0-14.199
	c0.014-230.517,0.027-117.135,0.041-347.651c0-2.828,0.515-69.094,0.211-71.891L3220.011,91.817z"/>
<g>
	<g>
		<defs>
			<path id="SVGID_5_" d="M1992.476,769.541c3.985,3.71,8.266,4.662,13.5,4.644c43.331-0.152,86.663-0.163,129.994-0.166
				c232.658-0.015,465.316-0.027,697.977-0.018c172.995,0.007,345.991,0.052,518.984,0.078c4.232,0.001,8.463,0.001,13.687,0.001
				c0-5.712-0.001-10.17,0-14.628c0.015-237.478,0.027-474.955,0.042-712.429c0-2.912,0.514-71.182,0.211-74.062l-123.386,98.266
				c-66.47,46.629-138.663,81.996-217.319,104.77c-50.902,14.738-102.82,24.096-155.72,28.926
				c-35.893,3.275-71.829,4.633-107.812,4.26c-28.978-0.303-57.953-1.641-86.9-3.074c-20.285-1.002-40.557-2.604-60.773-4.541
				c-34.801-3.332-69.545-7.215-104.328-10.715c-34.783-3.5-69.549-7.266-104.394-10.09c-35.178-2.852-70.413-5.451-105.679-6.76
				c-37.98-1.408-75.928,0.33-113.728,4.914c-34.485,4.182-68.259,11.107-101.071,22.293
				c-45.19,15.402-85.418,39.117-122.127,68.715"/>
		</defs>
		<clipPath id="SVGID_2_">
			<use xlink:href="#SVGID_5_"  overflow="visible"/>
		</clipPath>
		<path opacity="0.05" clip-path="url(#SVGID_2_)" fill="#FFFFFF" enable-background="new    " d="M2410.288,189.586
			c-33.928,53.174-54.747,115.189-62.008,186.546c-1.832,18.015-3.331,36.009-4.386,53.971l-305.464,0.021
			c14.732-91.306,51.588-174.536,108.687-245.656C2197.911,121.202,2447.809,130.782,2410.288,189.586z"/>
	</g>
</g>
<g>
	<g>
		<defs>
			<path id="SVGID_7_" d="M1992.476,769.721c3.985,3.711,8.266,4.663,13.5,4.646c43.331-0.152,86.663-0.163,129.994-0.166
				c232.658-0.016,465.316-0.028,697.977-0.019c172.995,0.007,345.991,0.053,518.984,0.079c4.232,0.001,8.463,0.001,13.687,0.001
				c0-5.713-0.001-10.172,0-14.631c0.015-237.531,0.027-475.062,0.042-712.591c0-2.914,0.514-71.197,0.211-74.078l-123.386,98.287
				c-66.47,46.641-138.663,82.016-217.319,104.795c-50.902,14.74-102.82,24.102-155.72,28.934
				c-35.893,3.275-71.829,4.633-107.812,4.258c-28.978-0.301-57.953-1.641-86.9-3.074c-20.285-1.002-40.557-2.604-60.773-4.543
				c-34.801-3.332-69.545-7.215-104.328-10.717c-34.783-3.5-69.549-7.268-104.394-10.09c-35.178-2.854-70.413-5.453-105.679-6.764
				c-37.98-1.408-75.928,0.33-113.728,4.916c-34.485,4.182-68.259,11.109-101.071,22.297c-45.19,15.408-85.418,39.127-122.127,68.73
				c-33.814,27.27-63.839,57.801-86.284,94.814c-17.798,29.35-30.282,60.732-33.438,94.698"/>
		</defs>
		<clipPath id="SVGID_4_">
			<use xlink:href="#SVGID_7_"  overflow="visible"/>
		</clipPath>
		<path opacity="0.05" clip-path="url(#SVGID_4_)" fill="#FFFFFF" enable-background="new    " d="M2510.63,197.438
			c7.625,45.302,21.584,76.039,38.5,120.043c15.595,40.572,33.843,78.056,54.603,112.608l-327.001,0.013
			c-45.664-77.121-71.9-162.018-82.085-253.006C2192.51,158.022,2510.63,197.438,2510.63,197.438z"/>
	</g>
</g>
<g>
	<path opacity="0.05" fill="#FFFFFF" enable-background="new    " d="M2947.04,201.239c72.596,49.371,156.557,85.367,250.2,109.844
		c56.026,14.645,112.573,22.002,169.401,25.039l-0.006,93.138l-334.491,0.86c22.885-9.33,45.635-18.489,67.856-27.987
		c-57.865-15.315-119.078-29.487-179.063-47.753c-107.622-32.799-207.09-79.633-295.364-144.887L2947.04,201.239z"/>
</g>
</svg>
