<?xml version="1.0" encoding="utf-8"?>
<!-- Generator: Adobe Illustrator 16.0.0, SVG Export Plug-In . SVG Version: 6.00 Build 0)  -->
<!DOCTYPE svg PUBLIC "-//W3C//DTD SVG 1.1//EN" "http://www.w3.org/Graphics/SVG/1.1/DTD/svg11.dtd">
<svg version="1.1" id="Layer_1" xmlns="http://www.w3.org/2000/svg" xmlns:xlink="http://www.w3.org/1999/xlink" x="0px" y="0px"
	 width="1270.672px" height="763.347px" viewBox="0 0 1270.672 763.347" enable-background="new 0 0 1270.672 763.347"
	 xml:space="preserve">
<g id="_x38_C3gSH.tif">
	
		<image overflow="visible" enable-background="new    " width="1783" height="2804" id="Layer_0" xlink:href="F840624A62AAE5C3.png"  transform="matrix(1 0 0 1 -2209.3286 -1078.6533)">
	</image>
</g>
<path fill="#0D3182" d="M58.39,655.509c66.47-45.262,138.663-79.594,217.32-101.701c50.901-14.305,102.819-23.389,155.719-28.078
	c35.894-3.18,71.829-4.494,107.812-4.133c28.977,0.293,57.953,1.592,86.899,2.982c20.285,0.975,40.558,2.529,60.773,4.41
	c34.801,3.232,69.545,7.002,104.329,10.4c34.783,3.396,69.548,7.053,104.393,9.791c35.179,2.77,70.413,5.293,105.68,6.562
	c37.979,1.367,75.928-0.32,113.727-4.771c34.486-4.057,68.259-10.781,101.072-21.639c27.771-9.189,30.198-8.27,54.558-23.006
	v-533.18c-43.331,0.148-61.437,0.164-104.768,0.167c-232.659,0.015-465.317,0.028-697.978,0.018
	c-172.995-0.007-345.991-0.051-518.984-0.077c-4.231,0-8.462,0-13.686,0c0,5.544,0.001,9.872,0,14.199
	c-0.014,230.516-0.027,461.033-0.042,691.548c0,2.828-0.514,69.094-0.211,71.891L58.39,655.509z"/>
<g>
	<g>
		<defs>
			<path id="SVGID_1_" d="M1285.926-22.214c-3.985-3.71-8.266-4.662-13.5-4.644c-43.331,0.153-86.663,0.163-129.994,0.166
				c-232.658,0.015-465.316,0.028-697.977,0.018C271.46-26.681,98.464-26.726-74.53-26.752c-4.231-0.001-8.462-0.001-13.686-0.001
				c0,5.712,0.001,10.17,0,14.628c-0.014,237.477-0.027,474.955-0.042,712.429c0,2.912-0.514,71.182-0.211,74.062l123.386-98.266
				c66.47-46.629,138.663-81.996,217.32-104.77c50.901-14.738,102.819-24.096,155.719-28.926
				c35.893-3.275,71.829-4.633,107.812-4.26c28.978,0.303,57.953,1.641,86.9,3.074c20.285,1.002,40.557,2.604,60.773,4.541
				c34.801,3.332,69.545,7.215,104.328,10.715s69.549,7.266,104.394,10.09c35.178,2.852,70.413,5.451,105.679,6.76
				c37.98,1.408,75.928-0.33,113.728-4.914c34.485-4.182,68.259-11.107,101.071-22.293c45.19-15.402,85.418-39.117,122.127-68.715"
				/>
		</defs>
		<clipPath id="SVGID_2_">
			<use xlink:href="#SVGID_1_"  overflow="visible"/>
		</clipPath>
		<path opacity="0.05" clip-path="url(#SVGID_2_)" fill="#FFFFFF" enable-background="new    " d="M868.113,557.74
			c33.928-53.174,54.747-115.189,62.008-186.545c10.26-100.886,10.09-201.125-20.271-298.556
			c-49.703-159.55-154.36-218.295-309.442-280.22c-8.862-3.54-17.098-8.585-25.623-12.92c138.102,0,276.188,0,414.289,0
			c131.749,95.157,218.946,168.483,247.772,330.321c30.838,173.105-7.521,330.923-105.562,453.04
			C1080.49,626.125,830.593,616.544,868.113,557.74z"/>
	</g>
</g>
<g>
	<g>
		<defs>
			<path id="SVGID_3_" d="M1285.926-22.395c-3.985-3.711-8.266-4.663-13.5-4.645c-43.331,0.152-86.663,0.163-129.994,0.166
				c-232.658,0.015-465.316,0.028-697.977,0.018C271.46-26.863,98.464-26.908-74.53-26.935c-4.231-0.001-8.462-0.001-13.686-0.001
				c0,5.713,0.001,10.172,0,14.631c-0.014,237.531-0.027,475.062-0.042,712.592c0,2.914-0.514,71.197-0.211,74.078l123.386-98.287
				c66.47-46.641,138.663-82.016,217.32-104.795c50.901-14.74,102.819-24.102,155.719-28.934
				c35.893-3.275,71.829-4.633,107.812-4.258c28.978,0.301,57.953,1.641,86.9,3.074c20.285,1.002,40.557,2.604,60.773,4.543
				c34.801,3.332,69.545,7.215,104.328,10.717c34.783,3.5,69.549,7.268,104.394,10.09c35.178,2.854,70.413,5.453,105.679,6.764
				c37.98,1.408,75.928-0.33,113.728-4.916c34.485-4.182,68.259-11.109,101.071-22.297c45.19-15.408,85.418-39.127,122.127-68.73
				c33.814-27.27,63.839-57.801,86.284-94.814c17.798-29.349,30.282-60.732,33.438-94.698"/>
		</defs>
		<clipPath id="SVGID_4_">
			<use xlink:href="#SVGID_3_"  overflow="visible"/>
		</clipPath>
		<path opacity="0.05" clip-path="url(#SVGID_4_)" fill="#FFFFFF" enable-background="new    " d="M767.771,549.888
			c-7.625-45.303-21.584-76.039-38.5-120.043C641.396,201.219,469.268,70.651,238.161,10.244
			C110.698-23.073-19.46-18.678-149.498-11.478c-15.7,0.867-31.401,1.662-47.103,2.493c0-29.596,0-59.18,0-88.775
			c71.666-4.214,143.545-6.382,214.996-13.136c94.087-8.898,188.171-19.614,273.365-66.404
			c131.344-72.11,206.762-129.965,222.053-280.232c10.261-100.887,10.091-201.125-20.271-298.557
			c-49.704-159.55-154.361-269.275-309.443-331.2c-8.862-3.54-17.097-8.585-25.623-12.92c138.102,0,276.188,0,414.289,0
			c131.749,95.157,218.947,219.463,247.773,381.301c46.812,262.785-65.837,439.36-304.677,560.271
			c-59,29.873-121.583,52.665-180.462,77.83c57.865,15.315,119.078,29.487,179.064,47.753
			C671.74,14.88,811.604,92.782,924.567,214.356c94.734,101.962,144.243,222.36,159.188,355.874
			C1085.892,589.304,767.771,549.888,767.771,549.888z"/>
	</g>
</g>
<g>
	<path opacity="0.05" fill="#FFFFFF" enable-background="new    " d="M331.361,546.087c-72.596-49.371-156.557-85.367-250.2-109.844
		C25.135,421.599-31.412,414.242-88.24,411.205l0.005-101.24c77.047-8.739,153.021-22.834,222.996-61.266
		C249.242,185.847,321.236,95.093,347.96-26.677l288.894-0.174c-48.375,123.53-143.039,225.896-277.992,294.214
		c-59,29.873-121.583,52.666-180.462,77.831c57.865,15.315,119.078,29.487,179.064,47.753
		c107.622,32.799,207.09,79.633,295.364,144.887L331.361,546.087z"/>
</g>
</svg>
